%TF.GenerationSoftware,KiCad,Pcbnew,(6.0.10-0)*%
%TF.CreationDate,2023-01-29T16:29:31+09:00*%
%TF.ProjectId,corne-ultralight,636f726e-652d-4756-9c74-72616c696768,2.0*%
%TF.SameCoordinates,Original*%
%TF.FileFunction,Drillmap*%
%TF.FilePolarity,Positive*%
%FSLAX45Y45*%
G04 Gerber Fmt 4.5, Leading zero omitted, Abs format (unit mm)*
G04 Created by KiCad (PCBNEW (6.0.10-0)) date 2023-01-29 16:29:31*
%MOMM*%
%LPD*%
G01*
G04 APERTURE LIST*
%ADD10C,0.200000*%
%ADD11C,0.030000*%
%ADD12C,0.090000*%
%ADD13C,0.099060*%
%ADD14C,0.170180*%
%ADD15C,0.230000*%
%ADD16C,0.430000*%
%ADD17C,0.500000*%
G04 APERTURE END LIST*
D10*
X3119750Y-5166000D02*
X3119750Y-3841000D01*
X3219750Y-5916000D02*
X3219750Y-7066000D01*
X3147875Y-3794125D02*
X3169750Y-3791000D01*
X3188500Y-3794125D02*
X3169750Y-3791000D01*
X3122875Y-3822250D02*
X3132250Y-3803500D01*
X3122875Y-3822250D02*
X3119750Y-3841000D01*
X3216625Y-3822250D02*
X3207250Y-3803500D01*
X3219750Y-3841000D02*
X3216625Y-3822250D01*
X3151000Y-5212875D02*
X3169750Y-5216000D01*
X3122875Y-5184750D02*
X3132250Y-5203500D01*
X3119750Y-5166000D02*
X3122875Y-5184750D01*
X3216625Y-5184750D02*
X3219750Y-5166000D01*
X3191625Y-5212875D02*
X3207250Y-5203500D01*
X3216625Y-5184750D02*
X3207250Y-5203500D01*
X3191625Y-5212875D02*
X3169750Y-5216000D01*
X3132250Y-5203500D02*
X3151000Y-5212875D01*
X3188500Y-5869125D02*
X3169750Y-5866000D01*
X3216625Y-5897250D02*
X3207250Y-5878500D01*
X3219750Y-5916000D02*
X3216625Y-5897250D01*
X3122875Y-5897250D02*
X3119750Y-5916000D01*
X3147875Y-5869125D02*
X3132250Y-5878500D01*
X3122875Y-5897250D02*
X3132250Y-5878500D01*
X3147875Y-5869125D02*
X3169750Y-5866000D01*
X3207250Y-5878500D02*
X3188500Y-5869125D01*
X3151000Y-7112875D02*
X3169750Y-7116000D01*
X3216625Y-7084750D02*
X3219750Y-7066000D01*
X3216625Y-7084750D02*
X3207250Y-7103500D01*
X3122875Y-7084750D02*
X3132250Y-7103500D01*
X3191625Y-7112875D02*
X3207250Y-7103500D01*
X3132250Y-7103500D02*
X3151000Y-7112875D01*
X3191625Y-7112875D02*
X3169750Y-7116000D01*
X3119750Y-7066000D02*
X3122875Y-7084750D01*
X3147875Y-7794125D02*
X3132250Y-7803500D01*
X3122875Y-7822250D02*
X3132250Y-7803500D01*
X3216625Y-7822250D02*
X3207250Y-7803500D01*
X3188500Y-7794125D02*
X3169750Y-7791000D01*
X3207250Y-7803500D02*
X3188500Y-7794125D01*
X3122875Y-7822250D02*
X3119750Y-7841000D01*
X3219750Y-7841000D02*
X3216625Y-7822250D01*
X3147875Y-7794125D02*
X3169750Y-7791000D01*
X3216625Y-9184750D02*
X3219750Y-9166000D01*
X3191625Y-9212875D02*
X3207250Y-9203500D01*
X3191625Y-9212875D02*
X3169750Y-9216000D01*
X3216625Y-9184750D02*
X3207250Y-9203500D01*
X3119750Y-9166000D02*
X3122875Y-9184750D01*
X3122875Y-9184750D02*
X3132250Y-9203500D01*
X3151000Y-9212875D02*
X3169750Y-9216000D01*
X3132250Y-9203500D02*
X3151000Y-9212875D01*
X26938500Y-3794125D02*
X26919750Y-3791000D01*
X26966625Y-3822250D02*
X26957250Y-3803500D01*
X26969750Y-3841000D02*
X26966625Y-3822250D01*
X26872875Y-3822250D02*
X26869750Y-3841000D01*
X26897875Y-3794125D02*
X26882250Y-3803500D01*
X26872875Y-3822250D02*
X26882250Y-3803500D01*
X26897875Y-3794125D02*
X26919750Y-3791000D01*
X26957250Y-3803500D02*
X26938500Y-3794125D01*
X26966625Y-5184750D02*
X26957250Y-5203500D01*
X26941625Y-5212875D02*
X26957250Y-5203500D01*
X26872875Y-5184750D02*
X26882250Y-5203500D01*
X26901000Y-5212875D02*
X26919750Y-5216000D01*
X26941625Y-5212875D02*
X26919750Y-5216000D01*
X26966625Y-5184750D02*
X26969750Y-5166000D01*
X26882250Y-5203500D02*
X26901000Y-5212875D01*
X26869750Y-5166000D02*
X26872875Y-5184750D01*
X26897875Y-5869125D02*
X26919750Y-5866000D01*
X26872875Y-5897250D02*
X26869750Y-5916000D01*
X26957250Y-5878500D02*
X26938500Y-5869125D01*
X26966625Y-5897250D02*
X26957250Y-5878500D01*
X26938500Y-5869125D02*
X26919750Y-5866000D01*
X26897875Y-5869125D02*
X26882250Y-5878500D01*
X26872875Y-5897250D02*
X26882250Y-5878500D01*
X26969750Y-5916000D02*
X26966625Y-5897250D01*
X26941625Y-7112875D02*
X26919750Y-7116000D01*
X26966625Y-7084750D02*
X26969750Y-7066000D01*
X26869750Y-7066000D02*
X26872875Y-7084750D01*
X26941625Y-7112875D02*
X26957250Y-7103500D01*
X26901000Y-7112875D02*
X26919750Y-7116000D01*
X26966625Y-7084750D02*
X26957250Y-7103500D01*
X26882250Y-7103500D02*
X26901000Y-7112875D01*
X26872875Y-7084750D02*
X26882250Y-7103500D01*
X26966625Y-7797250D02*
X26957250Y-7778500D01*
X26872875Y-7797250D02*
X26882250Y-7778500D01*
X26957250Y-7778500D02*
X26938500Y-7769125D01*
X26872875Y-7797250D02*
X26869750Y-7816000D01*
X26897875Y-7769125D02*
X26882250Y-7778500D01*
X26938500Y-7769125D02*
X26919750Y-7766000D01*
X26969750Y-7816000D02*
X26966625Y-7797250D01*
X26897875Y-7769125D02*
X26919750Y-7766000D01*
X26869750Y-9166000D02*
X26872875Y-9184750D01*
X26941625Y-9212875D02*
X26919750Y-9216000D01*
X26901000Y-9212875D02*
X26919750Y-9216000D01*
X26966625Y-9184750D02*
X26957250Y-9203500D01*
X26882250Y-9203500D02*
X26901000Y-9212875D01*
X26872875Y-9184750D02*
X26882250Y-9203500D01*
X26966625Y-9184750D02*
X26969750Y-9166000D01*
X26941625Y-9212875D02*
X26957250Y-9203500D01*
X28776111Y-2784137D02*
X28793383Y-2769913D01*
X1967454Y-9409212D02*
X1967200Y-9409466D01*
X5785324Y-2902754D02*
X5785578Y-2902754D01*
X23724818Y-2813601D02*
X20637705Y-2813601D01*
X5778212Y-2879895D02*
X5778212Y-2879895D01*
X1328391Y-3703108D02*
X1318485Y-3713268D01*
X5778466Y-2880149D02*
X5778720Y-2880657D01*
X9544520Y-2847383D02*
X9527248Y-2833413D01*
X6263098Y-9340632D02*
X6263098Y-9341140D01*
X24316130Y-2903770D02*
X24316130Y-2903770D01*
X23480471Y-12316747D02*
X23482503Y-12294395D01*
X1294609Y-2271565D02*
X1284195Y-2291123D01*
X1865346Y-9464330D02*
X1865092Y-9464330D01*
X8818589Y-3198156D02*
X8828495Y-3208062D01*
X1864584Y-9464330D02*
X1389350Y-9464330D01*
X5727920Y-9434866D02*
X5744938Y-9420896D01*
X1889222Y-9461790D02*
X1888714Y-9461790D01*
X7948132Y-10778271D02*
X7959562Y-10786907D01*
X23482503Y-9576852D02*
X23482503Y-9576852D01*
X10711395Y-3435138D02*
X10718507Y-3448092D01*
X1987520Y-9318026D02*
X1988028Y-9340886D01*
X6661623Y-9463822D02*
X6661877Y-9463822D01*
X1985742Y-9364254D02*
X1985742Y-9364254D01*
X23127411Y-3218476D02*
X23838610Y-3218476D01*
X28775603Y-9482618D02*
X28755791Y-9472204D01*
X9486354Y-2816649D02*
X9464002Y-2814363D01*
X24967385Y-3238796D02*
X24974497Y-3252004D01*
X16940485Y-12109737D02*
X16927785Y-12117357D01*
X6728171Y-9529862D02*
X6728425Y-9530116D01*
X20593509Y-2822491D02*
X20573952Y-2832905D01*
X24316130Y-2903770D02*
X24316130Y-2903770D01*
X10176980Y-2814363D02*
X10176218Y-2814363D01*
X1318485Y-3713268D02*
X1311373Y-3726222D01*
X23484789Y-9553484D02*
X23485043Y-9553230D01*
X1912844Y-9454424D02*
X1912844Y-9454424D01*
X23605184Y-9453408D02*
X23605184Y-9453408D01*
X23768506Y-2822237D02*
X23747170Y-2815633D01*
X28823863Y-9554500D02*
X28817259Y-9533164D01*
X24316130Y-2903770D02*
X24316130Y-2903262D01*
X24324004Y-9339616D02*
X24324004Y-9340378D01*
X22111412Y-10793003D02*
X22102268Y-10793765D01*
X7011381Y-3026198D02*
X7008587Y-3042962D01*
X23087279Y-3198664D02*
X23080167Y-3185456D01*
X28135016Y-9408958D02*
X28134762Y-9408450D01*
X23449483Y-12374913D02*
X23463707Y-12357641D01*
X28727343Y-3693710D02*
X28744361Y-3696758D01*
X5088603Y-3683042D02*
X5098509Y-3672882D01*
X9527248Y-2833413D02*
X9507690Y-2822999D01*
X23537620Y-9474490D02*
X23557940Y-9463314D01*
X16927785Y-12117357D02*
X16914069Y-12123707D01*
X28214010Y-9461282D02*
X28214010Y-9461282D01*
X1277845Y-12688603D02*
X1284449Y-12709685D01*
X14673537Y-9750080D02*
X14678363Y-9734332D01*
X17427403Y-3693710D02*
X17427403Y-3693710D01*
X27630064Y-9383050D02*
X27636668Y-9361714D01*
X28792621Y-9496588D02*
X28775603Y-9482618D01*
X5751288Y-2840017D02*
X5751288Y-2840017D01*
X6376889Y-2814363D02*
X6376381Y-2814363D01*
X12558481Y-3467904D02*
X10758385Y-3467904D01*
X2471897Y-9384828D02*
X2482565Y-9404132D01*
X20038774Y-2926630D02*
X20036488Y-2904278D01*
X23484789Y-9553738D02*
X23484789Y-9553484D01*
X24412904Y-2805981D02*
X24413158Y-2805981D01*
X27638700Y-9339616D02*
X27639462Y-9318534D01*
X6332693Y-2823253D02*
X6313135Y-2833921D01*
X1952468Y-9427500D02*
X1952468Y-9427500D01*
X9578556Y-3217968D02*
X9578048Y-2928154D01*
X19427397Y-3218476D02*
X20039536Y-3218476D01*
X23537112Y-9474744D02*
X23537620Y-9474490D01*
X24436272Y-2803441D02*
X24436526Y-2803441D01*
X1325851Y-9483888D02*
X1308579Y-9498112D01*
X23482503Y-9576852D02*
X23484789Y-9553738D01*
X19968416Y-2822237D02*
X19947080Y-2815633D01*
X9578048Y-2927646D02*
X9575762Y-2905294D01*
X1889730Y-9461790D02*
X1889222Y-9461790D01*
X11666434Y-11272046D02*
X11650432Y-11270014D01*
X1889730Y-9461790D02*
X1889730Y-9461790D01*
X23127411Y-3218476D02*
X23110393Y-3215682D01*
X28756553Y-2794551D02*
X28776111Y-2784137D01*
X23838864Y-9339616D02*
X23839626Y-9318788D01*
X5664928Y-2804457D02*
X5687788Y-2806743D01*
X18402000Y-11275602D02*
X18419272Y-11272808D01*
X24415444Y-9451376D02*
X24437796Y-9453408D01*
X1933418Y-9443248D02*
X1933164Y-9443502D01*
X13338007Y-12071637D02*
X13338261Y-12071129D01*
X2465547Y-9363492D02*
X2471897Y-9384828D01*
X28767221Y-9298722D02*
X28757061Y-9308882D01*
X23725072Y-9453408D02*
X23725580Y-9453408D01*
X1952468Y-9427500D02*
X1952468Y-9427500D01*
X5766528Y-2858559D02*
X5766782Y-2858559D01*
X1978630Y-9388384D02*
X1967708Y-9408704D01*
X1978630Y-9387876D02*
X1978630Y-9388384D01*
X24412396Y-2806235D02*
X24412904Y-2805981D01*
X24368454Y-2824777D02*
X24368708Y-2824523D01*
X6738077Y-9577106D02*
X6738077Y-9577360D01*
X23412907Y-12399551D02*
X23432465Y-12388883D01*
X28169560Y-9442994D02*
X28169052Y-9442740D01*
X1275559Y-12666251D02*
X1277845Y-12688603D01*
X28123586Y-9387622D02*
X28123332Y-9387114D01*
X28190896Y-9454424D02*
X28190896Y-9454424D01*
X6740363Y-12318525D02*
X6746967Y-12339607D01*
X24436272Y-2803441D02*
X24436272Y-2803441D01*
X3219750Y-7841000D02*
X3219750Y-9166000D01*
X16914069Y-12123707D02*
X16898829Y-12128787D01*
X26969750Y-5166000D02*
X26969750Y-3841000D01*
X6867363Y-9318788D02*
X6858473Y-9316000D01*
X27636668Y-9361714D02*
X27638700Y-9339616D01*
X1988028Y-9341140D02*
X1988028Y-9341140D01*
X5058377Y-3692948D02*
X5075649Y-3690154D01*
X6893779Y-9332758D02*
X6882095Y-9324122D01*
X14683443Y-3742986D02*
X14683443Y-9690644D01*
X28775603Y-2238799D02*
X28755791Y-2228385D01*
X28744107Y-9315740D02*
X28727343Y-9318788D01*
X28116474Y-9364508D02*
X28116220Y-9364254D01*
X1985742Y-9364254D02*
X1985742Y-9364254D01*
X21244257Y-3215936D02*
X21227239Y-3218730D01*
X1389604Y-12779281D02*
X28712611Y-12778519D01*
X1295117Y-2754165D02*
X1309341Y-2771437D01*
X6735537Y-9553738D02*
X6738077Y-9576852D01*
X5788118Y-2927138D02*
X5788118Y-2927392D01*
X2463515Y-9318534D02*
X5778720Y-9318534D01*
X15402263Y-3743494D02*
X15405311Y-3726730D01*
X15404295Y-9718838D02*
X15402517Y-9700550D01*
X8841703Y-3215174D02*
X8858467Y-3217968D01*
X14673283Y-3713014D02*
X14663377Y-3702854D01*
X6735537Y-9553230D02*
X6735537Y-9553738D01*
X7028399Y-3003084D02*
X7018493Y-3013244D01*
X5688042Y-2806743D02*
X5688296Y-2806743D01*
X12608519Y-3517942D02*
X12608519Y-3642910D01*
X13273491Y-12123199D02*
X13287969Y-12116595D01*
X28757061Y-9308882D02*
X28744107Y-9315740D01*
X1308579Y-3742986D02*
X1308579Y-3742986D01*
X28123586Y-9388130D02*
X28123586Y-9387622D01*
X20039536Y-3218476D02*
X20038774Y-2927392D01*
X1284195Y-9534688D02*
X1277845Y-9556024D01*
X13300415Y-12109229D02*
X13312607Y-12099831D01*
X1345408Y-2229655D02*
X1325851Y-2240069D01*
X28823863Y-2310681D02*
X28817259Y-2289345D01*
X28189880Y-9453916D02*
X28169560Y-9442994D01*
X10081984Y-2865163D02*
X10071570Y-2884721D01*
X15407597Y-9735348D02*
X15404295Y-9718838D01*
X23605184Y-9453408D02*
X23605438Y-9453408D01*
X23838864Y-2927392D02*
X23838864Y-2926630D01*
X6746967Y-12339607D02*
X6757635Y-12359165D01*
X1865092Y-9464330D02*
X1864584Y-9464330D01*
X2482565Y-9404132D02*
X2496789Y-9421404D01*
X1328645Y-9308120D02*
X1341598Y-9314978D01*
X6682451Y-9474744D02*
X6682451Y-9474998D01*
X1951706Y-9428262D02*
X1933926Y-9442994D01*
X5732492Y-2824777D02*
X5732492Y-2824777D01*
X1318485Y-9297960D02*
X1328645Y-9308120D01*
X24436780Y-2803441D02*
X24437288Y-2803441D01*
X23747170Y-2815633D02*
X23724818Y-2813601D01*
X20573952Y-2832905D02*
X20556934Y-2847129D01*
X23581054Y-9456202D02*
X23581562Y-9455948D01*
X6858473Y-9316000D02*
X6262590Y-9316000D01*
X12575245Y-3470952D02*
X12558481Y-3467904D01*
X12608519Y-3517942D02*
X12605471Y-3500924D01*
X9464002Y-2814363D02*
X6376889Y-2814363D01*
X24436526Y-2803441D02*
X24436780Y-2803441D01*
X7018493Y-3013244D02*
X7011381Y-3026198D01*
X6265384Y-2906056D02*
X6263098Y-2928408D01*
X1284449Y-2734861D02*
X1295117Y-2754165D01*
X19947080Y-2815633D02*
X19924982Y-2813601D01*
X6313135Y-2833921D02*
X6296118Y-2848145D01*
X14650169Y-3695996D02*
X14633405Y-3692948D01*
X10675327Y-3221016D02*
X10658563Y-3217968D01*
X1985742Y-9364254D02*
X1985742Y-9364254D01*
X3119750Y-9166000D02*
X3119750Y-7841000D01*
X23829974Y-2883197D02*
X23819306Y-2863639D01*
X23492155Y-9529608D02*
X23503077Y-9509288D01*
X18419272Y-11272808D02*
X18435274Y-11270776D01*
X28817259Y-2289345D02*
X28806845Y-2270041D01*
X19374311Y-3435900D02*
X19367199Y-3448854D01*
X23503077Y-9509034D02*
X23503331Y-9508780D01*
X6998681Y-3197902D02*
X7005539Y-3184948D01*
X23581816Y-9455948D02*
X23604930Y-9453408D01*
X24368200Y-2825031D02*
X24368454Y-2824777D01*
X21274229Y-3185710D02*
X21267371Y-3198918D01*
X5766782Y-2858559D02*
X5767036Y-2859067D01*
X1284195Y-2291123D02*
X1277845Y-2312205D01*
X17477187Y-3518704D02*
X17477187Y-3643672D01*
X27569104Y-9444518D02*
X27588662Y-9434104D01*
X24316384Y-2902754D02*
X24322988Y-2880657D01*
X24314606Y-3218730D02*
X24313844Y-2927138D01*
X6661115Y-9463568D02*
X6661115Y-9463568D01*
X20542964Y-2864401D02*
X20532550Y-2883959D01*
X23838864Y-2926630D02*
X23836578Y-2904278D01*
X5711156Y-2813601D02*
X5711410Y-2813855D01*
X1367252Y-2802171D02*
X1389604Y-2804457D01*
X23819306Y-2863639D02*
X23805082Y-2846621D01*
X6716995Y-9509034D02*
X6717249Y-9509288D01*
X1345916Y-12770899D02*
X1367252Y-12777249D01*
X28123586Y-9388130D02*
X28123586Y-9388130D01*
X16844473Y-12132343D02*
X16827709Y-12129041D01*
X28113934Y-9340124D02*
X28113680Y-9340124D01*
X17487347Y-3488732D02*
X17497507Y-3478572D01*
X9558744Y-2864655D02*
X9544520Y-2847383D01*
X8858467Y-3217968D02*
X8858467Y-3217968D01*
X12605471Y-3500924D02*
X12598359Y-3487970D01*
X5732492Y-2824777D02*
X5732492Y-2824777D01*
X16785799Y-12110245D02*
X16774115Y-12101609D01*
X6638509Y-9456710D02*
X6638763Y-9456964D01*
X1389604Y-2804457D02*
X5664674Y-2804457D01*
X5733254Y-2825285D02*
X5751288Y-2840017D01*
X28168798Y-9442486D02*
X28150764Y-9428008D01*
X16898829Y-12128787D02*
X16882065Y-12132089D01*
X20556934Y-2847129D02*
X20542964Y-2864401D01*
X6661115Y-9463568D02*
X6661623Y-9463822D01*
X17477187Y-3643672D02*
X17474393Y-3660944D01*
X11715964Y-11282968D02*
X13145475Y-12109229D01*
X21327315Y-2993686D02*
X21327315Y-2993686D01*
X24367946Y-2825031D02*
X24368200Y-2825031D01*
X23227233Y-9318788D02*
X23839626Y-9318788D01*
X28807353Y-12727719D02*
X28817767Y-12708161D01*
X6638001Y-9456710D02*
X6638509Y-9456710D01*
X24374804Y-9434612D02*
X24394362Y-9445026D01*
X5744938Y-9420896D02*
X5759162Y-9403624D01*
X13187131Y-12128025D02*
X13203895Y-12131581D01*
X23067213Y-3013752D02*
X23074325Y-3026706D01*
X1277845Y-9556024D02*
X1275559Y-9578376D01*
X14683443Y-9699026D02*
X14683443Y-9690644D01*
X6271734Y-2884721D02*
X6265384Y-2906056D01*
X1311373Y-9285006D02*
X1318485Y-9297960D01*
X19410633Y-3221524D02*
X19427397Y-3218476D01*
X24334164Y-2859067D02*
X24334672Y-2858813D01*
X24368708Y-2824523D02*
X24389282Y-2813347D01*
X6728171Y-9529862D02*
X6728171Y-9529862D01*
X28767475Y-3713776D02*
X28774333Y-3726984D01*
X8808429Y-3042962D02*
X8805635Y-3025944D01*
X23769268Y-9444518D02*
X23788572Y-9434104D01*
X7959562Y-10786907D02*
X7974548Y-10792241D01*
X26869750Y-7816000D02*
X26869750Y-9166000D01*
X24334672Y-2858305D02*
X24349404Y-2840525D01*
X27525671Y-9453408D02*
X27548023Y-9451122D01*
X19344085Y-3465872D02*
X19327321Y-3468412D01*
X10154120Y-2816649D02*
X10132784Y-2823253D01*
X19367199Y-3448854D02*
X19357039Y-3458760D01*
X5732746Y-2825031D02*
X5733254Y-2825285D01*
X21297343Y-3003592D02*
X21310297Y-2996734D01*
X6893779Y-9332758D02*
X7948132Y-10778271D01*
X23482503Y-9577106D02*
X23482503Y-9576852D01*
X5098509Y-3672882D02*
X5105621Y-3659928D01*
X24350166Y-2839763D02*
X24367946Y-2825031D01*
X6728425Y-9530116D02*
X6728679Y-9530624D01*
X13332419Y-12079257D02*
X13338007Y-12071637D01*
X6377143Y-9454424D02*
X6614633Y-9454424D01*
X5788118Y-2926884D02*
X5788118Y-2926884D01*
X23484789Y-9553738D02*
X23484789Y-9553738D01*
X28777381Y-3743748D02*
X28777381Y-9268496D01*
X21277277Y-3168438D02*
X21277277Y-3043470D01*
X23581054Y-9456202D02*
X23581054Y-9456202D01*
X1345916Y-2795821D02*
X1367252Y-2802171D01*
X20637705Y-2813601D02*
X20636943Y-2813601D01*
X13203895Y-12131581D02*
X13222691Y-12132851D01*
X14681665Y-9717568D02*
X14683443Y-9699026D01*
X6614887Y-9454424D02*
X6638001Y-9456710D01*
X17477187Y-3518704D02*
X17480235Y-3501686D01*
X19357039Y-3458760D02*
X19344085Y-3465872D01*
X10063188Y-2928408D02*
X10063696Y-3217968D01*
X24334672Y-2858813D02*
X24334672Y-2858305D01*
X6271988Y-9384828D02*
X6282656Y-9404132D01*
X7041353Y-2995972D02*
X7028399Y-3003084D01*
X24313844Y-2926884D02*
X24316130Y-2903770D01*
X1341598Y-9314978D02*
X1358616Y-9318026D01*
X22126144Y-10787669D02*
X22111412Y-10793003D01*
X28735471Y-2801155D02*
X28756553Y-2794551D01*
X23606200Y-9453408D02*
X23725072Y-9453408D01*
X24349404Y-2840271D02*
X24349658Y-2840017D01*
X12658557Y-3692948D02*
X12658557Y-3692948D01*
X28150764Y-9428008D02*
X28150764Y-9427754D01*
X5664928Y-9454424D02*
X5687280Y-9452138D01*
X21277277Y-3168438D02*
X21274229Y-3185710D01*
X20525946Y-2905294D02*
X20523914Y-2927392D01*
X28713119Y-2803441D02*
X28735471Y-2801155D01*
X6958549Y-3217968D02*
X6263606Y-3217968D01*
X5075649Y-3690154D02*
X5088603Y-3683042D01*
X23557940Y-9463314D02*
X23557940Y-9463314D01*
X2463007Y-9340632D02*
X2463007Y-9341140D01*
X16754049Y-12080781D02*
X16747953Y-12072399D01*
X13287969Y-12116595D02*
X13300415Y-12109229D01*
X6661877Y-9463822D02*
X6682451Y-9474744D01*
X12618425Y-3673136D02*
X12628585Y-3683042D01*
X23191927Y-9333266D02*
X22137574Y-10779033D01*
X2496789Y-9421404D02*
X2513807Y-9435374D01*
X10132784Y-2823253D02*
X10113226Y-2833921D01*
X14667695Y-9764304D02*
X14673537Y-9750080D01*
X5058377Y-3692948D02*
X1369750Y-3692948D01*
X23558956Y-9463060D02*
X23581054Y-9456202D01*
X16863269Y-12133613D02*
X16844473Y-12132343D01*
X5141435Y-3221016D02*
X5128481Y-3228128D01*
X12628585Y-3683042D02*
X12641539Y-3690154D01*
X1985742Y-9364762D02*
X1985742Y-9365270D01*
X28113934Y-9340632D02*
X28113934Y-9340124D01*
X2463007Y-9341140D02*
X2465547Y-9363492D01*
X6738077Y-9577868D02*
X6738077Y-9577868D01*
X12588453Y-3478064D02*
X12575245Y-3470952D01*
X28826403Y-2333033D02*
X28823863Y-2310681D01*
X23518062Y-9490492D02*
X23518316Y-9490492D01*
X28237124Y-9463568D02*
X28237124Y-9463568D01*
X11715964Y-11282968D02*
X11700216Y-11278650D01*
X6296626Y-9421404D02*
X6313897Y-9435374D01*
X15435536Y-3696504D02*
X15452300Y-3693456D01*
X13157921Y-12116595D02*
X13171891Y-12122945D01*
X17457121Y-3683804D02*
X17444167Y-3690916D01*
X6682451Y-9474998D02*
X6682959Y-9474998D01*
X24389282Y-2813347D02*
X24389790Y-2813093D01*
X23191927Y-9333266D02*
X23203357Y-9324884D01*
X15402263Y-3743494D02*
X15402263Y-9690898D01*
X3219750Y-3841000D02*
X3219750Y-5166000D01*
X24437796Y-9453408D02*
X27525163Y-9453408D01*
X6852123Y-12409457D02*
X23368711Y-12408441D01*
X5778212Y-2879895D02*
X5778466Y-2880149D01*
X17527225Y-3468412D02*
X19327321Y-3468412D01*
X23518316Y-9490492D02*
X23518570Y-9489984D01*
X10718507Y-3448092D02*
X10728667Y-3457998D01*
X6738077Y-9577868D02*
X6738077Y-12295665D01*
X19377359Y-3268514D02*
X19380407Y-3251750D01*
X24324004Y-9340378D02*
X24326290Y-9362730D01*
X6296118Y-2848145D02*
X6282148Y-2865163D01*
X17474393Y-3660944D02*
X17467281Y-3673898D01*
X7008587Y-3042962D02*
X7008333Y-3167930D01*
X23518570Y-9489984D02*
X23518824Y-9489730D01*
X24957225Y-3228890D02*
X24967385Y-3238796D01*
X6958549Y-3217968D02*
X6975567Y-3215174D01*
X23218089Y-9319550D02*
X23227233Y-9318788D01*
X7008587Y-3042962D02*
X7008587Y-3042962D01*
X26969750Y-7066000D02*
X26969750Y-5916000D01*
X5788118Y-2927900D02*
X5788626Y-3217968D01*
X24323242Y-2880149D02*
X24323496Y-2879641D01*
X13323021Y-12090179D02*
X13332419Y-12079257D01*
X23491901Y-9530624D02*
X23491901Y-9530116D01*
X6682451Y-9474744D02*
X6682451Y-9474744D01*
X28123586Y-9388130D02*
X28123586Y-9388130D01*
X24927253Y-3218730D02*
X24314606Y-3218730D01*
X1369750Y-3692948D02*
X1341344Y-3695996D01*
X23391571Y-12406155D02*
X23412907Y-12399551D01*
X23097185Y-3208570D02*
X23087279Y-3198664D01*
X5688804Y-2806997D02*
X5711156Y-2813601D01*
X11683706Y-11274840D02*
X11666434Y-11272046D01*
X1952468Y-9427500D02*
X1952214Y-9428008D01*
X6716741Y-9508526D02*
X6716741Y-9508526D01*
X28727343Y-9318788D02*
X28114696Y-9318788D01*
X1988028Y-9341140D02*
X1985742Y-9364254D01*
X1341344Y-3695996D02*
X1328391Y-3703108D01*
X23485043Y-9552722D02*
X23491901Y-9530624D01*
X28817259Y-9533164D02*
X28806845Y-9513606D01*
X28777381Y-9268496D02*
X28774333Y-9285768D01*
X24343308Y-9403370D02*
X24357532Y-9420388D01*
X6738077Y-12296173D02*
X6740363Y-12318525D01*
X5711156Y-2813601D02*
X5711156Y-2813601D01*
X5664674Y-2804457D02*
X5664928Y-2804457D01*
X28713119Y-12778519D02*
X28735471Y-12776233D01*
X6701247Y-9489984D02*
X6701247Y-9489984D01*
X6728171Y-9529862D02*
X6728171Y-9529862D01*
X16747953Y-12072399D02*
X16747445Y-12071891D01*
X8805635Y-3025944D02*
X8798523Y-3012990D01*
X5769576Y-9384066D02*
X5775926Y-9362730D01*
X7983438Y-10793003D02*
X11650432Y-11270014D01*
X24437288Y-2803441D02*
X24437288Y-2803441D01*
X23044353Y-2996734D02*
X23057307Y-3003846D01*
X1358616Y-9318026D02*
X1358616Y-9318026D01*
X6882095Y-9324122D02*
X6867363Y-9318788D01*
X28150256Y-9427500D02*
X28150002Y-9427246D01*
X1366490Y-9466616D02*
X1345408Y-9473220D01*
X24390044Y-2813093D02*
X24412142Y-2806235D01*
X6282656Y-9404132D02*
X6296626Y-9421404D01*
X20523914Y-2927392D02*
X20523660Y-3218730D01*
X1933926Y-9442994D02*
X1933418Y-9443248D01*
X1952214Y-9428008D02*
X1951706Y-9428262D01*
X6262590Y-9316000D02*
X6263098Y-9340632D01*
X6354029Y-2816649D02*
X6332693Y-2823253D01*
X1308579Y-3742986D02*
X1308579Y-9267988D01*
X24324512Y-9318534D02*
X27639462Y-9318534D01*
X3207250Y-3803500D02*
X3188500Y-3794125D01*
X20532550Y-2883959D02*
X20525946Y-2905294D01*
X10705553Y-3250988D02*
X10698441Y-3238034D01*
X21277277Y-3043470D02*
X21280325Y-3026706D01*
X28113934Y-9340886D02*
X28113934Y-9340886D01*
X16812215Y-12123961D02*
X16798499Y-12117611D01*
X28123586Y-9388130D02*
X28123586Y-9388130D01*
X2533619Y-9445788D02*
X2554701Y-9452138D01*
X23503077Y-9509288D02*
X23503077Y-9509288D01*
X2577053Y-9454424D02*
X5664420Y-9454424D01*
X23491901Y-9530624D02*
X23491901Y-9530624D01*
X23485043Y-9553230D02*
X23485043Y-9552722D01*
X5788118Y-2927900D02*
X5788118Y-2927900D01*
X23605438Y-9453408D02*
X23606200Y-9453408D01*
X6683213Y-9475506D02*
X6701247Y-9489984D01*
X28734709Y-9465600D02*
X28712357Y-9463568D01*
X25010311Y-3690662D02*
X24997103Y-3683550D01*
X24389282Y-2813347D02*
X24389282Y-2813347D01*
X5778212Y-9340378D02*
X5778720Y-9318534D01*
X5664420Y-9454424D02*
X5664928Y-9454424D01*
X1275559Y-2690665D02*
X1277845Y-2713525D01*
X15412168Y-9750842D02*
X15407597Y-9735348D01*
X28776111Y-12758961D02*
X28793383Y-12744991D01*
X1295117Y-12729243D02*
X1309341Y-12746261D01*
X23836578Y-9361714D02*
X23838864Y-9339616D01*
X1366490Y-2223051D02*
X1345408Y-2229655D01*
X24944271Y-3221778D02*
X24957225Y-3228890D01*
X23368711Y-12408441D02*
X23369473Y-12408441D01*
X28774333Y-3726984D02*
X28777381Y-3743748D01*
X27525163Y-9453408D02*
X27525671Y-9453408D01*
X28712611Y-12778519D02*
X28713119Y-12778519D01*
X10741621Y-3465110D02*
X10758385Y-3467904D01*
X23482503Y-12294395D02*
X23482503Y-9577106D01*
X6738077Y-9576852D02*
X6738077Y-9576852D01*
X28826403Y-9576598D02*
X28823863Y-9554500D01*
X6638001Y-9456710D02*
X6638001Y-9456710D01*
X16763701Y-12091703D02*
X16754049Y-12080781D01*
X17467281Y-3673898D02*
X17457121Y-3683804D01*
X28755791Y-9472204D02*
X28734709Y-9465600D01*
X5108415Y-3643164D02*
X5108415Y-3642910D01*
X1284449Y-12709685D02*
X1295117Y-12729243D01*
X6728171Y-9529862D02*
X6728171Y-9529862D01*
X15402517Y-9700550D02*
X15402263Y-9690898D01*
X6638763Y-9456964D02*
X6661115Y-9463568D01*
X24349658Y-2840017D02*
X24350166Y-2839763D01*
X21327315Y-2993432D02*
X23027335Y-2993432D01*
X26869750Y-3841000D02*
X26869750Y-5166000D01*
X28169560Y-9442994D02*
X28169560Y-9442994D01*
X28123332Y-9387114D02*
X28116474Y-9365016D01*
X1309341Y-12746261D02*
X1326359Y-12760485D01*
X20029884Y-2883197D02*
X20019470Y-2863639D01*
X15412422Y-3713776D02*
X15422582Y-3703616D01*
X5105621Y-3659928D02*
X5108415Y-3643164D01*
X5108415Y-3268006D02*
X5108415Y-3642910D01*
X14660837Y-9777766D02*
X14667695Y-9764304D01*
X9575762Y-2905294D02*
X9569158Y-2884213D01*
X23557940Y-9463314D02*
X23557940Y-9463314D01*
X8798523Y-3012990D02*
X8788363Y-3002830D01*
X1309341Y-2771437D02*
X1326359Y-2785407D01*
X15452300Y-3693456D02*
X17427403Y-3693710D01*
X19387265Y-3238796D02*
X19397425Y-3228636D01*
X1277845Y-2713525D02*
X1284449Y-2734861D01*
X1933926Y-9442994D02*
X1933926Y-9442994D01*
X28712611Y-2803441D02*
X28713119Y-2803441D01*
X24323496Y-2879641D02*
X24334164Y-2859321D01*
X5785578Y-2903262D02*
X5785578Y-2903770D01*
X6717249Y-9509288D02*
X6728171Y-9529862D01*
X17480235Y-3501686D02*
X17487347Y-3488732D01*
X18385490Y-11279412D02*
X18402000Y-11275602D01*
X8775409Y-2995972D02*
X8758391Y-2992924D01*
X24322988Y-2880403D02*
X24323242Y-2880149D01*
X1388842Y-2220765D02*
X1366490Y-2223051D01*
X10708601Y-3418120D02*
X10708601Y-3268006D01*
X21287437Y-3013752D02*
X21297343Y-3003592D01*
X5711918Y-2813855D02*
X5732492Y-2824777D01*
X12611567Y-3660182D02*
X12618425Y-3673136D01*
X9569158Y-2884213D02*
X9558744Y-2864655D01*
X28214010Y-9461282D02*
X28214010Y-9461282D01*
X1277845Y-2312205D02*
X1275559Y-2334557D01*
X20614591Y-2815887D02*
X20593509Y-2822491D01*
X5751796Y-2840779D02*
X5766528Y-2858559D01*
X24412142Y-2806235D02*
X24412142Y-2806235D01*
X8788363Y-3002830D02*
X8775409Y-2995972D01*
X23473867Y-12338083D02*
X23480471Y-12316747D01*
X17497507Y-3478572D02*
X17510461Y-3471714D01*
X24437288Y-2803441D02*
X28712611Y-2803441D01*
X28212994Y-9461028D02*
X28190896Y-9454424D01*
X28113680Y-9340124D02*
X28114696Y-9318788D01*
X24316130Y-2903262D02*
X24316384Y-2902754D01*
X5751288Y-2840017D02*
X5751542Y-2840271D01*
X13171891Y-12122945D02*
X13187131Y-12128025D01*
X1275559Y-2334557D02*
X1275559Y-2690665D01*
X7058371Y-2992924D02*
X7041353Y-2995972D01*
X5785578Y-2902754D02*
X5785578Y-2903262D01*
X1865600Y-9464330D02*
X1865600Y-9464330D01*
X18369742Y-11283730D02*
X16940485Y-12109737D01*
X8808429Y-3167930D02*
X8808429Y-3042962D01*
X23027335Y-2993432D02*
X23044353Y-2996734D01*
X11700216Y-11278650D02*
X11683706Y-11274840D01*
X16747445Y-12071891D02*
X15424868Y-9778528D01*
X1326359Y-12760485D02*
X1345916Y-12770899D01*
X10708601Y-3268006D02*
X10705553Y-3250988D01*
X24394362Y-9445026D02*
X24415444Y-9451376D01*
X5767036Y-2859067D02*
X5767290Y-2859321D01*
X5778212Y-2879895D02*
X5778212Y-2879895D01*
X6263098Y-2928408D02*
X6263606Y-3217968D01*
X24389790Y-2813093D02*
X24390044Y-2813093D01*
X1389350Y-9464330D02*
X1388842Y-9464330D01*
X8758391Y-2992924D02*
X8758391Y-2992924D01*
X24313844Y-2927138D02*
X24313844Y-2926884D01*
X24324512Y-9318534D02*
X24324004Y-9339616D01*
X23503585Y-9508526D02*
X23518062Y-9490492D01*
X28806845Y-2270041D02*
X28792621Y-2252769D01*
X28727343Y-9318788D02*
X28727343Y-9318788D01*
X28214010Y-9461282D02*
X28213502Y-9461028D01*
X1864584Y-9464330D02*
X1864584Y-9464330D01*
X5759162Y-9403624D02*
X5769576Y-9384066D01*
X28134762Y-9408450D02*
X28123586Y-9388130D01*
X6263098Y-9341140D02*
X6265384Y-9363492D01*
X1308579Y-2254293D02*
X1294609Y-2271565D01*
X5767290Y-2859321D02*
X5778212Y-2879895D01*
X1933164Y-9443502D02*
X1912844Y-9454424D01*
X24334164Y-2859321D02*
X24334164Y-2859321D01*
X1311373Y-3726222D02*
X1308579Y-3742986D01*
X26869750Y-5916000D02*
X26869750Y-7066000D01*
X1978884Y-9387368D02*
X1978630Y-9387876D01*
X12641539Y-3690154D02*
X12658557Y-3692948D01*
X1345408Y-9473220D02*
X1325851Y-9483888D01*
X28826403Y-2333541D02*
X28826403Y-2333033D01*
X5687788Y-2806743D02*
X5687788Y-2806743D01*
X1912844Y-9454424D02*
X1912590Y-9454678D01*
X28190896Y-9454424D02*
X28190388Y-9454170D01*
X23557940Y-9463314D02*
X23558448Y-9463314D01*
X6313897Y-9435374D02*
X6333455Y-9445788D01*
X24326290Y-9362730D02*
X24332894Y-9383812D01*
X14683443Y-3742986D02*
X14680395Y-3725968D01*
X28150764Y-9427754D02*
X28150256Y-9427500D01*
X5687788Y-2806743D02*
X5687788Y-2806743D01*
X5788118Y-2927392D02*
X5788118Y-2927900D01*
X16827709Y-12129041D02*
X16812215Y-12123961D01*
X1367252Y-12777249D02*
X1389604Y-12779281D01*
X28817767Y-12708161D02*
X28824117Y-12686825D01*
X28237378Y-9463568D02*
X28237124Y-9463568D01*
X2513807Y-9435374D02*
X2533619Y-9445788D01*
X28793383Y-12744991D02*
X28807353Y-12727719D01*
X24349404Y-2840525D02*
X24349404Y-2840271D01*
X28826403Y-2689649D02*
X28826403Y-2333541D01*
X6738077Y-12295665D02*
X6738077Y-12296173D01*
X23203357Y-9324884D02*
X23218089Y-9319550D01*
X13241487Y-12131581D02*
X13258251Y-12128279D01*
X26969750Y-9166000D02*
X26969750Y-7816000D01*
X25027329Y-3693456D02*
X28727343Y-3693710D01*
X6265384Y-9363492D02*
X6271988Y-9384828D01*
X1911828Y-9454932D02*
X1889730Y-9461790D01*
X3119750Y-7066000D02*
X3119750Y-5916000D01*
X6701501Y-9490492D02*
X6701755Y-9490746D01*
X6701247Y-9489984D02*
X6701501Y-9490492D01*
X23836578Y-2904278D02*
X23829974Y-2883197D01*
X1388842Y-9464330D02*
X1366490Y-9466616D01*
X28113934Y-9341140D02*
X28113934Y-9340886D01*
X19924982Y-2813601D02*
X10176980Y-2814363D01*
X27548023Y-9451122D02*
X27569104Y-9444518D01*
X1275559Y-12665489D02*
X1275559Y-12666251D01*
X28757315Y-3703870D02*
X28767475Y-3713776D01*
X18369742Y-11283730D02*
X18385490Y-11279412D01*
X1389350Y-2220765D02*
X1388842Y-2220765D01*
X6682959Y-9474998D02*
X6683213Y-9475506D01*
X27605680Y-9419880D02*
X27619904Y-9402608D01*
X5775926Y-9362730D02*
X5778212Y-9340378D01*
X5732492Y-2824777D02*
X5732746Y-2825031D01*
X24334164Y-2859321D02*
X24334164Y-2859067D01*
X13222691Y-12132851D02*
X13241487Y-12131581D01*
X23057307Y-3003846D02*
X23067213Y-3013752D01*
X23830228Y-9383050D02*
X23836578Y-9361714D01*
X28214010Y-9461282D02*
X28214010Y-9461282D01*
X7974548Y-10792241D02*
X7983438Y-10793003D01*
X28817767Y-2733083D02*
X28824117Y-2711747D01*
X23581054Y-9456202D02*
X23581054Y-9456202D01*
X28774333Y-9285768D02*
X28767221Y-9298722D01*
X24332894Y-9383812D02*
X24343308Y-9403370D01*
X10071570Y-2884721D02*
X10065220Y-2906056D01*
X24389282Y-2813347D02*
X24389282Y-2813347D01*
X24316130Y-2903770D02*
X24316130Y-2903770D01*
X5711410Y-2813855D02*
X5711918Y-2813855D01*
X1912590Y-9454678D02*
X1912336Y-9454678D01*
X23604930Y-9453408D02*
X23605184Y-9453408D01*
X23747932Y-9451122D02*
X23769268Y-9444518D01*
X23788064Y-2832651D02*
X23768506Y-2822237D01*
X20019470Y-2863639D02*
X20005246Y-2846621D01*
X6333455Y-9445788D02*
X6354791Y-9452138D01*
X28755791Y-2228385D02*
X28734709Y-2222035D01*
X23080167Y-3185456D02*
X23077373Y-3168438D01*
X21227239Y-3218730D02*
X20523660Y-3218730D01*
X23110393Y-3215682D02*
X23097185Y-3208570D01*
X23725580Y-9453408D02*
X23747932Y-9451122D01*
X14633405Y-3692948D02*
X12658557Y-3692948D01*
X13312607Y-12099831D02*
X13323021Y-12090179D01*
X1987520Y-9318026D02*
X1358616Y-9318026D01*
X6682451Y-9474744D02*
X6682451Y-9474744D01*
X28113934Y-9340886D02*
X28113934Y-9340632D01*
X19987974Y-2832651D02*
X19968416Y-2822237D01*
X22137574Y-10779033D02*
X22126144Y-10787669D01*
X21267371Y-3198918D02*
X21257211Y-3208824D01*
X23518824Y-9489730D02*
X23536858Y-9474998D01*
X1888714Y-9461790D02*
X1865600Y-9464330D01*
X6282148Y-2865163D02*
X6271734Y-2884721D01*
X23838610Y-3218476D02*
X23838864Y-2927392D01*
X13258251Y-12128279D02*
X13273491Y-12123199D01*
X17444167Y-3690916D02*
X17427403Y-3693710D01*
X1308579Y-9498112D02*
X1294609Y-9515130D01*
X17510461Y-3471714D02*
X17527225Y-3468412D01*
X28824117Y-2711747D02*
X28826403Y-2689649D01*
X6738077Y-9576852D02*
X6738077Y-9577106D01*
X10658563Y-3217968D02*
X10063696Y-3217968D01*
X10176218Y-2814363D02*
X10154120Y-2816649D01*
X19380407Y-3251750D02*
X19387265Y-3238796D01*
X5778212Y-2879895D02*
X5778212Y-2879895D01*
X24987197Y-3673644D02*
X24980085Y-3660436D01*
X6788877Y-12390407D02*
X6808435Y-12400821D01*
X8828495Y-3208062D02*
X8841703Y-3215174D01*
X24389282Y-2813347D02*
X24389282Y-2813347D01*
X20036488Y-2904278D02*
X20029884Y-2883197D01*
X28169052Y-9442740D02*
X28168798Y-9442486D01*
X1988028Y-9340886D02*
X1988028Y-9341140D01*
X23463707Y-12357641D02*
X23473867Y-12338083D01*
X2463515Y-9318534D02*
X2463007Y-9340632D01*
X14680395Y-3725968D02*
X14673283Y-3713014D01*
X24980085Y-3660436D02*
X24977291Y-3643418D01*
X10113226Y-2833921D02*
X10096208Y-2848145D01*
X19397425Y-3228636D02*
X19410633Y-3221524D01*
X15424868Y-9778528D02*
X15418264Y-9765320D01*
X6735537Y-9552976D02*
X6735537Y-9553230D01*
X1275559Y-9578376D02*
X1275559Y-12665489D01*
X10065220Y-2906056D02*
X10063188Y-2928408D01*
X24927253Y-3218730D02*
X24944271Y-3221778D01*
X5788626Y-3217968D02*
X5158453Y-3217968D01*
X1308579Y-9267988D02*
X1311373Y-9285006D01*
X1865600Y-9464330D02*
X1865346Y-9464330D01*
X9507690Y-2822999D02*
X9486354Y-2816649D01*
X6638001Y-9456710D02*
X6638001Y-9456710D01*
X28826403Y-9576598D02*
X28826403Y-12664473D01*
X28116474Y-9365016D02*
X28116474Y-9365016D01*
X10728667Y-3457998D02*
X10741621Y-3465110D01*
X19377359Y-3418374D02*
X19374311Y-3435900D01*
X28116220Y-9364254D02*
X28113934Y-9341140D01*
X28806845Y-9513606D02*
X28792621Y-9496588D01*
X6975567Y-3215174D02*
X6988521Y-3208062D01*
X23581562Y-9455948D02*
X23581816Y-9455948D01*
X28735471Y-12776233D02*
X28756553Y-12769629D01*
X6354791Y-9452138D02*
X6377143Y-9454424D01*
X1952468Y-9427500D02*
X1952468Y-9427500D01*
X28190388Y-9454170D02*
X28189880Y-9453916D01*
X23369473Y-12408441D02*
X23391571Y-12406155D01*
X28237124Y-9463568D02*
X28214010Y-9461282D01*
X28734709Y-2222035D02*
X28712357Y-2219749D01*
X23805082Y-2846621D02*
X23788064Y-2832651D01*
X28150764Y-9428008D02*
X28150764Y-9428008D01*
X23557940Y-9463314D02*
X23557940Y-9463314D01*
X6738077Y-9577360D02*
X6738077Y-9577868D01*
X16774115Y-12101609D02*
X16763701Y-12091703D01*
X8808429Y-3167930D02*
X8811477Y-3185202D01*
X23077373Y-3043470D02*
X23077373Y-3168438D01*
X6728679Y-9530624D02*
X6735537Y-9552722D01*
X13338261Y-12071129D02*
X14660837Y-9777766D01*
X5751542Y-2840271D02*
X5751796Y-2840779D01*
X14678363Y-9734332D02*
X14681665Y-9717568D01*
X21310297Y-2996734D02*
X21327315Y-2993432D01*
X23536858Y-9474998D02*
X23537112Y-9474744D01*
X5778720Y-2880657D02*
X5785324Y-2902754D01*
X5788118Y-2926884D02*
X5788118Y-2927138D01*
X24997103Y-3683550D02*
X24987197Y-3673644D01*
X24322988Y-2880657D02*
X24322988Y-2880403D01*
X10688281Y-3227874D02*
X10675327Y-3221016D01*
X24974497Y-3252004D02*
X24977291Y-3268514D01*
X28150764Y-9428008D02*
X28150764Y-9428008D01*
X1985742Y-9365270D02*
X1978884Y-9387368D01*
X28792621Y-2252769D02*
X28775603Y-2238799D01*
X28824117Y-12686825D02*
X28826403Y-12664473D01*
X1978884Y-9387368D02*
X1978884Y-9387368D01*
X6701755Y-9490746D02*
X6716741Y-9508526D01*
X21280325Y-3026706D02*
X21287437Y-3013752D01*
X15418264Y-9765320D02*
X15412168Y-9750842D01*
X23536858Y-9474998D02*
X23536858Y-9474998D01*
X24412142Y-2806235D02*
X24412396Y-2806235D01*
X6376381Y-2814363D02*
X6354029Y-2816649D01*
X6771605Y-12376183D02*
X6788877Y-12390407D01*
X7005539Y-3184948D02*
X7008333Y-3167930D01*
X23558448Y-9463314D02*
X23558956Y-9463060D01*
X28756553Y-12769629D02*
X28776111Y-12758961D01*
X6757635Y-12359165D02*
X6771605Y-12376183D01*
X23503077Y-9509288D02*
X23503077Y-9509034D01*
X20636943Y-2813601D02*
X20614591Y-2815887D01*
X5111463Y-3251242D02*
X5108415Y-3268006D01*
X28135270Y-9409212D02*
X28135270Y-9409212D01*
X28712357Y-9463568D02*
X28237378Y-9463568D01*
X5128481Y-3228128D02*
X5118321Y-3238288D01*
X21257211Y-3208824D02*
X21244257Y-3215936D01*
X6716741Y-9508526D02*
X6716995Y-9509034D01*
X28807353Y-2752641D02*
X28817767Y-2733083D01*
X28150002Y-9427246D02*
X28135270Y-9409212D01*
X1912844Y-9454424D02*
X1912844Y-9454424D01*
X5785578Y-2903770D02*
X5788118Y-2926884D01*
X23819814Y-9402608D02*
X23830228Y-9383050D01*
X1967200Y-9409466D02*
X1952468Y-9427500D01*
X27619904Y-9402608D02*
X27630064Y-9383050D01*
X5158453Y-3217968D02*
X5141435Y-3221016D01*
X1967708Y-9408704D02*
X1967454Y-9409212D01*
X5687280Y-9452138D02*
X5708362Y-9445534D01*
X6614887Y-9454424D02*
X6614887Y-9454424D01*
X24357532Y-9420388D02*
X24374804Y-9434612D01*
X28744361Y-3696758D02*
X28757315Y-3703870D01*
X8758391Y-2992924D02*
X7058371Y-2992924D01*
X10708601Y-3418120D02*
X10711395Y-3435138D01*
X6614633Y-9454424D02*
X6614887Y-9454424D01*
X5118321Y-3238288D02*
X5111463Y-3251242D01*
X16882065Y-12132089D02*
X16863269Y-12133613D01*
X12598359Y-3487970D02*
X12588453Y-3478064D01*
X8811477Y-3185202D02*
X8818589Y-3198156D01*
X20005246Y-2846621D02*
X19987974Y-2832651D01*
X1326359Y-2785407D02*
X1345916Y-2795821D01*
X23432465Y-12388883D02*
X23449483Y-12374913D01*
X25027329Y-3693456D02*
X25010311Y-3690662D01*
X6735537Y-9552722D02*
X6735537Y-9552976D01*
X27588662Y-9434104D02*
X27605680Y-9419880D01*
X9578556Y-3217968D02*
X8858467Y-3217968D01*
X23503077Y-9509288D02*
X23503077Y-9509288D01*
X20038774Y-2927392D02*
X20038774Y-2926630D01*
X23788572Y-9434104D02*
X23805844Y-9419880D01*
X5687788Y-2806743D02*
X5688042Y-2806743D01*
X1912336Y-9454678D02*
X1911828Y-9454932D01*
X5732492Y-2824777D02*
X5732492Y-2824777D01*
X15422582Y-3703616D02*
X15435536Y-3696504D01*
X23606200Y-9453408D02*
X23606200Y-9453408D01*
X23484789Y-9553738D02*
X23484789Y-9553738D01*
X5664928Y-2804457D02*
X5664928Y-2804457D01*
X10096208Y-2848145D02*
X10081984Y-2865163D01*
X14663377Y-3702854D02*
X14650169Y-3695996D01*
X23491901Y-9530116D02*
X23492155Y-9529608D01*
X24977291Y-3268514D02*
X24977291Y-3643418D01*
X28793383Y-2769913D02*
X28807353Y-2752641D01*
X9578048Y-2928154D02*
X9578048Y-2927646D01*
X12608519Y-3642910D02*
X12611567Y-3660182D01*
X3147875Y-3794125D02*
X3132250Y-3803500D01*
X1294609Y-9515130D02*
X1284195Y-9534688D01*
X6808435Y-12400821D02*
X6829771Y-12407171D01*
X24334164Y-2859321D02*
X24334164Y-2859321D01*
X28135270Y-9409212D02*
X28135016Y-9408958D01*
X24413158Y-2805981D02*
X24436272Y-2803441D01*
X23074325Y-3026706D02*
X23077373Y-3043470D01*
X22102268Y-10793765D02*
X18435274Y-11270776D01*
X10698441Y-3238034D02*
X10688281Y-3227874D01*
X28116474Y-9365016D02*
X28116474Y-9364508D01*
X15405311Y-3726730D02*
X15412422Y-3713776D01*
X28213502Y-9461028D02*
X28212994Y-9461028D01*
X5688296Y-2806743D02*
X5688804Y-2806997D01*
X19377359Y-3418374D02*
X19377359Y-3268514D01*
X28169560Y-9442994D02*
X28169560Y-9442994D01*
X2554701Y-9452138D02*
X2577053Y-9454424D01*
X5708362Y-9445534D02*
X5727920Y-9434866D01*
X1985742Y-9364254D02*
X1985742Y-9364762D01*
X6988521Y-3208062D02*
X6998681Y-3197902D01*
X6829771Y-12407171D02*
X6852123Y-12409457D01*
X23503331Y-9508780D02*
X23503585Y-9508526D01*
X1325851Y-2240069D02*
X1308579Y-2254293D01*
X28712357Y-2219749D02*
X1389350Y-2220765D01*
X23805844Y-9419880D02*
X23819814Y-9402608D01*
X28777381Y-3743748D02*
X28777381Y-3743748D01*
X13145475Y-12109229D02*
X13157921Y-12116595D01*
X6638001Y-9456710D02*
X6638001Y-9456710D01*
X1967708Y-9408704D02*
X1967708Y-9408704D01*
X16798499Y-12117611D02*
X16785799Y-12110245D01*
D11*
X1967125Y-9323000D02*
X1997125Y-9353000D01*
X1997125Y-9323000D02*
X1967125Y-9353000D01*
X2026500Y-9323000D02*
X2056500Y-9353000D01*
X2056500Y-9323000D02*
X2026500Y-9353000D01*
X2085875Y-9323000D02*
X2115875Y-9353000D01*
X2115875Y-9323000D02*
X2085875Y-9353000D01*
X2145250Y-9323000D02*
X2175250Y-9353000D01*
X2175250Y-9323000D02*
X2145250Y-9353000D01*
X2204625Y-9323000D02*
X2234625Y-9353000D01*
X2234625Y-9323000D02*
X2204625Y-9353000D01*
X2264000Y-9323000D02*
X2294000Y-9353000D01*
X2294000Y-9323000D02*
X2264000Y-9353000D01*
X2323375Y-9323000D02*
X2353375Y-9353000D01*
X2353375Y-9323000D02*
X2323375Y-9353000D01*
X2382750Y-9323000D02*
X2412750Y-9353000D01*
X2412750Y-9323000D02*
X2382750Y-9353000D01*
X2442125Y-9323000D02*
X2472125Y-9353000D01*
X2472125Y-9323000D02*
X2442125Y-9353000D01*
X5765950Y-9323000D02*
X5795950Y-9353000D01*
X5795950Y-9323000D02*
X5765950Y-9353000D01*
X5776250Y-3182000D02*
X5806250Y-3212000D01*
X5806250Y-3182000D02*
X5776250Y-3212000D01*
X5825325Y-9323000D02*
X5855325Y-9353000D01*
X5855325Y-9323000D02*
X5825325Y-9353000D01*
X5835625Y-3182000D02*
X5865625Y-3212000D01*
X5865625Y-3182000D02*
X5835625Y-3212000D01*
X5884700Y-9323000D02*
X5914700Y-9353000D01*
X5914700Y-9323000D02*
X5884700Y-9353000D01*
X5895000Y-3182000D02*
X5925000Y-3212000D01*
X5925000Y-3182000D02*
X5895000Y-3212000D01*
X5944075Y-9323000D02*
X5974075Y-9353000D01*
X5974075Y-9323000D02*
X5944075Y-9353000D01*
X5954375Y-3182000D02*
X5984375Y-3212000D01*
X5984375Y-3182000D02*
X5954375Y-3212000D01*
X6003450Y-9323000D02*
X6033450Y-9353000D01*
X6033450Y-9323000D02*
X6003450Y-9353000D01*
X6013750Y-3182000D02*
X6043750Y-3212000D01*
X6043750Y-3182000D02*
X6013750Y-3212000D01*
X6062825Y-9323000D02*
X6092825Y-9353000D01*
X6092825Y-9323000D02*
X6062825Y-9353000D01*
X6073125Y-3182000D02*
X6103125Y-3212000D01*
X6103125Y-3182000D02*
X6073125Y-3212000D01*
X6122200Y-9323000D02*
X6152200Y-9353000D01*
X6152200Y-9323000D02*
X6122200Y-9353000D01*
X6132500Y-3182000D02*
X6162500Y-3212000D01*
X6162500Y-3182000D02*
X6132500Y-3212000D01*
X6181575Y-9323000D02*
X6211575Y-9353000D01*
X6211575Y-9323000D02*
X6181575Y-9353000D01*
X6191875Y-3182000D02*
X6221875Y-3212000D01*
X6221875Y-3182000D02*
X6191875Y-3212000D01*
X6240950Y-9323000D02*
X6270950Y-9353000D01*
X6270950Y-9323000D02*
X6240950Y-9353000D01*
X6251250Y-3182000D02*
X6281250Y-3212000D01*
X6281250Y-3182000D02*
X6251250Y-3212000D01*
X9573250Y-3182000D02*
X9603250Y-3212000D01*
X9603250Y-3182000D02*
X9573250Y-3212000D01*
X9632625Y-3182000D02*
X9662625Y-3212000D01*
X9662625Y-3182000D02*
X9632625Y-3212000D01*
X9692000Y-3182000D02*
X9722000Y-3212000D01*
X9722000Y-3182000D02*
X9692000Y-3212000D01*
X9751375Y-3182000D02*
X9781375Y-3212000D01*
X9781375Y-3182000D02*
X9751375Y-3212000D01*
X9810750Y-3182000D02*
X9840750Y-3212000D01*
X9840750Y-3182000D02*
X9810750Y-3212000D01*
X9870125Y-3182000D02*
X9900125Y-3212000D01*
X9900125Y-3182000D02*
X9870125Y-3212000D01*
X9929500Y-3182000D02*
X9959500Y-3212000D01*
X9959500Y-3182000D02*
X9929500Y-3212000D01*
X9988875Y-3182000D02*
X10018875Y-3212000D01*
X10018875Y-3182000D02*
X9988875Y-3212000D01*
X10048250Y-3182000D02*
X10078250Y-3212000D01*
X10078250Y-3182000D02*
X10048250Y-3212000D01*
X20025250Y-3183000D02*
X20055250Y-3213000D01*
X20055250Y-3183000D02*
X20025250Y-3213000D01*
X20084625Y-3183000D02*
X20114625Y-3213000D01*
X20114625Y-3183000D02*
X20084625Y-3213000D01*
X20144000Y-3183000D02*
X20174000Y-3213000D01*
X20174000Y-3183000D02*
X20144000Y-3213000D01*
X20203375Y-3183000D02*
X20233375Y-3213000D01*
X20233375Y-3183000D02*
X20203375Y-3213000D01*
X20262750Y-3183000D02*
X20292750Y-3213000D01*
X20292750Y-3183000D02*
X20262750Y-3213000D01*
X20322125Y-3183000D02*
X20352125Y-3213000D01*
X20352125Y-3183000D02*
X20322125Y-3213000D01*
X20381500Y-3183000D02*
X20411500Y-3213000D01*
X20411500Y-3183000D02*
X20381500Y-3213000D01*
X20440875Y-3183000D02*
X20470875Y-3213000D01*
X20470875Y-3183000D02*
X20440875Y-3213000D01*
X20500250Y-3183000D02*
X20530250Y-3213000D01*
X20530250Y-3183000D02*
X20500250Y-3213000D01*
X23827250Y-3182000D02*
X23857250Y-3212000D01*
X23857250Y-3182000D02*
X23827250Y-3212000D01*
X23830250Y-9324000D02*
X23860250Y-9354000D01*
X23860250Y-9324000D02*
X23830250Y-9354000D01*
X23886625Y-3182000D02*
X23916625Y-3212000D01*
X23916625Y-3182000D02*
X23886625Y-3212000D01*
X23889625Y-9324000D02*
X23919625Y-9354000D01*
X23919625Y-9324000D02*
X23889625Y-9354000D01*
X23946000Y-3182000D02*
X23976000Y-3212000D01*
X23976000Y-3182000D02*
X23946000Y-3212000D01*
X23949000Y-9324000D02*
X23979000Y-9354000D01*
X23979000Y-9324000D02*
X23949000Y-9354000D01*
X24005375Y-3182000D02*
X24035375Y-3212000D01*
X24035375Y-3182000D02*
X24005375Y-3212000D01*
X24008375Y-9324000D02*
X24038375Y-9354000D01*
X24038375Y-9324000D02*
X24008375Y-9354000D01*
X24064750Y-3182000D02*
X24094750Y-3212000D01*
X24094750Y-3182000D02*
X24064750Y-3212000D01*
X24067750Y-9324000D02*
X24097750Y-9354000D01*
X24097750Y-9324000D02*
X24067750Y-9354000D01*
X24124125Y-3182000D02*
X24154125Y-3212000D01*
X24154125Y-3182000D02*
X24124125Y-3212000D01*
X24127125Y-9324000D02*
X24157125Y-9354000D01*
X24157125Y-9324000D02*
X24127125Y-9354000D01*
X24183500Y-3182000D02*
X24213500Y-3212000D01*
X24213500Y-3182000D02*
X24183500Y-3212000D01*
X24186500Y-9324000D02*
X24216500Y-9354000D01*
X24216500Y-9324000D02*
X24186500Y-9354000D01*
X24242875Y-3182000D02*
X24272875Y-3212000D01*
X24272875Y-3182000D02*
X24242875Y-3212000D01*
X24245875Y-9324000D02*
X24275875Y-9354000D01*
X24275875Y-9324000D02*
X24245875Y-9354000D01*
X24302250Y-3182000D02*
X24332250Y-3212000D01*
X24332250Y-3182000D02*
X24302250Y-3212000D01*
X24305250Y-9324000D02*
X24335250Y-9354000D01*
X24335250Y-9324000D02*
X24305250Y-9354000D01*
X27630250Y-9324000D02*
X27660250Y-9354000D01*
X27660250Y-9324000D02*
X27630250Y-9354000D01*
X27689625Y-9324000D02*
X27719625Y-9354000D01*
X27719625Y-9324000D02*
X27689625Y-9354000D01*
X27749000Y-9324000D02*
X27779000Y-9354000D01*
X27779000Y-9324000D02*
X27749000Y-9354000D01*
X27808375Y-9324000D02*
X27838375Y-9354000D01*
X27838375Y-9324000D02*
X27808375Y-9354000D01*
X27867750Y-9324000D02*
X27897750Y-9354000D01*
X27897750Y-9324000D02*
X27867750Y-9354000D01*
X27927125Y-9324000D02*
X27957125Y-9354000D01*
X27957125Y-9324000D02*
X27927125Y-9354000D01*
X27986500Y-9324000D02*
X28016500Y-9354000D01*
X28016500Y-9324000D02*
X27986500Y-9354000D01*
X28045875Y-9324000D02*
X28075875Y-9354000D01*
X28075875Y-9324000D02*
X28045875Y-9354000D01*
X28105250Y-9324000D02*
X28135250Y-9354000D01*
X28135250Y-9324000D02*
X28105250Y-9354000D01*
D12*
X14556750Y-8424500D02*
G75*
G03*
X14556750Y-8424500I-45000J0D01*
G01*
X14556750Y-8724500D02*
G75*
G03*
X14556750Y-8724500I-45000J0D01*
G01*
X15625250Y-8424500D02*
G75*
G03*
X15625250Y-8424500I-45000J0D01*
G01*
X15625250Y-8724500D02*
G75*
G03*
X15625250Y-8724500I-45000J0D01*
G01*
D13*
X2740750Y-4122470D02*
X2740750Y-4221530D01*
X2691220Y-4172000D02*
X2790280Y-4172000D01*
X2740750Y-6022470D02*
X2740750Y-6121530D01*
X2691220Y-6072000D02*
X2790280Y-6072000D01*
X2740750Y-7922470D02*
X2740750Y-8021530D01*
X2691220Y-7972000D02*
X2790280Y-7972000D01*
X4640750Y-4122470D02*
X4640750Y-4221530D01*
X4591220Y-4172000D02*
X4690280Y-4172000D01*
X4640750Y-6022470D02*
X4640750Y-6121530D01*
X4591220Y-6072000D02*
X4690280Y-6072000D01*
X4640750Y-7922470D02*
X4640750Y-8021530D01*
X4591220Y-7972000D02*
X4690280Y-7972000D01*
X6540750Y-3647470D02*
X6540750Y-3746530D01*
X6491220Y-3697000D02*
X6590280Y-3697000D01*
X6540750Y-5547470D02*
X6540750Y-5646530D01*
X6491220Y-5597000D02*
X6590280Y-5597000D01*
X6540750Y-7447470D02*
X6540750Y-7546530D01*
X6491220Y-7497000D02*
X6590280Y-7497000D01*
X8440750Y-3409970D02*
X8440750Y-3509030D01*
X8391220Y-3459500D02*
X8490280Y-3459500D01*
X8440750Y-5309970D02*
X8440750Y-5409030D01*
X8391220Y-5359500D02*
X8490280Y-5359500D01*
X8440750Y-7209970D02*
X8440750Y-7309030D01*
X8391220Y-7259500D02*
X8490280Y-7259500D01*
X9390750Y-9409970D02*
X9390750Y-9509030D01*
X9341220Y-9459500D02*
X9440280Y-9459500D01*
X10340750Y-3647470D02*
X10340750Y-3746530D01*
X10291220Y-3697000D02*
X10390280Y-3697000D01*
X10340750Y-5547470D02*
X10340750Y-5646530D01*
X10291220Y-5597000D02*
X10390280Y-5597000D01*
X10340750Y-7447470D02*
X10340750Y-7546530D01*
X10291220Y-7497000D02*
X10390280Y-7497000D01*
X11581667Y-9834385D02*
X11581667Y-9933445D01*
X11532137Y-9883915D02*
X11631197Y-9883915D01*
X12240750Y-3884970D02*
X12240750Y-3984030D01*
X12191220Y-3934500D02*
X12290280Y-3934500D01*
X12240750Y-5784970D02*
X12240750Y-5884030D01*
X12191220Y-5834500D02*
X12290280Y-5834500D01*
X12240750Y-7684970D02*
X12240750Y-7784030D01*
X12191220Y-7734500D02*
X12290280Y-7734500D01*
X13091019Y-9817905D02*
X13091019Y-9916965D01*
X13041489Y-9867435D02*
X13140549Y-9867435D01*
X17518215Y-10722079D02*
X17518215Y-10821139D01*
X17468685Y-10771609D02*
X17567745Y-10771609D01*
X18890485Y-3885013D02*
X18890485Y-3984073D01*
X18840955Y-3934543D02*
X18940015Y-3934543D01*
X18890485Y-5785013D02*
X18890485Y-5884073D01*
X18840955Y-5834543D02*
X18940015Y-5834543D01*
X18890485Y-7685013D02*
X18890485Y-7784073D01*
X18840955Y-7734543D02*
X18940015Y-7734543D01*
X19513994Y-9564221D02*
X19513994Y-9663281D01*
X19464464Y-9613751D02*
X19563524Y-9613751D01*
X20790485Y-3647513D02*
X20790485Y-3746573D01*
X20740955Y-3697043D02*
X20840015Y-3697043D01*
X20790485Y-5547513D02*
X20790485Y-5646573D01*
X20740955Y-5597043D02*
X20840015Y-5597043D01*
X20790485Y-7447513D02*
X20790485Y-7546573D01*
X20740955Y-7497043D02*
X20840015Y-7497043D01*
X21740485Y-9410013D02*
X21740485Y-9509073D01*
X21690955Y-9459543D02*
X21790015Y-9459543D01*
X22690485Y-3410013D02*
X22690485Y-3509073D01*
X22640955Y-3459543D02*
X22740015Y-3459543D01*
X22690485Y-5310013D02*
X22690485Y-5409073D01*
X22640955Y-5359543D02*
X22740015Y-5359543D01*
X22690485Y-7210013D02*
X22690485Y-7309073D01*
X22640955Y-7259543D02*
X22740015Y-7259543D01*
X24590485Y-3647513D02*
X24590485Y-3746573D01*
X24540955Y-3697043D02*
X24640015Y-3697043D01*
X24590485Y-5547513D02*
X24590485Y-5646573D01*
X24540955Y-5597043D02*
X24640015Y-5597043D01*
X24590485Y-7447513D02*
X24590485Y-7546573D01*
X24540955Y-7497043D02*
X24640015Y-7497043D01*
X26490485Y-4122513D02*
X26490485Y-4221573D01*
X26440955Y-4172043D02*
X26540015Y-4172043D01*
X26490485Y-6022513D02*
X26490485Y-6121573D01*
X26440955Y-6072043D02*
X26540015Y-6072043D01*
X26490485Y-7922513D02*
X26490485Y-8021573D01*
X26440955Y-7972043D02*
X26540015Y-7972043D01*
X28390485Y-4122513D02*
X28390485Y-4221573D01*
X28340955Y-4172043D02*
X28440015Y-4172043D01*
X28390485Y-6022513D02*
X28390485Y-6121573D01*
X28340955Y-6072043D02*
X28440015Y-6072043D01*
X28390485Y-7922513D02*
X28390485Y-8021573D01*
X28340955Y-7972043D02*
X28440015Y-7972043D01*
D14*
X1728918Y-4652168D02*
X1728918Y-4531832D01*
X1608582Y-4531832D01*
X1608582Y-4652168D01*
X1728918Y-4652168D01*
X1728918Y-6552168D02*
X1728918Y-6431832D01*
X1608582Y-6431832D01*
X1608582Y-6552168D01*
X1728918Y-6552168D01*
X1728918Y-8452168D02*
X1728918Y-8331832D01*
X1608582Y-8331832D01*
X1608582Y-8452168D01*
X1728918Y-8452168D01*
X2828918Y-4652168D02*
X2828918Y-4531832D01*
X2708582Y-4531832D01*
X2708582Y-4652168D01*
X2828918Y-4652168D01*
X2828918Y-6552168D02*
X2828918Y-6431832D01*
X2708582Y-6431832D01*
X2708582Y-6552168D01*
X2828918Y-6552168D01*
X2828918Y-8452168D02*
X2828918Y-8331832D01*
X2708582Y-8331832D01*
X2708582Y-8452168D01*
X2828918Y-8452168D01*
X3628918Y-4652168D02*
X3628918Y-4531832D01*
X3508582Y-4531832D01*
X3508582Y-4652168D01*
X3628918Y-4652168D01*
X3628918Y-6552168D02*
X3628918Y-6431832D01*
X3508582Y-6431832D01*
X3508582Y-6552168D01*
X3628918Y-6552168D01*
X3628918Y-8452168D02*
X3628918Y-8331832D01*
X3508582Y-8331832D01*
X3508582Y-8452168D01*
X3628918Y-8452168D01*
X4728918Y-4652168D02*
X4728918Y-4531832D01*
X4608582Y-4531832D01*
X4608582Y-4652168D01*
X4728918Y-4652168D01*
X4728918Y-6552168D02*
X4728918Y-6431832D01*
X4608582Y-6431832D01*
X4608582Y-6552168D01*
X4728918Y-6552168D01*
X4728918Y-8452168D02*
X4728918Y-8331832D01*
X4608582Y-8331832D01*
X4608582Y-8452168D01*
X4728918Y-8452168D01*
X5528918Y-4177168D02*
X5528918Y-4056832D01*
X5408582Y-4056832D01*
X5408582Y-4177168D01*
X5528918Y-4177168D01*
X5528918Y-6077168D02*
X5528918Y-5956832D01*
X5408582Y-5956832D01*
X5408582Y-6077168D01*
X5528918Y-6077168D01*
X5528918Y-7977168D02*
X5528918Y-7856832D01*
X5408582Y-7856832D01*
X5408582Y-7977168D01*
X5528918Y-7977168D01*
X6628918Y-4177168D02*
X6628918Y-4056832D01*
X6508582Y-4056832D01*
X6508582Y-4177168D01*
X6628918Y-4177168D01*
X6628918Y-6077168D02*
X6628918Y-5956832D01*
X6508582Y-5956832D01*
X6508582Y-6077168D01*
X6628918Y-6077168D01*
X6628918Y-7977168D02*
X6628918Y-7856832D01*
X6508582Y-7856832D01*
X6508582Y-7977168D01*
X6628918Y-7977168D01*
X7428918Y-3939668D02*
X7428918Y-3819332D01*
X7308582Y-3819332D01*
X7308582Y-3939668D01*
X7428918Y-3939668D01*
X7428918Y-5839668D02*
X7428918Y-5719332D01*
X7308582Y-5719332D01*
X7308582Y-5839668D01*
X7428918Y-5839668D01*
X7428918Y-7739668D02*
X7428918Y-7619332D01*
X7308582Y-7619332D01*
X7308582Y-7739668D01*
X7428918Y-7739668D01*
X8378918Y-9939668D02*
X8378918Y-9819332D01*
X8258582Y-9819332D01*
X8258582Y-9939668D01*
X8378918Y-9939668D01*
X8528918Y-3939668D02*
X8528918Y-3819332D01*
X8408582Y-3819332D01*
X8408582Y-3939668D01*
X8528918Y-3939668D01*
X8528918Y-5839668D02*
X8528918Y-5719332D01*
X8408582Y-5719332D01*
X8408582Y-5839668D01*
X8528918Y-5839668D01*
X8528918Y-7739668D02*
X8528918Y-7619332D01*
X8408582Y-7619332D01*
X8408582Y-7739668D01*
X8528918Y-7739668D01*
X9328918Y-4177168D02*
X9328918Y-4056832D01*
X9208582Y-4056832D01*
X9208582Y-4177168D01*
X9328918Y-4177168D01*
X9328918Y-6077168D02*
X9328918Y-5956832D01*
X9208582Y-5956832D01*
X9208582Y-6077168D01*
X9328918Y-6077168D01*
X9328918Y-7977168D02*
X9328918Y-7856832D01*
X9208582Y-7856832D01*
X9208582Y-7977168D01*
X9328918Y-7977168D01*
X9478918Y-9939668D02*
X9478918Y-9819332D01*
X9358582Y-9819332D01*
X9358582Y-9939668D01*
X9478918Y-9939668D01*
X10428918Y-4177168D02*
X10428918Y-4056832D01*
X10308582Y-4056832D01*
X10308582Y-4177168D01*
X10428918Y-4177168D01*
X10428918Y-6077168D02*
X10428918Y-5956832D01*
X10308582Y-5956832D01*
X10308582Y-6077168D01*
X10428918Y-6077168D01*
X10428918Y-7977168D02*
X10428918Y-7856832D01*
X10308582Y-7856832D01*
X10308582Y-7977168D01*
X10428918Y-7977168D01*
X10497659Y-10072318D02*
X10497659Y-9951981D01*
X10377323Y-9951981D01*
X10377323Y-10072318D01*
X10497659Y-10072318D01*
X11228918Y-4414668D02*
X11228918Y-4294332D01*
X11108582Y-4294332D01*
X11108582Y-4414668D01*
X11228918Y-4414668D01*
X11228918Y-6314668D02*
X11228918Y-6194332D01*
X11108582Y-6194332D01*
X11108582Y-6314668D01*
X11228918Y-6314668D01*
X11228918Y-8214668D02*
X11228918Y-8094332D01*
X11108582Y-8094332D01*
X11108582Y-8214668D01*
X11228918Y-8214668D01*
X11560177Y-10357019D02*
X11560177Y-10236682D01*
X11439841Y-10236682D01*
X11439841Y-10357019D01*
X11560177Y-10357019D01*
X12328918Y-4414668D02*
X12328918Y-4294332D01*
X12208582Y-4294332D01*
X12208582Y-4414668D01*
X12328918Y-4414668D01*
X12328918Y-6314668D02*
X12328918Y-6194332D01*
X12208582Y-6194332D01*
X12208582Y-6314668D01*
X12328918Y-6314668D01*
X12328918Y-8214668D02*
X12328918Y-8094332D01*
X12208582Y-8094332D01*
X12208582Y-8214668D01*
X12328918Y-8214668D01*
X12978918Y-11065982D02*
X12978918Y-10945646D01*
X12858582Y-10945646D01*
X12858582Y-11065982D01*
X12978918Y-11065982D01*
X13528918Y-10113354D02*
X13528918Y-9993018D01*
X13408582Y-9993018D01*
X13408582Y-10113354D01*
X13528918Y-10113354D01*
X16678653Y-10113398D02*
X16678653Y-9993061D01*
X16558316Y-9993061D01*
X16558316Y-10113398D01*
X16678653Y-10113398D01*
X17228653Y-11066026D02*
X17228653Y-10945689D01*
X17108316Y-10945689D01*
X17108316Y-11066026D01*
X17228653Y-11066026D01*
X17878653Y-4414712D02*
X17878653Y-4294375D01*
X17758316Y-4294375D01*
X17758316Y-4414712D01*
X17878653Y-4414712D01*
X17878653Y-6314711D02*
X17878653Y-6194375D01*
X17758316Y-6194375D01*
X17758316Y-6314711D01*
X17878653Y-6314711D01*
X17878653Y-8214711D02*
X17878653Y-8094375D01*
X17758316Y-8094375D01*
X17758316Y-8214711D01*
X17878653Y-8214711D01*
X18647394Y-10357062D02*
X18647394Y-10236725D01*
X18527057Y-10236725D01*
X18527057Y-10357062D01*
X18647394Y-10357062D01*
X18978653Y-4414712D02*
X18978653Y-4294375D01*
X18858316Y-4294375D01*
X18858316Y-4414712D01*
X18978653Y-4414712D01*
X18978653Y-6314711D02*
X18978653Y-6194375D01*
X18858316Y-6194375D01*
X18858316Y-6314711D01*
X18978653Y-6314711D01*
X18978653Y-8214711D02*
X18978653Y-8094375D01*
X18858316Y-8094375D01*
X18858316Y-8214711D01*
X18978653Y-8214711D01*
X19709912Y-10072361D02*
X19709912Y-9952024D01*
X19589576Y-9952024D01*
X19589576Y-10072361D01*
X19709912Y-10072361D01*
X19778653Y-4177211D02*
X19778653Y-4056875D01*
X19658316Y-4056875D01*
X19658316Y-4177211D01*
X19778653Y-4177211D01*
X19778653Y-6077211D02*
X19778653Y-5956875D01*
X19658316Y-5956875D01*
X19658316Y-6077211D01*
X19778653Y-6077211D01*
X19778653Y-7977211D02*
X19778653Y-7856875D01*
X19658316Y-7856875D01*
X19658316Y-7977211D01*
X19778653Y-7977211D01*
X20728653Y-9939712D02*
X20728653Y-9819375D01*
X20608316Y-9819375D01*
X20608316Y-9939712D01*
X20728653Y-9939712D01*
X20878653Y-4177211D02*
X20878653Y-4056875D01*
X20758316Y-4056875D01*
X20758316Y-4177211D01*
X20878653Y-4177211D01*
X20878653Y-6077211D02*
X20878653Y-5956875D01*
X20758316Y-5956875D01*
X20758316Y-6077211D01*
X20878653Y-6077211D01*
X20878653Y-7977211D02*
X20878653Y-7856875D01*
X20758316Y-7856875D01*
X20758316Y-7977211D01*
X20878653Y-7977211D01*
X21678653Y-3939711D02*
X21678653Y-3819375D01*
X21558316Y-3819375D01*
X21558316Y-3939711D01*
X21678653Y-3939711D01*
X21678653Y-5839711D02*
X21678653Y-5719375D01*
X21558316Y-5719375D01*
X21558316Y-5839711D01*
X21678653Y-5839711D01*
X21678653Y-7739711D02*
X21678653Y-7619375D01*
X21558316Y-7619375D01*
X21558316Y-7739711D01*
X21678653Y-7739711D01*
X21828653Y-9939712D02*
X21828653Y-9819375D01*
X21708316Y-9819375D01*
X21708316Y-9939712D01*
X21828653Y-9939712D01*
X22778653Y-3939711D02*
X22778653Y-3819375D01*
X22658316Y-3819375D01*
X22658316Y-3939711D01*
X22778653Y-3939711D01*
X22778653Y-5839711D02*
X22778653Y-5719375D01*
X22658316Y-5719375D01*
X22658316Y-5839711D01*
X22778653Y-5839711D01*
X22778653Y-7739711D02*
X22778653Y-7619375D01*
X22658316Y-7619375D01*
X22658316Y-7739711D01*
X22778653Y-7739711D01*
X23578653Y-4177211D02*
X23578653Y-4056875D01*
X23458316Y-4056875D01*
X23458316Y-4177211D01*
X23578653Y-4177211D01*
X23578653Y-6077211D02*
X23578653Y-5956875D01*
X23458316Y-5956875D01*
X23458316Y-6077211D01*
X23578653Y-6077211D01*
X23578653Y-7977211D02*
X23578653Y-7856875D01*
X23458316Y-7856875D01*
X23458316Y-7977211D01*
X23578653Y-7977211D01*
X24678653Y-4177211D02*
X24678653Y-4056875D01*
X24558316Y-4056875D01*
X24558316Y-4177211D01*
X24678653Y-4177211D01*
X24678653Y-6077211D02*
X24678653Y-5956875D01*
X24558316Y-5956875D01*
X24558316Y-6077211D01*
X24678653Y-6077211D01*
X24678653Y-7977211D02*
X24678653Y-7856875D01*
X24558316Y-7856875D01*
X24558316Y-7977211D01*
X24678653Y-7977211D01*
X25478653Y-4652212D02*
X25478653Y-4531875D01*
X25358316Y-4531875D01*
X25358316Y-4652212D01*
X25478653Y-4652212D01*
X25478653Y-6552211D02*
X25478653Y-6431875D01*
X25358316Y-6431875D01*
X25358316Y-6552211D01*
X25478653Y-6552211D01*
X25478653Y-8452212D02*
X25478653Y-8331875D01*
X25358316Y-8331875D01*
X25358316Y-8452212D01*
X25478653Y-8452212D01*
X26578653Y-4652212D02*
X26578653Y-4531875D01*
X26458316Y-4531875D01*
X26458316Y-4652212D01*
X26578653Y-4652212D01*
X26578653Y-6552211D02*
X26578653Y-6431875D01*
X26458316Y-6431875D01*
X26458316Y-6552211D01*
X26578653Y-6552211D01*
X26578653Y-8452212D02*
X26578653Y-8331875D01*
X26458316Y-8331875D01*
X26458316Y-8452212D01*
X26578653Y-8452212D01*
X27378653Y-4652212D02*
X27378653Y-4531875D01*
X27258316Y-4531875D01*
X27258316Y-4652212D01*
X27378653Y-4652212D01*
X27378653Y-6552211D02*
X27378653Y-6431875D01*
X27258316Y-6431875D01*
X27258316Y-6552211D01*
X27378653Y-6552211D01*
X27378653Y-8452212D02*
X27378653Y-8331875D01*
X27258316Y-8331875D01*
X27258316Y-8452212D01*
X27378653Y-8452212D01*
X28478653Y-4652212D02*
X28478653Y-4531875D01*
X28358316Y-4531875D01*
X28358316Y-4652212D01*
X28478653Y-4652212D01*
X28478653Y-6552211D02*
X28478653Y-6431875D01*
X28358316Y-6431875D01*
X28358316Y-6552211D01*
X28478653Y-6552211D01*
X28478653Y-8452212D02*
X28478653Y-8331875D01*
X28358316Y-8331875D01*
X28358316Y-8452212D01*
X28478653Y-8452212D01*
D15*
X12994450Y-8556900D02*
X13109450Y-8441900D01*
X12994450Y-8326900D01*
X12879450Y-8441900D01*
X12994450Y-8556900D01*
X14437650Y-9409000D02*
X14552650Y-9294000D01*
X14437650Y-9179000D01*
X14322650Y-9294000D01*
X14437650Y-9409000D01*
X15633085Y-9423543D02*
X15748085Y-9308543D01*
X15633085Y-9193543D01*
X15518085Y-9308543D01*
X15633085Y-9423543D01*
X17088985Y-8569243D02*
X17203985Y-8454243D01*
X17088985Y-8339243D01*
X16973985Y-8454243D01*
X17088985Y-8569243D01*
D16*
X2954550Y-5327050D02*
X3384550Y-5757050D01*
X3384550Y-5327050D02*
X2954550Y-5757050D01*
X3384550Y-5542050D02*
G75*
G03*
X3384550Y-5542050I-215000J0D01*
G01*
X2954550Y-7227050D02*
X3384550Y-7657050D01*
X3384550Y-7227050D02*
X2954550Y-7657050D01*
X3384550Y-7442050D02*
G75*
G03*
X3384550Y-7442050I-215000J0D01*
G01*
X4856250Y-5329500D02*
X5286250Y-5759500D01*
X5286250Y-5329500D02*
X4856250Y-5759500D01*
X5286250Y-5544500D02*
G75*
G03*
X5286250Y-5544500I-215000J0D01*
G01*
X4856250Y-7229500D02*
X5286250Y-7659500D01*
X5286250Y-7229500D02*
X4856250Y-7659500D01*
X5286250Y-7444500D02*
G75*
G03*
X5286250Y-7444500I-215000J0D01*
G01*
X7268950Y-8953550D02*
X7698950Y-9383550D01*
X7698950Y-8953550D02*
X7268950Y-9383550D01*
X7698950Y-9168550D02*
G75*
G03*
X7698950Y-9168550I-215000J0D01*
G01*
X10550050Y-4978050D02*
X10980050Y-5408050D01*
X10980050Y-4978050D02*
X10550050Y-5408050D01*
X10980050Y-5193050D02*
G75*
G03*
X10980050Y-5193050I-215000J0D01*
G01*
X11925550Y-9715000D02*
X12355550Y-10145000D01*
X12355550Y-9715000D02*
X11925550Y-10145000D01*
X12355550Y-9930000D02*
G75*
G03*
X12355550Y-9930000I-215000J0D01*
G01*
X17733585Y-9729693D02*
X18163585Y-10159693D01*
X18163585Y-9729693D02*
X17733585Y-10159693D01*
X18163585Y-9944693D02*
G75*
G03*
X18163585Y-9944693I-215000J0D01*
G01*
X19108585Y-4978693D02*
X19538585Y-5408693D01*
X19538585Y-4978693D02*
X19108585Y-5408693D01*
X19538585Y-5193693D02*
G75*
G03*
X19538585Y-5193693I-215000J0D01*
G01*
X22390585Y-8954693D02*
X22820585Y-9384693D01*
X22820585Y-8954693D02*
X22390585Y-9384693D01*
X22820585Y-9169693D02*
G75*
G03*
X22820585Y-9169693I-215000J0D01*
G01*
X24806250Y-5327693D02*
X25236250Y-5757693D01*
X25236250Y-5327693D02*
X24806250Y-5757693D01*
X25236250Y-5542693D02*
G75*
G03*
X25236250Y-5542693I-215000J0D01*
G01*
X24806250Y-7227693D02*
X25236250Y-7657693D01*
X25236250Y-7227693D02*
X24806250Y-7657693D01*
X25236250Y-7442693D02*
G75*
G03*
X25236250Y-7442693I-215000J0D01*
G01*
X26704585Y-5327693D02*
X27134585Y-5757693D01*
X27134585Y-5327693D02*
X26704585Y-5757693D01*
X27134585Y-5542693D02*
G75*
G03*
X27134585Y-5542693I-215000J0D01*
G01*
X26704585Y-7227693D02*
X27134585Y-7657693D01*
X27134585Y-7227693D02*
X26704585Y-7657693D01*
X27134585Y-7442693D02*
G75*
G03*
X27134585Y-7442693I-215000J0D01*
G01*
D17*
X1968750Y-4342000D02*
X2468750Y-4842000D01*
X2468750Y-4342000D02*
X1968750Y-4842000D01*
X2218750Y-4342000D02*
X2218750Y-4842000D01*
X1968750Y-4592000D02*
X2468750Y-4592000D01*
X1968750Y-6242000D02*
X2468750Y-6742000D01*
X2468750Y-6242000D02*
X1968750Y-6742000D01*
X2218750Y-6242000D02*
X2218750Y-6742000D01*
X1968750Y-6492000D02*
X2468750Y-6492000D01*
X1968750Y-8142000D02*
X2468750Y-8642000D01*
X2468750Y-8142000D02*
X1968750Y-8642000D01*
X2218750Y-8142000D02*
X2218750Y-8642000D01*
X1968750Y-8392000D02*
X2468750Y-8392000D01*
X3868750Y-4342000D02*
X4368750Y-4842000D01*
X4368750Y-4342000D02*
X3868750Y-4842000D01*
X4118750Y-4342000D02*
X4118750Y-4842000D01*
X3868750Y-4592000D02*
X4368750Y-4592000D01*
X3868750Y-6242000D02*
X4368750Y-6742000D01*
X4368750Y-6242000D02*
X3868750Y-6742000D01*
X4118750Y-6242000D02*
X4118750Y-6742000D01*
X3868750Y-6492000D02*
X4368750Y-6492000D01*
X3868750Y-8142000D02*
X4368750Y-8642000D01*
X4368750Y-8142000D02*
X3868750Y-8642000D01*
X4118750Y-8142000D02*
X4118750Y-8642000D01*
X3868750Y-8392000D02*
X4368750Y-8392000D01*
X5768750Y-3867000D02*
X6268750Y-4367000D01*
X6268750Y-3867000D02*
X5768750Y-4367000D01*
X6018750Y-3867000D02*
X6018750Y-4367000D01*
X5768750Y-4117000D02*
X6268750Y-4117000D01*
X5768750Y-5767000D02*
X6268750Y-6267000D01*
X6268750Y-5767000D02*
X5768750Y-6267000D01*
X6018750Y-5767000D02*
X6018750Y-6267000D01*
X5768750Y-6017000D02*
X6268750Y-6017000D01*
X5768750Y-7667000D02*
X6268750Y-8167000D01*
X6268750Y-7667000D02*
X5768750Y-8167000D01*
X6018750Y-7667000D02*
X6018750Y-8167000D01*
X5768750Y-7917000D02*
X6268750Y-7917000D01*
X7668750Y-3629500D02*
X8168750Y-4129500D01*
X8168750Y-3629500D02*
X7668750Y-4129500D01*
X7918750Y-3629500D02*
X7918750Y-4129500D01*
X7668750Y-3879500D02*
X8168750Y-3879500D01*
X7668750Y-5529500D02*
X8168750Y-6029500D01*
X8168750Y-5529500D02*
X7668750Y-6029500D01*
X7918750Y-5529500D02*
X7918750Y-6029500D01*
X7668750Y-5779500D02*
X8168750Y-5779500D01*
X7668750Y-7429500D02*
X8168750Y-7929500D01*
X8168750Y-7429500D02*
X7668750Y-7929500D01*
X7918750Y-7429500D02*
X7918750Y-7929500D01*
X7668750Y-7679500D02*
X8168750Y-7679500D01*
X8618750Y-9629500D02*
X9118750Y-10129500D01*
X9118750Y-9629500D02*
X8618750Y-10129500D01*
X8868750Y-9629500D02*
X8868750Y-10129500D01*
X8618750Y-9879500D02*
X9118750Y-9879500D01*
X9568750Y-3867000D02*
X10068750Y-4367000D01*
X10068750Y-3867000D02*
X9568750Y-4367000D01*
X9818750Y-3867000D02*
X9818750Y-4367000D01*
X9568750Y-4117000D02*
X10068750Y-4117000D01*
X9568750Y-5767000D02*
X10068750Y-6267000D01*
X10068750Y-5767000D02*
X9568750Y-6267000D01*
X9818750Y-5767000D02*
X9818750Y-6267000D01*
X9568750Y-6017000D02*
X10068750Y-6017000D01*
X9568750Y-7667000D02*
X10068750Y-8167000D01*
X10068750Y-7667000D02*
X9568750Y-8167000D01*
X9818750Y-7667000D02*
X9818750Y-8167000D01*
X9568750Y-7917000D02*
X10068750Y-7917000D01*
X10718750Y-9904500D02*
X11218750Y-10404500D01*
X11218750Y-9904500D02*
X10718750Y-10404500D01*
X10968750Y-9904500D02*
X10968750Y-10404500D01*
X10718750Y-10154500D02*
X11218750Y-10154500D01*
X11468750Y-4104500D02*
X11968750Y-4604500D01*
X11968750Y-4104500D02*
X11468750Y-4604500D01*
X11718750Y-4104500D02*
X11718750Y-4604500D01*
X11468750Y-4354500D02*
X11968750Y-4354500D01*
X11468750Y-6004500D02*
X11968750Y-6504500D01*
X11968750Y-6004500D02*
X11468750Y-6504500D01*
X11718750Y-6004500D02*
X11718750Y-6504500D01*
X11468750Y-6254500D02*
X11968750Y-6254500D01*
X11468750Y-7904500D02*
X11968750Y-8404500D01*
X11968750Y-7904500D02*
X11468750Y-8404500D01*
X11718750Y-7904500D02*
X11718750Y-8404500D01*
X11468750Y-8154500D02*
X11968750Y-8154500D01*
X12943750Y-10279500D02*
X13443750Y-10779500D01*
X13443750Y-10279500D02*
X12943750Y-10779500D01*
X13193750Y-10279500D02*
X13193750Y-10779500D01*
X12943750Y-10529500D02*
X13443750Y-10529500D01*
X16643485Y-10279543D02*
X17143485Y-10779543D01*
X17143485Y-10279543D02*
X16643485Y-10779543D01*
X16893485Y-10279543D02*
X16893485Y-10779543D01*
X16643485Y-10529543D02*
X17143485Y-10529543D01*
X18118485Y-4104543D02*
X18618485Y-4604543D01*
X18618485Y-4104543D02*
X18118485Y-4604543D01*
X18368485Y-4104543D02*
X18368485Y-4604543D01*
X18118485Y-4354543D02*
X18618485Y-4354543D01*
X18118485Y-6004543D02*
X18618485Y-6504543D01*
X18618485Y-6004543D02*
X18118485Y-6504543D01*
X18368485Y-6004543D02*
X18368485Y-6504543D01*
X18118485Y-6254543D02*
X18618485Y-6254543D01*
X18118485Y-7904543D02*
X18618485Y-8404543D01*
X18618485Y-7904543D02*
X18118485Y-8404543D01*
X18368485Y-7904543D02*
X18368485Y-8404543D01*
X18118485Y-8154543D02*
X18618485Y-8154543D01*
X18868485Y-9904543D02*
X19368485Y-10404543D01*
X19368485Y-9904543D02*
X18868485Y-10404543D01*
X19118485Y-9904543D02*
X19118485Y-10404543D01*
X18868485Y-10154543D02*
X19368485Y-10154543D01*
X20018485Y-3867043D02*
X20518485Y-4367043D01*
X20518485Y-3867043D02*
X20018485Y-4367043D01*
X20268485Y-3867043D02*
X20268485Y-4367043D01*
X20018485Y-4117043D02*
X20518485Y-4117043D01*
X20018485Y-5767043D02*
X20518485Y-6267043D01*
X20518485Y-5767043D02*
X20018485Y-6267043D01*
X20268485Y-5767043D02*
X20268485Y-6267043D01*
X20018485Y-6017043D02*
X20518485Y-6017043D01*
X20018485Y-7667043D02*
X20518485Y-8167043D01*
X20518485Y-7667043D02*
X20018485Y-8167043D01*
X20268485Y-7667043D02*
X20268485Y-8167043D01*
X20018485Y-7917043D02*
X20518485Y-7917043D01*
X20968485Y-9629543D02*
X21468485Y-10129543D01*
X21468485Y-9629543D02*
X20968485Y-10129543D01*
X21218485Y-9629543D02*
X21218485Y-10129543D01*
X20968485Y-9879543D02*
X21468485Y-9879543D01*
X21918485Y-3629543D02*
X22418485Y-4129543D01*
X22418485Y-3629543D02*
X21918485Y-4129543D01*
X22168485Y-3629543D02*
X22168485Y-4129543D01*
X21918485Y-3879543D02*
X22418485Y-3879543D01*
X21918485Y-5529543D02*
X22418485Y-6029543D01*
X22418485Y-5529543D02*
X21918485Y-6029543D01*
X22168485Y-5529543D02*
X22168485Y-6029543D01*
X21918485Y-5779543D02*
X22418485Y-5779543D01*
X21918485Y-7429543D02*
X22418485Y-7929543D01*
X22418485Y-7429543D02*
X21918485Y-7929543D01*
X22168485Y-7429543D02*
X22168485Y-7929543D01*
X21918485Y-7679543D02*
X22418485Y-7679543D01*
X23818485Y-3867043D02*
X24318485Y-4367043D01*
X24318485Y-3867043D02*
X23818485Y-4367043D01*
X24068485Y-3867043D02*
X24068485Y-4367043D01*
X23818485Y-4117043D02*
X24318485Y-4117043D01*
X23818485Y-5767043D02*
X24318485Y-6267043D01*
X24318485Y-5767043D02*
X23818485Y-6267043D01*
X24068485Y-5767043D02*
X24068485Y-6267043D01*
X23818485Y-6017043D02*
X24318485Y-6017043D01*
X23818485Y-7667043D02*
X24318485Y-8167043D01*
X24318485Y-7667043D02*
X23818485Y-8167043D01*
X24068485Y-7667043D02*
X24068485Y-8167043D01*
X23818485Y-7917043D02*
X24318485Y-7917043D01*
X25718485Y-4342043D02*
X26218485Y-4842043D01*
X26218485Y-4342043D02*
X25718485Y-4842043D01*
X25968485Y-4342043D02*
X25968485Y-4842043D01*
X25718485Y-4592043D02*
X26218485Y-4592043D01*
X25718485Y-6242043D02*
X26218485Y-6742043D01*
X26218485Y-6242043D02*
X25718485Y-6742043D01*
X25968485Y-6242043D02*
X25968485Y-6742043D01*
X25718485Y-6492043D02*
X26218485Y-6492043D01*
X25718485Y-8142043D02*
X26218485Y-8642043D01*
X26218485Y-8142043D02*
X25718485Y-8642043D01*
X25968485Y-8142043D02*
X25968485Y-8642043D01*
X25718485Y-8392043D02*
X26218485Y-8392043D01*
X27618485Y-4342043D02*
X28118485Y-4842043D01*
X28118485Y-4342043D02*
X27618485Y-4842043D01*
X27868485Y-4342043D02*
X27868485Y-4842043D01*
X27618485Y-4592043D02*
X28118485Y-4592043D01*
X27618485Y-6242043D02*
X28118485Y-6742043D01*
X28118485Y-6242043D02*
X27618485Y-6742043D01*
X27868485Y-6242043D02*
X27868485Y-6742043D01*
X27618485Y-6492043D02*
X28118485Y-6492043D01*
X27618485Y-8142043D02*
X28118485Y-8642043D01*
X28118485Y-8142043D02*
X27618485Y-8642043D01*
X27868485Y-8142043D02*
X27868485Y-8642043D01*
X27618485Y-8392043D02*
X28118485Y-8392043D01*
D10*
X1523177Y-13099757D02*
X1523177Y-12899757D01*
X1570796Y-12899757D01*
X1599368Y-12909281D01*
X1618416Y-12928328D01*
X1627939Y-12947376D01*
X1637463Y-12985471D01*
X1637463Y-13014043D01*
X1627939Y-13052138D01*
X1618416Y-13071185D01*
X1599368Y-13090233D01*
X1570796Y-13099757D01*
X1523177Y-13099757D01*
X1723177Y-13099757D02*
X1723177Y-12966424D01*
X1723177Y-13004519D02*
X1732701Y-12985471D01*
X1742225Y-12975947D01*
X1761273Y-12966424D01*
X1780320Y-12966424D01*
X1846987Y-13099757D02*
X1846987Y-12966424D01*
X1846987Y-12899757D02*
X1837463Y-12909281D01*
X1846987Y-12918805D01*
X1856511Y-12909281D01*
X1846987Y-12899757D01*
X1846987Y-12918805D01*
X1970796Y-13099757D02*
X1951749Y-13090233D01*
X1942225Y-13071185D01*
X1942225Y-12899757D01*
X2075558Y-13099757D02*
X2056511Y-13090233D01*
X2046987Y-13071185D01*
X2046987Y-12899757D01*
X2304130Y-13099757D02*
X2304130Y-12899757D01*
X2370797Y-13042614D01*
X2437463Y-12899757D01*
X2437463Y-13099757D01*
X2618416Y-13099757D02*
X2618416Y-12994995D01*
X2608892Y-12975947D01*
X2589844Y-12966424D01*
X2551749Y-12966424D01*
X2532701Y-12975947D01*
X2618416Y-13090233D02*
X2599368Y-13099757D01*
X2551749Y-13099757D01*
X2532701Y-13090233D01*
X2523178Y-13071185D01*
X2523178Y-13052138D01*
X2532701Y-13033090D01*
X2551749Y-13023566D01*
X2599368Y-13023566D01*
X2618416Y-13014043D01*
X2713654Y-12966424D02*
X2713654Y-13166424D01*
X2713654Y-12975947D02*
X2732701Y-12966424D01*
X2770797Y-12966424D01*
X2789844Y-12975947D01*
X2799368Y-12985471D01*
X2808892Y-13004519D01*
X2808892Y-13061662D01*
X2799368Y-13080709D01*
X2789844Y-13090233D01*
X2770797Y-13099757D01*
X2732701Y-13099757D01*
X2713654Y-13090233D01*
X2894606Y-13080709D02*
X2904130Y-13090233D01*
X2894606Y-13099757D01*
X2885082Y-13090233D01*
X2894606Y-13080709D01*
X2894606Y-13099757D01*
X2894606Y-12975947D02*
X2904130Y-12985471D01*
X2894606Y-12994995D01*
X2885082Y-12985471D01*
X2894606Y-12975947D01*
X2894606Y-12994995D01*
D11*
X1235559Y-13414281D02*
X1265559Y-13444281D01*
X1265559Y-13414281D02*
X1235559Y-13444281D01*
D10*
X1561273Y-13319757D02*
X1580320Y-13319757D01*
X1599368Y-13329281D01*
X1608892Y-13338805D01*
X1618416Y-13357852D01*
X1627939Y-13395947D01*
X1627939Y-13443566D01*
X1618416Y-13481662D01*
X1608892Y-13500709D01*
X1599368Y-13510233D01*
X1580320Y-13519757D01*
X1561273Y-13519757D01*
X1542225Y-13510233D01*
X1532701Y-13500709D01*
X1523177Y-13481662D01*
X1513654Y-13443566D01*
X1513654Y-13395947D01*
X1523177Y-13357852D01*
X1532701Y-13338805D01*
X1542225Y-13329281D01*
X1561273Y-13319757D01*
X1713654Y-13500709D02*
X1723177Y-13510233D01*
X1713654Y-13519757D01*
X1704130Y-13510233D01*
X1713654Y-13500709D01*
X1713654Y-13519757D01*
X1789844Y-13319757D02*
X1913654Y-13319757D01*
X1846987Y-13395947D01*
X1875558Y-13395947D01*
X1894606Y-13405471D01*
X1904130Y-13414995D01*
X1913654Y-13434043D01*
X1913654Y-13481662D01*
X1904130Y-13500709D01*
X1894606Y-13510233D01*
X1875558Y-13519757D01*
X1818416Y-13519757D01*
X1799368Y-13510233D01*
X1789844Y-13500709D01*
X2037463Y-13319757D02*
X2056511Y-13319757D01*
X2075558Y-13329281D01*
X2085082Y-13338805D01*
X2094606Y-13357852D01*
X2104130Y-13395947D01*
X2104130Y-13443566D01*
X2094606Y-13481662D01*
X2085082Y-13500709D01*
X2075558Y-13510233D01*
X2056511Y-13519757D01*
X2037463Y-13519757D01*
X2018416Y-13510233D01*
X2008892Y-13500709D01*
X1999368Y-13481662D01*
X1989844Y-13443566D01*
X1989844Y-13395947D01*
X1999368Y-13357852D01*
X2008892Y-13338805D01*
X2018416Y-13329281D01*
X2037463Y-13319757D01*
X2227939Y-13319757D02*
X2246987Y-13319757D01*
X2266035Y-13329281D01*
X2275559Y-13338805D01*
X2285082Y-13357852D01*
X2294606Y-13395947D01*
X2294606Y-13443566D01*
X2285082Y-13481662D01*
X2275559Y-13500709D01*
X2266035Y-13510233D01*
X2246987Y-13519757D01*
X2227939Y-13519757D01*
X2208892Y-13510233D01*
X2199368Y-13500709D01*
X2189844Y-13481662D01*
X2180320Y-13443566D01*
X2180320Y-13395947D01*
X2189844Y-13357852D01*
X2199368Y-13338805D01*
X2208892Y-13329281D01*
X2227939Y-13319757D01*
X2380320Y-13519757D02*
X2380320Y-13386424D01*
X2380320Y-13405471D02*
X2389844Y-13395947D01*
X2408892Y-13386424D01*
X2437463Y-13386424D01*
X2456511Y-13395947D01*
X2466035Y-13414995D01*
X2466035Y-13519757D01*
X2466035Y-13414995D02*
X2475559Y-13395947D01*
X2494606Y-13386424D01*
X2523178Y-13386424D01*
X2542225Y-13395947D01*
X2551749Y-13414995D01*
X2551749Y-13519757D01*
X2646987Y-13519757D02*
X2646987Y-13386424D01*
X2646987Y-13405471D02*
X2656511Y-13395947D01*
X2675559Y-13386424D01*
X2704130Y-13386424D01*
X2723178Y-13395947D01*
X2732701Y-13414995D01*
X2732701Y-13519757D01*
X2732701Y-13414995D02*
X2742225Y-13395947D01*
X2761273Y-13386424D01*
X2789844Y-13386424D01*
X2808892Y-13395947D01*
X2818416Y-13414995D01*
X2818416Y-13519757D01*
X3208892Y-13310233D02*
X3037463Y-13567376D01*
X3466035Y-13319757D02*
X3485082Y-13319757D01*
X3504130Y-13329281D01*
X3513654Y-13338805D01*
X3523177Y-13357852D01*
X3532701Y-13395947D01*
X3532701Y-13443566D01*
X3523177Y-13481662D01*
X3513654Y-13500709D01*
X3504130Y-13510233D01*
X3485082Y-13519757D01*
X3466035Y-13519757D01*
X3446987Y-13510233D01*
X3437463Y-13500709D01*
X3427939Y-13481662D01*
X3418416Y-13443566D01*
X3418416Y-13395947D01*
X3427939Y-13357852D01*
X3437463Y-13338805D01*
X3446987Y-13329281D01*
X3466035Y-13319757D01*
X3618416Y-13500709D02*
X3627939Y-13510233D01*
X3618416Y-13519757D01*
X3608892Y-13510233D01*
X3618416Y-13500709D01*
X3618416Y-13519757D01*
X3751749Y-13319757D02*
X3770796Y-13319757D01*
X3789844Y-13329281D01*
X3799368Y-13338805D01*
X3808892Y-13357852D01*
X3818416Y-13395947D01*
X3818416Y-13443566D01*
X3808892Y-13481662D01*
X3799368Y-13500709D01*
X3789844Y-13510233D01*
X3770796Y-13519757D01*
X3751749Y-13519757D01*
X3732701Y-13510233D01*
X3723177Y-13500709D01*
X3713654Y-13481662D01*
X3704130Y-13443566D01*
X3704130Y-13395947D01*
X3713654Y-13357852D01*
X3723177Y-13338805D01*
X3732701Y-13329281D01*
X3751749Y-13319757D01*
X4008892Y-13519757D02*
X3894606Y-13519757D01*
X3951749Y-13519757D02*
X3951749Y-13319757D01*
X3932701Y-13348328D01*
X3913654Y-13367376D01*
X3894606Y-13376900D01*
X4199368Y-13519757D02*
X4085082Y-13519757D01*
X4142225Y-13519757D02*
X4142225Y-13319757D01*
X4123177Y-13348328D01*
X4104130Y-13367376D01*
X4085082Y-13376900D01*
X4313654Y-13405471D02*
X4294606Y-13395947D01*
X4285082Y-13386424D01*
X4275558Y-13367376D01*
X4275558Y-13357852D01*
X4285082Y-13338805D01*
X4294606Y-13329281D01*
X4313654Y-13319757D01*
X4351749Y-13319757D01*
X4370797Y-13329281D01*
X4380320Y-13338805D01*
X4389844Y-13357852D01*
X4389844Y-13367376D01*
X4380320Y-13386424D01*
X4370797Y-13395947D01*
X4351749Y-13405471D01*
X4313654Y-13405471D01*
X4294606Y-13414995D01*
X4285082Y-13424519D01*
X4275558Y-13443566D01*
X4275558Y-13481662D01*
X4285082Y-13500709D01*
X4294606Y-13510233D01*
X4313654Y-13519757D01*
X4351749Y-13519757D01*
X4370797Y-13510233D01*
X4380320Y-13500709D01*
X4389844Y-13481662D01*
X4389844Y-13443566D01*
X4380320Y-13424519D01*
X4370797Y-13414995D01*
X4351749Y-13405471D01*
X4466035Y-13319757D02*
X4466035Y-13357852D01*
X4542225Y-13319757D02*
X4542225Y-13357852D01*
X4837463Y-13595947D02*
X4827939Y-13586424D01*
X4808892Y-13557852D01*
X4799368Y-13538805D01*
X4789844Y-13510233D01*
X4780320Y-13462614D01*
X4780320Y-13424519D01*
X4789844Y-13376900D01*
X4799368Y-13348328D01*
X4808892Y-13329281D01*
X4827939Y-13300709D01*
X4837463Y-13291185D01*
X4894606Y-13319757D02*
X5027939Y-13319757D01*
X4942225Y-13519757D01*
X5094606Y-13338805D02*
X5104130Y-13329281D01*
X5123178Y-13319757D01*
X5170797Y-13319757D01*
X5189844Y-13329281D01*
X5199368Y-13338805D01*
X5208892Y-13357852D01*
X5208892Y-13376900D01*
X5199368Y-13405471D01*
X5085082Y-13519757D01*
X5208892Y-13519757D01*
X5446987Y-13519757D02*
X5446987Y-13319757D01*
X5532701Y-13519757D02*
X5532701Y-13414995D01*
X5523178Y-13395947D01*
X5504130Y-13386424D01*
X5475558Y-13386424D01*
X5456511Y-13395947D01*
X5446987Y-13405471D01*
X5656511Y-13519757D02*
X5637463Y-13510233D01*
X5627939Y-13500709D01*
X5618416Y-13481662D01*
X5618416Y-13424519D01*
X5627939Y-13405471D01*
X5637463Y-13395947D01*
X5656511Y-13386424D01*
X5685082Y-13386424D01*
X5704130Y-13395947D01*
X5713654Y-13405471D01*
X5723177Y-13424519D01*
X5723177Y-13481662D01*
X5713654Y-13500709D01*
X5704130Y-13510233D01*
X5685082Y-13519757D01*
X5656511Y-13519757D01*
X5837463Y-13519757D02*
X5818416Y-13510233D01*
X5808892Y-13491185D01*
X5808892Y-13319757D01*
X5989844Y-13510233D02*
X5970796Y-13519757D01*
X5932701Y-13519757D01*
X5913654Y-13510233D01*
X5904130Y-13491185D01*
X5904130Y-13414995D01*
X5913654Y-13395947D01*
X5932701Y-13386424D01*
X5970796Y-13386424D01*
X5989844Y-13395947D01*
X5999368Y-13414995D01*
X5999368Y-13434043D01*
X5904130Y-13453090D01*
X6075558Y-13510233D02*
X6094606Y-13519757D01*
X6132701Y-13519757D01*
X6151749Y-13510233D01*
X6161273Y-13491185D01*
X6161273Y-13481662D01*
X6151749Y-13462614D01*
X6132701Y-13453090D01*
X6104130Y-13453090D01*
X6085082Y-13443566D01*
X6075558Y-13424519D01*
X6075558Y-13414995D01*
X6085082Y-13395947D01*
X6104130Y-13386424D01*
X6132701Y-13386424D01*
X6151749Y-13395947D01*
X6227939Y-13595947D02*
X6237463Y-13586424D01*
X6256511Y-13557852D01*
X6266035Y-13538805D01*
X6275558Y-13510233D01*
X6285082Y-13462614D01*
X6285082Y-13424519D01*
X6275558Y-13376900D01*
X6266035Y-13348328D01*
X6256511Y-13329281D01*
X6237463Y-13300709D01*
X6227939Y-13291185D01*
X6589844Y-13595947D02*
X6580320Y-13586424D01*
X6561273Y-13557852D01*
X6551749Y-13538805D01*
X6542225Y-13510233D01*
X6532701Y-13462614D01*
X6532701Y-13424519D01*
X6542225Y-13376900D01*
X6551749Y-13348328D01*
X6561273Y-13329281D01*
X6580320Y-13300709D01*
X6589844Y-13291185D01*
X6666035Y-13386424D02*
X6666035Y-13519757D01*
X6666035Y-13405471D02*
X6675558Y-13395947D01*
X6694606Y-13386424D01*
X6723177Y-13386424D01*
X6742225Y-13395947D01*
X6751749Y-13414995D01*
X6751749Y-13519757D01*
X6875558Y-13519757D02*
X6856511Y-13510233D01*
X6846987Y-13500709D01*
X6837463Y-13481662D01*
X6837463Y-13424519D01*
X6846987Y-13405471D01*
X6856511Y-13395947D01*
X6875558Y-13386424D01*
X6904130Y-13386424D01*
X6923177Y-13395947D01*
X6932701Y-13405471D01*
X6942225Y-13424519D01*
X6942225Y-13481662D01*
X6932701Y-13500709D01*
X6923177Y-13510233D01*
X6904130Y-13519757D01*
X6875558Y-13519757D01*
X6999368Y-13386424D02*
X7075558Y-13386424D01*
X7027939Y-13319757D02*
X7027939Y-13491185D01*
X7037463Y-13510233D01*
X7056511Y-13519757D01*
X7075558Y-13519757D01*
X7294606Y-13386424D02*
X7294606Y-13586424D01*
X7294606Y-13395947D02*
X7313654Y-13386424D01*
X7351749Y-13386424D01*
X7370796Y-13395947D01*
X7380320Y-13405471D01*
X7389844Y-13424519D01*
X7389844Y-13481662D01*
X7380320Y-13500709D01*
X7370796Y-13510233D01*
X7351749Y-13519757D01*
X7313654Y-13519757D01*
X7294606Y-13510233D01*
X7504130Y-13519757D02*
X7485082Y-13510233D01*
X7475558Y-13491185D01*
X7475558Y-13319757D01*
X7666035Y-13519757D02*
X7666035Y-13414995D01*
X7656511Y-13395947D01*
X7637463Y-13386424D01*
X7599368Y-13386424D01*
X7580320Y-13395947D01*
X7666035Y-13510233D02*
X7646987Y-13519757D01*
X7599368Y-13519757D01*
X7580320Y-13510233D01*
X7570796Y-13491185D01*
X7570796Y-13472138D01*
X7580320Y-13453090D01*
X7599368Y-13443566D01*
X7646987Y-13443566D01*
X7666035Y-13434043D01*
X7732701Y-13386424D02*
X7808892Y-13386424D01*
X7761273Y-13319757D02*
X7761273Y-13491185D01*
X7770796Y-13510233D01*
X7789844Y-13519757D01*
X7808892Y-13519757D01*
X7951749Y-13510233D02*
X7932701Y-13519757D01*
X7894606Y-13519757D01*
X7875558Y-13510233D01*
X7866035Y-13491185D01*
X7866035Y-13414995D01*
X7875558Y-13395947D01*
X7894606Y-13386424D01*
X7932701Y-13386424D01*
X7951749Y-13395947D01*
X7961273Y-13414995D01*
X7961273Y-13434043D01*
X7866035Y-13453090D01*
X8132701Y-13519757D02*
X8132701Y-13319757D01*
X8132701Y-13510233D02*
X8113654Y-13519757D01*
X8075558Y-13519757D01*
X8056511Y-13510233D01*
X8046987Y-13500709D01*
X8037463Y-13481662D01*
X8037463Y-13424519D01*
X8046987Y-13405471D01*
X8056511Y-13395947D01*
X8075558Y-13386424D01*
X8113654Y-13386424D01*
X8132701Y-13395947D01*
X8208892Y-13595947D02*
X8218416Y-13586424D01*
X8237463Y-13557852D01*
X8246987Y-13538805D01*
X8256511Y-13510233D01*
X8266035Y-13462614D01*
X8266035Y-13424519D01*
X8256511Y-13376900D01*
X8246987Y-13348328D01*
X8237463Y-13329281D01*
X8218416Y-13300709D01*
X8208892Y-13291185D01*
D12*
X1265559Y-13693281D02*
G75*
G03*
X1265559Y-13693281I-45000J0D01*
G01*
D10*
X1561273Y-13583757D02*
X1580320Y-13583757D01*
X1599368Y-13593281D01*
X1608892Y-13602805D01*
X1618416Y-13621852D01*
X1627939Y-13659947D01*
X1627939Y-13707566D01*
X1618416Y-13745662D01*
X1608892Y-13764709D01*
X1599368Y-13774233D01*
X1580320Y-13783757D01*
X1561273Y-13783757D01*
X1542225Y-13774233D01*
X1532701Y-13764709D01*
X1523177Y-13745662D01*
X1513654Y-13707566D01*
X1513654Y-13659947D01*
X1523177Y-13621852D01*
X1532701Y-13602805D01*
X1542225Y-13593281D01*
X1561273Y-13583757D01*
X1713654Y-13764709D02*
X1723177Y-13774233D01*
X1713654Y-13783757D01*
X1704130Y-13774233D01*
X1713654Y-13764709D01*
X1713654Y-13783757D01*
X1818416Y-13783757D02*
X1856511Y-13783757D01*
X1875558Y-13774233D01*
X1885082Y-13764709D01*
X1904130Y-13736138D01*
X1913654Y-13698043D01*
X1913654Y-13621852D01*
X1904130Y-13602805D01*
X1894606Y-13593281D01*
X1875558Y-13583757D01*
X1837463Y-13583757D01*
X1818416Y-13593281D01*
X1808892Y-13602805D01*
X1799368Y-13621852D01*
X1799368Y-13669471D01*
X1808892Y-13688519D01*
X1818416Y-13698043D01*
X1837463Y-13707566D01*
X1875558Y-13707566D01*
X1894606Y-13698043D01*
X1904130Y-13688519D01*
X1913654Y-13669471D01*
X2037463Y-13583757D02*
X2056511Y-13583757D01*
X2075558Y-13593281D01*
X2085082Y-13602805D01*
X2094606Y-13621852D01*
X2104130Y-13659947D01*
X2104130Y-13707566D01*
X2094606Y-13745662D01*
X2085082Y-13764709D01*
X2075558Y-13774233D01*
X2056511Y-13783757D01*
X2037463Y-13783757D01*
X2018416Y-13774233D01*
X2008892Y-13764709D01*
X1999368Y-13745662D01*
X1989844Y-13707566D01*
X1989844Y-13659947D01*
X1999368Y-13621852D01*
X2008892Y-13602805D01*
X2018416Y-13593281D01*
X2037463Y-13583757D01*
X2227939Y-13583757D02*
X2246987Y-13583757D01*
X2266035Y-13593281D01*
X2275559Y-13602805D01*
X2285082Y-13621852D01*
X2294606Y-13659947D01*
X2294606Y-13707566D01*
X2285082Y-13745662D01*
X2275559Y-13764709D01*
X2266035Y-13774233D01*
X2246987Y-13783757D01*
X2227939Y-13783757D01*
X2208892Y-13774233D01*
X2199368Y-13764709D01*
X2189844Y-13745662D01*
X2180320Y-13707566D01*
X2180320Y-13659947D01*
X2189844Y-13621852D01*
X2199368Y-13602805D01*
X2208892Y-13593281D01*
X2227939Y-13583757D01*
X2380320Y-13783757D02*
X2380320Y-13650424D01*
X2380320Y-13669471D02*
X2389844Y-13659947D01*
X2408892Y-13650424D01*
X2437463Y-13650424D01*
X2456511Y-13659947D01*
X2466035Y-13678995D01*
X2466035Y-13783757D01*
X2466035Y-13678995D02*
X2475559Y-13659947D01*
X2494606Y-13650424D01*
X2523178Y-13650424D01*
X2542225Y-13659947D01*
X2551749Y-13678995D01*
X2551749Y-13783757D01*
X2646987Y-13783757D02*
X2646987Y-13650424D01*
X2646987Y-13669471D02*
X2656511Y-13659947D01*
X2675559Y-13650424D01*
X2704130Y-13650424D01*
X2723178Y-13659947D01*
X2732701Y-13678995D01*
X2732701Y-13783757D01*
X2732701Y-13678995D02*
X2742225Y-13659947D01*
X2761273Y-13650424D01*
X2789844Y-13650424D01*
X2808892Y-13659947D01*
X2818416Y-13678995D01*
X2818416Y-13783757D01*
X3208892Y-13574233D02*
X3037463Y-13831376D01*
X3466035Y-13583757D02*
X3485082Y-13583757D01*
X3504130Y-13593281D01*
X3513654Y-13602805D01*
X3523177Y-13621852D01*
X3532701Y-13659947D01*
X3532701Y-13707566D01*
X3523177Y-13745662D01*
X3513654Y-13764709D01*
X3504130Y-13774233D01*
X3485082Y-13783757D01*
X3466035Y-13783757D01*
X3446987Y-13774233D01*
X3437463Y-13764709D01*
X3427939Y-13745662D01*
X3418416Y-13707566D01*
X3418416Y-13659947D01*
X3427939Y-13621852D01*
X3437463Y-13602805D01*
X3446987Y-13593281D01*
X3466035Y-13583757D01*
X3618416Y-13764709D02*
X3627939Y-13774233D01*
X3618416Y-13783757D01*
X3608892Y-13774233D01*
X3618416Y-13764709D01*
X3618416Y-13783757D01*
X3751749Y-13583757D02*
X3770796Y-13583757D01*
X3789844Y-13593281D01*
X3799368Y-13602805D01*
X3808892Y-13621852D01*
X3818416Y-13659947D01*
X3818416Y-13707566D01*
X3808892Y-13745662D01*
X3799368Y-13764709D01*
X3789844Y-13774233D01*
X3770796Y-13783757D01*
X3751749Y-13783757D01*
X3732701Y-13774233D01*
X3723177Y-13764709D01*
X3713654Y-13745662D01*
X3704130Y-13707566D01*
X3704130Y-13659947D01*
X3713654Y-13621852D01*
X3723177Y-13602805D01*
X3732701Y-13593281D01*
X3751749Y-13583757D01*
X3885082Y-13583757D02*
X4008892Y-13583757D01*
X3942225Y-13659947D01*
X3970796Y-13659947D01*
X3989844Y-13669471D01*
X3999368Y-13678995D01*
X4008892Y-13698043D01*
X4008892Y-13745662D01*
X3999368Y-13764709D01*
X3989844Y-13774233D01*
X3970796Y-13783757D01*
X3913654Y-13783757D01*
X3894606Y-13774233D01*
X3885082Y-13764709D01*
X4189844Y-13583757D02*
X4094606Y-13583757D01*
X4085082Y-13678995D01*
X4094606Y-13669471D01*
X4113654Y-13659947D01*
X4161273Y-13659947D01*
X4180320Y-13669471D01*
X4189844Y-13678995D01*
X4199368Y-13698043D01*
X4199368Y-13745662D01*
X4189844Y-13764709D01*
X4180320Y-13774233D01*
X4161273Y-13783757D01*
X4113654Y-13783757D01*
X4094606Y-13774233D01*
X4085082Y-13764709D01*
X4370797Y-13650424D02*
X4370797Y-13783757D01*
X4323178Y-13574233D02*
X4275558Y-13717090D01*
X4399368Y-13717090D01*
X4466035Y-13583757D02*
X4466035Y-13621852D01*
X4542225Y-13583757D02*
X4542225Y-13621852D01*
X4837463Y-13859947D02*
X4827939Y-13850424D01*
X4808892Y-13821852D01*
X4799368Y-13802805D01*
X4789844Y-13774233D01*
X4780320Y-13726614D01*
X4780320Y-13688519D01*
X4789844Y-13640900D01*
X4799368Y-13612328D01*
X4808892Y-13593281D01*
X4827939Y-13564709D01*
X4837463Y-13555185D01*
X4999368Y-13650424D02*
X4999368Y-13783757D01*
X4951749Y-13574233D02*
X4904130Y-13717090D01*
X5027939Y-13717090D01*
X5256511Y-13783757D02*
X5256511Y-13583757D01*
X5342225Y-13783757D02*
X5342225Y-13678995D01*
X5332701Y-13659947D01*
X5313654Y-13650424D01*
X5285082Y-13650424D01*
X5266035Y-13659947D01*
X5256511Y-13669471D01*
X5466035Y-13783757D02*
X5446987Y-13774233D01*
X5437463Y-13764709D01*
X5427939Y-13745662D01*
X5427939Y-13688519D01*
X5437463Y-13669471D01*
X5446987Y-13659947D01*
X5466035Y-13650424D01*
X5494606Y-13650424D01*
X5513654Y-13659947D01*
X5523178Y-13669471D01*
X5532701Y-13688519D01*
X5532701Y-13745662D01*
X5523178Y-13764709D01*
X5513654Y-13774233D01*
X5494606Y-13783757D01*
X5466035Y-13783757D01*
X5646987Y-13783757D02*
X5627939Y-13774233D01*
X5618416Y-13755185D01*
X5618416Y-13583757D01*
X5799368Y-13774233D02*
X5780320Y-13783757D01*
X5742225Y-13783757D01*
X5723177Y-13774233D01*
X5713654Y-13755185D01*
X5713654Y-13678995D01*
X5723177Y-13659947D01*
X5742225Y-13650424D01*
X5780320Y-13650424D01*
X5799368Y-13659947D01*
X5808892Y-13678995D01*
X5808892Y-13698043D01*
X5713654Y-13717090D01*
X5885082Y-13774233D02*
X5904130Y-13783757D01*
X5942225Y-13783757D01*
X5961273Y-13774233D01*
X5970796Y-13755185D01*
X5970796Y-13745662D01*
X5961273Y-13726614D01*
X5942225Y-13717090D01*
X5913654Y-13717090D01*
X5894606Y-13707566D01*
X5885082Y-13688519D01*
X5885082Y-13678995D01*
X5894606Y-13659947D01*
X5913654Y-13650424D01*
X5942225Y-13650424D01*
X5961273Y-13659947D01*
X6037463Y-13859947D02*
X6046987Y-13850424D01*
X6066035Y-13821852D01*
X6075558Y-13802805D01*
X6085082Y-13774233D01*
X6094606Y-13726614D01*
X6094606Y-13688519D01*
X6085082Y-13640900D01*
X6075558Y-13612328D01*
X6066035Y-13593281D01*
X6046987Y-13564709D01*
X6037463Y-13555185D01*
X6399368Y-13859947D02*
X6389844Y-13850424D01*
X6370796Y-13821852D01*
X6361273Y-13802805D01*
X6351749Y-13774233D01*
X6342225Y-13726614D01*
X6342225Y-13688519D01*
X6351749Y-13640900D01*
X6361273Y-13612328D01*
X6370796Y-13593281D01*
X6389844Y-13564709D01*
X6399368Y-13555185D01*
X6475558Y-13650424D02*
X6475558Y-13783757D01*
X6475558Y-13669471D02*
X6485082Y-13659947D01*
X6504130Y-13650424D01*
X6532701Y-13650424D01*
X6551749Y-13659947D01*
X6561273Y-13678995D01*
X6561273Y-13783757D01*
X6685082Y-13783757D02*
X6666035Y-13774233D01*
X6656511Y-13764709D01*
X6646987Y-13745662D01*
X6646987Y-13688519D01*
X6656511Y-13669471D01*
X6666035Y-13659947D01*
X6685082Y-13650424D01*
X6713654Y-13650424D01*
X6732701Y-13659947D01*
X6742225Y-13669471D01*
X6751749Y-13688519D01*
X6751749Y-13745662D01*
X6742225Y-13764709D01*
X6732701Y-13774233D01*
X6713654Y-13783757D01*
X6685082Y-13783757D01*
X6808892Y-13650424D02*
X6885082Y-13650424D01*
X6837463Y-13583757D02*
X6837463Y-13755185D01*
X6846987Y-13774233D01*
X6866035Y-13783757D01*
X6885082Y-13783757D01*
X7104130Y-13650424D02*
X7104130Y-13850424D01*
X7104130Y-13659947D02*
X7123177Y-13650424D01*
X7161273Y-13650424D01*
X7180320Y-13659947D01*
X7189844Y-13669471D01*
X7199368Y-13688519D01*
X7199368Y-13745662D01*
X7189844Y-13764709D01*
X7180320Y-13774233D01*
X7161273Y-13783757D01*
X7123177Y-13783757D01*
X7104130Y-13774233D01*
X7313654Y-13783757D02*
X7294606Y-13774233D01*
X7285082Y-13755185D01*
X7285082Y-13583757D01*
X7475558Y-13783757D02*
X7475558Y-13678995D01*
X7466035Y-13659947D01*
X7446987Y-13650424D01*
X7408892Y-13650424D01*
X7389844Y-13659947D01*
X7475558Y-13774233D02*
X7456511Y-13783757D01*
X7408892Y-13783757D01*
X7389844Y-13774233D01*
X7380320Y-13755185D01*
X7380320Y-13736138D01*
X7389844Y-13717090D01*
X7408892Y-13707566D01*
X7456511Y-13707566D01*
X7475558Y-13698043D01*
X7542225Y-13650424D02*
X7618416Y-13650424D01*
X7570796Y-13583757D02*
X7570796Y-13755185D01*
X7580320Y-13774233D01*
X7599368Y-13783757D01*
X7618416Y-13783757D01*
X7761273Y-13774233D02*
X7742225Y-13783757D01*
X7704130Y-13783757D01*
X7685082Y-13774233D01*
X7675558Y-13755185D01*
X7675558Y-13678995D01*
X7685082Y-13659947D01*
X7704130Y-13650424D01*
X7742225Y-13650424D01*
X7761273Y-13659947D01*
X7770796Y-13678995D01*
X7770796Y-13698043D01*
X7675558Y-13717090D01*
X7942225Y-13783757D02*
X7942225Y-13583757D01*
X7942225Y-13774233D02*
X7923177Y-13783757D01*
X7885082Y-13783757D01*
X7866035Y-13774233D01*
X7856511Y-13764709D01*
X7846987Y-13745662D01*
X7846987Y-13688519D01*
X7856511Y-13669471D01*
X7866035Y-13659947D01*
X7885082Y-13650424D01*
X7923177Y-13650424D01*
X7942225Y-13659947D01*
X8018416Y-13859947D02*
X8027939Y-13850424D01*
X8046987Y-13821852D01*
X8056511Y-13802805D01*
X8066035Y-13774233D01*
X8075558Y-13726614D01*
X8075558Y-13688519D01*
X8066035Y-13640900D01*
X8056511Y-13612328D01*
X8046987Y-13593281D01*
X8027939Y-13564709D01*
X8018416Y-13555185D01*
D13*
X1216029Y-13907751D02*
X1216029Y-14006811D01*
X1166499Y-13957281D02*
X1265559Y-13957281D01*
D10*
X1561273Y-13847757D02*
X1580320Y-13847757D01*
X1599368Y-13857281D01*
X1608892Y-13866805D01*
X1618416Y-13885852D01*
X1627939Y-13923947D01*
X1627939Y-13971566D01*
X1618416Y-14009662D01*
X1608892Y-14028709D01*
X1599368Y-14038233D01*
X1580320Y-14047757D01*
X1561273Y-14047757D01*
X1542225Y-14038233D01*
X1532701Y-14028709D01*
X1523177Y-14009662D01*
X1513654Y-13971566D01*
X1513654Y-13923947D01*
X1523177Y-13885852D01*
X1532701Y-13866805D01*
X1542225Y-13857281D01*
X1561273Y-13847757D01*
X1713654Y-14028709D02*
X1723177Y-14038233D01*
X1713654Y-14047757D01*
X1704130Y-14038233D01*
X1713654Y-14028709D01*
X1713654Y-14047757D01*
X1818416Y-14047757D02*
X1856511Y-14047757D01*
X1875558Y-14038233D01*
X1885082Y-14028709D01*
X1904130Y-14000138D01*
X1913654Y-13962043D01*
X1913654Y-13885852D01*
X1904130Y-13866805D01*
X1894606Y-13857281D01*
X1875558Y-13847757D01*
X1837463Y-13847757D01*
X1818416Y-13857281D01*
X1808892Y-13866805D01*
X1799368Y-13885852D01*
X1799368Y-13933471D01*
X1808892Y-13952519D01*
X1818416Y-13962043D01*
X1837463Y-13971566D01*
X1875558Y-13971566D01*
X1894606Y-13962043D01*
X1904130Y-13952519D01*
X1913654Y-13933471D01*
X2008892Y-14047757D02*
X2046987Y-14047757D01*
X2066035Y-14038233D01*
X2075558Y-14028709D01*
X2094606Y-14000138D01*
X2104130Y-13962043D01*
X2104130Y-13885852D01*
X2094606Y-13866805D01*
X2085082Y-13857281D01*
X2066035Y-13847757D01*
X2027939Y-13847757D01*
X2008892Y-13857281D01*
X1999368Y-13866805D01*
X1989844Y-13885852D01*
X1989844Y-13933471D01*
X1999368Y-13952519D01*
X2008892Y-13962043D01*
X2027939Y-13971566D01*
X2066035Y-13971566D01*
X2085082Y-13962043D01*
X2094606Y-13952519D01*
X2104130Y-13933471D01*
X2294606Y-14047757D02*
X2180320Y-14047757D01*
X2237463Y-14047757D02*
X2237463Y-13847757D01*
X2218416Y-13876328D01*
X2199368Y-13895376D01*
X2180320Y-13904900D01*
X2380320Y-14047757D02*
X2380320Y-13914424D01*
X2380320Y-13933471D02*
X2389844Y-13923947D01*
X2408892Y-13914424D01*
X2437463Y-13914424D01*
X2456511Y-13923947D01*
X2466035Y-13942995D01*
X2466035Y-14047757D01*
X2466035Y-13942995D02*
X2475559Y-13923947D01*
X2494606Y-13914424D01*
X2523178Y-13914424D01*
X2542225Y-13923947D01*
X2551749Y-13942995D01*
X2551749Y-14047757D01*
X2646987Y-14047757D02*
X2646987Y-13914424D01*
X2646987Y-13933471D02*
X2656511Y-13923947D01*
X2675559Y-13914424D01*
X2704130Y-13914424D01*
X2723178Y-13923947D01*
X2732701Y-13942995D01*
X2732701Y-14047757D01*
X2732701Y-13942995D02*
X2742225Y-13923947D01*
X2761273Y-13914424D01*
X2789844Y-13914424D01*
X2808892Y-13923947D01*
X2818416Y-13942995D01*
X2818416Y-14047757D01*
X3208892Y-13838233D02*
X3037463Y-14095376D01*
X3466035Y-13847757D02*
X3485082Y-13847757D01*
X3504130Y-13857281D01*
X3513654Y-13866805D01*
X3523177Y-13885852D01*
X3532701Y-13923947D01*
X3532701Y-13971566D01*
X3523177Y-14009662D01*
X3513654Y-14028709D01*
X3504130Y-14038233D01*
X3485082Y-14047757D01*
X3466035Y-14047757D01*
X3446987Y-14038233D01*
X3437463Y-14028709D01*
X3427939Y-14009662D01*
X3418416Y-13971566D01*
X3418416Y-13923947D01*
X3427939Y-13885852D01*
X3437463Y-13866805D01*
X3446987Y-13857281D01*
X3466035Y-13847757D01*
X3618416Y-14028709D02*
X3627939Y-14038233D01*
X3618416Y-14047757D01*
X3608892Y-14038233D01*
X3618416Y-14028709D01*
X3618416Y-14047757D01*
X3751749Y-13847757D02*
X3770796Y-13847757D01*
X3789844Y-13857281D01*
X3799368Y-13866805D01*
X3808892Y-13885852D01*
X3818416Y-13923947D01*
X3818416Y-13971566D01*
X3808892Y-14009662D01*
X3799368Y-14028709D01*
X3789844Y-14038233D01*
X3770796Y-14047757D01*
X3751749Y-14047757D01*
X3732701Y-14038233D01*
X3723177Y-14028709D01*
X3713654Y-14009662D01*
X3704130Y-13971566D01*
X3704130Y-13923947D01*
X3713654Y-13885852D01*
X3723177Y-13866805D01*
X3732701Y-13857281D01*
X3751749Y-13847757D01*
X3885082Y-13847757D02*
X4008892Y-13847757D01*
X3942225Y-13923947D01*
X3970796Y-13923947D01*
X3989844Y-13933471D01*
X3999368Y-13942995D01*
X4008892Y-13962043D01*
X4008892Y-14009662D01*
X3999368Y-14028709D01*
X3989844Y-14038233D01*
X3970796Y-14047757D01*
X3913654Y-14047757D01*
X3894606Y-14038233D01*
X3885082Y-14028709D01*
X4104130Y-14047757D02*
X4142225Y-14047757D01*
X4161273Y-14038233D01*
X4170796Y-14028709D01*
X4189844Y-14000138D01*
X4199368Y-13962043D01*
X4199368Y-13885852D01*
X4189844Y-13866805D01*
X4180320Y-13857281D01*
X4161273Y-13847757D01*
X4123177Y-13847757D01*
X4104130Y-13857281D01*
X4094606Y-13866805D01*
X4085082Y-13885852D01*
X4085082Y-13933471D01*
X4094606Y-13952519D01*
X4104130Y-13962043D01*
X4123177Y-13971566D01*
X4161273Y-13971566D01*
X4180320Y-13962043D01*
X4189844Y-13952519D01*
X4199368Y-13933471D01*
X4323178Y-13847757D02*
X4342225Y-13847757D01*
X4361273Y-13857281D01*
X4370797Y-13866805D01*
X4380320Y-13885852D01*
X4389844Y-13923947D01*
X4389844Y-13971566D01*
X4380320Y-14009662D01*
X4370797Y-14028709D01*
X4361273Y-14038233D01*
X4342225Y-14047757D01*
X4323178Y-14047757D01*
X4304130Y-14038233D01*
X4294606Y-14028709D01*
X4285082Y-14009662D01*
X4275558Y-13971566D01*
X4275558Y-13923947D01*
X4285082Y-13885852D01*
X4294606Y-13866805D01*
X4304130Y-13857281D01*
X4323178Y-13847757D01*
X4466035Y-13847757D02*
X4466035Y-13885852D01*
X4542225Y-13847757D02*
X4542225Y-13885852D01*
X4837463Y-14123947D02*
X4827939Y-14114424D01*
X4808892Y-14085852D01*
X4799368Y-14066805D01*
X4789844Y-14038233D01*
X4780320Y-13990614D01*
X4780320Y-13952519D01*
X4789844Y-13904900D01*
X4799368Y-13876328D01*
X4808892Y-13857281D01*
X4827939Y-13828709D01*
X4837463Y-13819185D01*
X4999368Y-13914424D02*
X4999368Y-14047757D01*
X4951749Y-13838233D02*
X4904130Y-13981090D01*
X5027939Y-13981090D01*
X5094606Y-13866805D02*
X5104130Y-13857281D01*
X5123178Y-13847757D01*
X5170797Y-13847757D01*
X5189844Y-13857281D01*
X5199368Y-13866805D01*
X5208892Y-13885852D01*
X5208892Y-13904900D01*
X5199368Y-13933471D01*
X5085082Y-14047757D01*
X5208892Y-14047757D01*
X5446987Y-14047757D02*
X5446987Y-13847757D01*
X5532701Y-14047757D02*
X5532701Y-13942995D01*
X5523178Y-13923947D01*
X5504130Y-13914424D01*
X5475558Y-13914424D01*
X5456511Y-13923947D01*
X5446987Y-13933471D01*
X5656511Y-14047757D02*
X5637463Y-14038233D01*
X5627939Y-14028709D01*
X5618416Y-14009662D01*
X5618416Y-13952519D01*
X5627939Y-13933471D01*
X5637463Y-13923947D01*
X5656511Y-13914424D01*
X5685082Y-13914424D01*
X5704130Y-13923947D01*
X5713654Y-13933471D01*
X5723177Y-13952519D01*
X5723177Y-14009662D01*
X5713654Y-14028709D01*
X5704130Y-14038233D01*
X5685082Y-14047757D01*
X5656511Y-14047757D01*
X5837463Y-14047757D02*
X5818416Y-14038233D01*
X5808892Y-14019185D01*
X5808892Y-13847757D01*
X5989844Y-14038233D02*
X5970796Y-14047757D01*
X5932701Y-14047757D01*
X5913654Y-14038233D01*
X5904130Y-14019185D01*
X5904130Y-13942995D01*
X5913654Y-13923947D01*
X5932701Y-13914424D01*
X5970796Y-13914424D01*
X5989844Y-13923947D01*
X5999368Y-13942995D01*
X5999368Y-13962043D01*
X5904130Y-13981090D01*
X6075558Y-14038233D02*
X6094606Y-14047757D01*
X6132701Y-14047757D01*
X6151749Y-14038233D01*
X6161273Y-14019185D01*
X6161273Y-14009662D01*
X6151749Y-13990614D01*
X6132701Y-13981090D01*
X6104130Y-13981090D01*
X6085082Y-13971566D01*
X6075558Y-13952519D01*
X6075558Y-13942995D01*
X6085082Y-13923947D01*
X6104130Y-13914424D01*
X6132701Y-13914424D01*
X6151749Y-13923947D01*
X6227939Y-14123947D02*
X6237463Y-14114424D01*
X6256511Y-14085852D01*
X6266035Y-14066805D01*
X6275558Y-14038233D01*
X6285082Y-13990614D01*
X6285082Y-13952519D01*
X6275558Y-13904900D01*
X6266035Y-13876328D01*
X6256511Y-13857281D01*
X6237463Y-13828709D01*
X6227939Y-13819185D01*
X6589844Y-14123947D02*
X6580320Y-14114424D01*
X6561273Y-14085852D01*
X6551749Y-14066805D01*
X6542225Y-14038233D01*
X6532701Y-13990614D01*
X6532701Y-13952519D01*
X6542225Y-13904900D01*
X6551749Y-13876328D01*
X6561273Y-13857281D01*
X6580320Y-13828709D01*
X6589844Y-13819185D01*
X6666035Y-13914424D02*
X6666035Y-14047757D01*
X6666035Y-13933471D02*
X6675558Y-13923947D01*
X6694606Y-13914424D01*
X6723177Y-13914424D01*
X6742225Y-13923947D01*
X6751749Y-13942995D01*
X6751749Y-14047757D01*
X6875558Y-14047757D02*
X6856511Y-14038233D01*
X6846987Y-14028709D01*
X6837463Y-14009662D01*
X6837463Y-13952519D01*
X6846987Y-13933471D01*
X6856511Y-13923947D01*
X6875558Y-13914424D01*
X6904130Y-13914424D01*
X6923177Y-13923947D01*
X6932701Y-13933471D01*
X6942225Y-13952519D01*
X6942225Y-14009662D01*
X6932701Y-14028709D01*
X6923177Y-14038233D01*
X6904130Y-14047757D01*
X6875558Y-14047757D01*
X6999368Y-13914424D02*
X7075558Y-13914424D01*
X7027939Y-13847757D02*
X7027939Y-14019185D01*
X7037463Y-14038233D01*
X7056511Y-14047757D01*
X7075558Y-14047757D01*
X7294606Y-13914424D02*
X7294606Y-14114424D01*
X7294606Y-13923947D02*
X7313654Y-13914424D01*
X7351749Y-13914424D01*
X7370796Y-13923947D01*
X7380320Y-13933471D01*
X7389844Y-13952519D01*
X7389844Y-14009662D01*
X7380320Y-14028709D01*
X7370796Y-14038233D01*
X7351749Y-14047757D01*
X7313654Y-14047757D01*
X7294606Y-14038233D01*
X7504130Y-14047757D02*
X7485082Y-14038233D01*
X7475558Y-14019185D01*
X7475558Y-13847757D01*
X7666035Y-14047757D02*
X7666035Y-13942995D01*
X7656511Y-13923947D01*
X7637463Y-13914424D01*
X7599368Y-13914424D01*
X7580320Y-13923947D01*
X7666035Y-14038233D02*
X7646987Y-14047757D01*
X7599368Y-14047757D01*
X7580320Y-14038233D01*
X7570796Y-14019185D01*
X7570796Y-14000138D01*
X7580320Y-13981090D01*
X7599368Y-13971566D01*
X7646987Y-13971566D01*
X7666035Y-13962043D01*
X7732701Y-13914424D02*
X7808892Y-13914424D01*
X7761273Y-13847757D02*
X7761273Y-14019185D01*
X7770796Y-14038233D01*
X7789844Y-14047757D01*
X7808892Y-14047757D01*
X7951749Y-14038233D02*
X7932701Y-14047757D01*
X7894606Y-14047757D01*
X7875558Y-14038233D01*
X7866035Y-14019185D01*
X7866035Y-13942995D01*
X7875558Y-13923947D01*
X7894606Y-13914424D01*
X7932701Y-13914424D01*
X7951749Y-13923947D01*
X7961273Y-13942995D01*
X7961273Y-13962043D01*
X7866035Y-13981090D01*
X8132701Y-14047757D02*
X8132701Y-13847757D01*
X8132701Y-14038233D02*
X8113654Y-14047757D01*
X8075558Y-14047757D01*
X8056511Y-14038233D01*
X8046987Y-14028709D01*
X8037463Y-14009662D01*
X8037463Y-13952519D01*
X8046987Y-13933471D01*
X8056511Y-13923947D01*
X8075558Y-13914424D01*
X8113654Y-13914424D01*
X8132701Y-13923947D01*
X8208892Y-14123947D02*
X8218416Y-14114424D01*
X8237463Y-14085852D01*
X8246987Y-14066805D01*
X8256511Y-14038233D01*
X8266035Y-13990614D01*
X8266035Y-13952519D01*
X8256511Y-13904900D01*
X8246987Y-13876328D01*
X8237463Y-13857281D01*
X8218416Y-13828709D01*
X8208892Y-13819185D01*
D14*
X1240637Y-14281449D02*
X1240637Y-14161112D01*
X1120300Y-14161112D01*
X1120300Y-14281449D01*
X1240637Y-14281449D01*
D10*
X1627939Y-14311757D02*
X1513654Y-14311757D01*
X1570796Y-14311757D02*
X1570796Y-14111757D01*
X1551749Y-14140328D01*
X1532701Y-14159376D01*
X1513654Y-14168900D01*
X1713654Y-14292709D02*
X1723177Y-14302233D01*
X1713654Y-14311757D01*
X1704130Y-14302233D01*
X1713654Y-14292709D01*
X1713654Y-14311757D01*
X1789844Y-14111757D02*
X1923177Y-14111757D01*
X1837463Y-14311757D01*
X2037463Y-14111757D02*
X2056511Y-14111757D01*
X2075558Y-14121281D01*
X2085082Y-14130805D01*
X2094606Y-14149852D01*
X2104130Y-14187947D01*
X2104130Y-14235566D01*
X2094606Y-14273662D01*
X2085082Y-14292709D01*
X2075558Y-14302233D01*
X2056511Y-14311757D01*
X2037463Y-14311757D01*
X2018416Y-14302233D01*
X2008892Y-14292709D01*
X1999368Y-14273662D01*
X1989844Y-14235566D01*
X1989844Y-14187947D01*
X1999368Y-14149852D01*
X2008892Y-14130805D01*
X2018416Y-14121281D01*
X2037463Y-14111757D01*
X2180320Y-14130805D02*
X2189844Y-14121281D01*
X2208892Y-14111757D01*
X2256511Y-14111757D01*
X2275559Y-14121281D01*
X2285082Y-14130805D01*
X2294606Y-14149852D01*
X2294606Y-14168900D01*
X2285082Y-14197471D01*
X2170797Y-14311757D01*
X2294606Y-14311757D01*
X2380320Y-14311757D02*
X2380320Y-14178424D01*
X2380320Y-14197471D02*
X2389844Y-14187947D01*
X2408892Y-14178424D01*
X2437463Y-14178424D01*
X2456511Y-14187947D01*
X2466035Y-14206995D01*
X2466035Y-14311757D01*
X2466035Y-14206995D02*
X2475559Y-14187947D01*
X2494606Y-14178424D01*
X2523178Y-14178424D01*
X2542225Y-14187947D01*
X2551749Y-14206995D01*
X2551749Y-14311757D01*
X2646987Y-14311757D02*
X2646987Y-14178424D01*
X2646987Y-14197471D02*
X2656511Y-14187947D01*
X2675559Y-14178424D01*
X2704130Y-14178424D01*
X2723178Y-14187947D01*
X2732701Y-14206995D01*
X2732701Y-14311757D01*
X2732701Y-14206995D02*
X2742225Y-14187947D01*
X2761273Y-14178424D01*
X2789844Y-14178424D01*
X2808892Y-14187947D01*
X2818416Y-14206995D01*
X2818416Y-14311757D01*
X3208892Y-14102233D02*
X3037463Y-14359376D01*
X3466035Y-14111757D02*
X3485082Y-14111757D01*
X3504130Y-14121281D01*
X3513654Y-14130805D01*
X3523177Y-14149852D01*
X3532701Y-14187947D01*
X3532701Y-14235566D01*
X3523177Y-14273662D01*
X3513654Y-14292709D01*
X3504130Y-14302233D01*
X3485082Y-14311757D01*
X3466035Y-14311757D01*
X3446987Y-14302233D01*
X3437463Y-14292709D01*
X3427939Y-14273662D01*
X3418416Y-14235566D01*
X3418416Y-14187947D01*
X3427939Y-14149852D01*
X3437463Y-14130805D01*
X3446987Y-14121281D01*
X3466035Y-14111757D01*
X3618416Y-14292709D02*
X3627939Y-14302233D01*
X3618416Y-14311757D01*
X3608892Y-14302233D01*
X3618416Y-14292709D01*
X3618416Y-14311757D01*
X3751749Y-14111757D02*
X3770796Y-14111757D01*
X3789844Y-14121281D01*
X3799368Y-14130805D01*
X3808892Y-14149852D01*
X3818416Y-14187947D01*
X3818416Y-14235566D01*
X3808892Y-14273662D01*
X3799368Y-14292709D01*
X3789844Y-14302233D01*
X3770796Y-14311757D01*
X3751749Y-14311757D01*
X3732701Y-14302233D01*
X3723177Y-14292709D01*
X3713654Y-14273662D01*
X3704130Y-14235566D01*
X3704130Y-14187947D01*
X3713654Y-14149852D01*
X3723177Y-14130805D01*
X3732701Y-14121281D01*
X3751749Y-14111757D01*
X3989844Y-14111757D02*
X3951749Y-14111757D01*
X3932701Y-14121281D01*
X3923177Y-14130805D01*
X3904130Y-14159376D01*
X3894606Y-14197471D01*
X3894606Y-14273662D01*
X3904130Y-14292709D01*
X3913654Y-14302233D01*
X3932701Y-14311757D01*
X3970796Y-14311757D01*
X3989844Y-14302233D01*
X3999368Y-14292709D01*
X4008892Y-14273662D01*
X4008892Y-14226043D01*
X3999368Y-14206995D01*
X3989844Y-14197471D01*
X3970796Y-14187947D01*
X3932701Y-14187947D01*
X3913654Y-14197471D01*
X3904130Y-14206995D01*
X3894606Y-14226043D01*
X4075558Y-14111757D02*
X4208892Y-14111757D01*
X4123177Y-14311757D01*
X4323178Y-14111757D02*
X4342225Y-14111757D01*
X4361273Y-14121281D01*
X4370797Y-14130805D01*
X4380320Y-14149852D01*
X4389844Y-14187947D01*
X4389844Y-14235566D01*
X4380320Y-14273662D01*
X4370797Y-14292709D01*
X4361273Y-14302233D01*
X4342225Y-14311757D01*
X4323178Y-14311757D01*
X4304130Y-14302233D01*
X4294606Y-14292709D01*
X4285082Y-14273662D01*
X4275558Y-14235566D01*
X4275558Y-14187947D01*
X4285082Y-14149852D01*
X4294606Y-14130805D01*
X4304130Y-14121281D01*
X4323178Y-14111757D01*
X4466035Y-14111757D02*
X4466035Y-14149852D01*
X4542225Y-14111757D02*
X4542225Y-14149852D01*
X4837463Y-14387947D02*
X4827939Y-14378424D01*
X4808892Y-14349852D01*
X4799368Y-14330805D01*
X4789844Y-14302233D01*
X4780320Y-14254614D01*
X4780320Y-14216519D01*
X4789844Y-14168900D01*
X4799368Y-14140328D01*
X4808892Y-14121281D01*
X4827939Y-14092709D01*
X4837463Y-14083185D01*
X4942225Y-14197471D02*
X4923178Y-14187947D01*
X4913654Y-14178424D01*
X4904130Y-14159376D01*
X4904130Y-14149852D01*
X4913654Y-14130805D01*
X4923178Y-14121281D01*
X4942225Y-14111757D01*
X4980320Y-14111757D01*
X4999368Y-14121281D01*
X5008892Y-14130805D01*
X5018416Y-14149852D01*
X5018416Y-14159376D01*
X5008892Y-14178424D01*
X4999368Y-14187947D01*
X4980320Y-14197471D01*
X4942225Y-14197471D01*
X4923178Y-14206995D01*
X4913654Y-14216519D01*
X4904130Y-14235566D01*
X4904130Y-14273662D01*
X4913654Y-14292709D01*
X4923178Y-14302233D01*
X4942225Y-14311757D01*
X4980320Y-14311757D01*
X4999368Y-14302233D01*
X5008892Y-14292709D01*
X5018416Y-14273662D01*
X5018416Y-14235566D01*
X5008892Y-14216519D01*
X4999368Y-14206995D01*
X4980320Y-14197471D01*
X5189844Y-14178424D02*
X5189844Y-14311757D01*
X5142225Y-14102233D02*
X5094606Y-14245090D01*
X5218416Y-14245090D01*
X5446987Y-14311757D02*
X5446987Y-14111757D01*
X5532701Y-14311757D02*
X5532701Y-14206995D01*
X5523178Y-14187947D01*
X5504130Y-14178424D01*
X5475558Y-14178424D01*
X5456511Y-14187947D01*
X5446987Y-14197471D01*
X5656511Y-14311757D02*
X5637463Y-14302233D01*
X5627939Y-14292709D01*
X5618416Y-14273662D01*
X5618416Y-14216519D01*
X5627939Y-14197471D01*
X5637463Y-14187947D01*
X5656511Y-14178424D01*
X5685082Y-14178424D01*
X5704130Y-14187947D01*
X5713654Y-14197471D01*
X5723177Y-14216519D01*
X5723177Y-14273662D01*
X5713654Y-14292709D01*
X5704130Y-14302233D01*
X5685082Y-14311757D01*
X5656511Y-14311757D01*
X5837463Y-14311757D02*
X5818416Y-14302233D01*
X5808892Y-14283185D01*
X5808892Y-14111757D01*
X5989844Y-14302233D02*
X5970796Y-14311757D01*
X5932701Y-14311757D01*
X5913654Y-14302233D01*
X5904130Y-14283185D01*
X5904130Y-14206995D01*
X5913654Y-14187947D01*
X5932701Y-14178424D01*
X5970796Y-14178424D01*
X5989844Y-14187947D01*
X5999368Y-14206995D01*
X5999368Y-14226043D01*
X5904130Y-14245090D01*
X6075558Y-14302233D02*
X6094606Y-14311757D01*
X6132701Y-14311757D01*
X6151749Y-14302233D01*
X6161273Y-14283185D01*
X6161273Y-14273662D01*
X6151749Y-14254614D01*
X6132701Y-14245090D01*
X6104130Y-14245090D01*
X6085082Y-14235566D01*
X6075558Y-14216519D01*
X6075558Y-14206995D01*
X6085082Y-14187947D01*
X6104130Y-14178424D01*
X6132701Y-14178424D01*
X6151749Y-14187947D01*
X6227939Y-14387947D02*
X6237463Y-14378424D01*
X6256511Y-14349852D01*
X6266035Y-14330805D01*
X6275558Y-14302233D01*
X6285082Y-14254614D01*
X6285082Y-14216519D01*
X6275558Y-14168900D01*
X6266035Y-14140328D01*
X6256511Y-14121281D01*
X6237463Y-14092709D01*
X6227939Y-14083185D01*
X6589844Y-14387947D02*
X6580320Y-14378424D01*
X6561273Y-14349852D01*
X6551749Y-14330805D01*
X6542225Y-14302233D01*
X6532701Y-14254614D01*
X6532701Y-14216519D01*
X6542225Y-14168900D01*
X6551749Y-14140328D01*
X6561273Y-14121281D01*
X6580320Y-14092709D01*
X6589844Y-14083185D01*
X6666035Y-14178424D02*
X6666035Y-14311757D01*
X6666035Y-14197471D02*
X6675558Y-14187947D01*
X6694606Y-14178424D01*
X6723177Y-14178424D01*
X6742225Y-14187947D01*
X6751749Y-14206995D01*
X6751749Y-14311757D01*
X6875558Y-14311757D02*
X6856511Y-14302233D01*
X6846987Y-14292709D01*
X6837463Y-14273662D01*
X6837463Y-14216519D01*
X6846987Y-14197471D01*
X6856511Y-14187947D01*
X6875558Y-14178424D01*
X6904130Y-14178424D01*
X6923177Y-14187947D01*
X6932701Y-14197471D01*
X6942225Y-14216519D01*
X6942225Y-14273662D01*
X6932701Y-14292709D01*
X6923177Y-14302233D01*
X6904130Y-14311757D01*
X6875558Y-14311757D01*
X6999368Y-14178424D02*
X7075558Y-14178424D01*
X7027939Y-14111757D02*
X7027939Y-14283185D01*
X7037463Y-14302233D01*
X7056511Y-14311757D01*
X7075558Y-14311757D01*
X7294606Y-14178424D02*
X7294606Y-14378424D01*
X7294606Y-14187947D02*
X7313654Y-14178424D01*
X7351749Y-14178424D01*
X7370796Y-14187947D01*
X7380320Y-14197471D01*
X7389844Y-14216519D01*
X7389844Y-14273662D01*
X7380320Y-14292709D01*
X7370796Y-14302233D01*
X7351749Y-14311757D01*
X7313654Y-14311757D01*
X7294606Y-14302233D01*
X7504130Y-14311757D02*
X7485082Y-14302233D01*
X7475558Y-14283185D01*
X7475558Y-14111757D01*
X7666035Y-14311757D02*
X7666035Y-14206995D01*
X7656511Y-14187947D01*
X7637463Y-14178424D01*
X7599368Y-14178424D01*
X7580320Y-14187947D01*
X7666035Y-14302233D02*
X7646987Y-14311757D01*
X7599368Y-14311757D01*
X7580320Y-14302233D01*
X7570796Y-14283185D01*
X7570796Y-14264138D01*
X7580320Y-14245090D01*
X7599368Y-14235566D01*
X7646987Y-14235566D01*
X7666035Y-14226043D01*
X7732701Y-14178424D02*
X7808892Y-14178424D01*
X7761273Y-14111757D02*
X7761273Y-14283185D01*
X7770796Y-14302233D01*
X7789844Y-14311757D01*
X7808892Y-14311757D01*
X7951749Y-14302233D02*
X7932701Y-14311757D01*
X7894606Y-14311757D01*
X7875558Y-14302233D01*
X7866035Y-14283185D01*
X7866035Y-14206995D01*
X7875558Y-14187947D01*
X7894606Y-14178424D01*
X7932701Y-14178424D01*
X7951749Y-14187947D01*
X7961273Y-14206995D01*
X7961273Y-14226043D01*
X7866035Y-14245090D01*
X8132701Y-14311757D02*
X8132701Y-14111757D01*
X8132701Y-14302233D02*
X8113654Y-14311757D01*
X8075558Y-14311757D01*
X8056511Y-14302233D01*
X8046987Y-14292709D01*
X8037463Y-14273662D01*
X8037463Y-14216519D01*
X8046987Y-14197471D01*
X8056511Y-14187947D01*
X8075558Y-14178424D01*
X8113654Y-14178424D01*
X8132701Y-14187947D01*
X8208892Y-14387947D02*
X8218416Y-14378424D01*
X8237463Y-14349852D01*
X8246987Y-14330805D01*
X8256511Y-14302233D01*
X8266035Y-14254614D01*
X8266035Y-14216519D01*
X8256511Y-14168900D01*
X8246987Y-14140328D01*
X8237463Y-14121281D01*
X8218416Y-14092709D01*
X8208892Y-14083185D01*
X1165559Y-14611461D02*
X1265559Y-14511461D01*
X1165559Y-14411461D01*
X1065559Y-14511461D01*
X1165559Y-14611461D01*
X1513654Y-14420985D02*
X1523177Y-14411461D01*
X1542225Y-14401937D01*
X1589844Y-14401937D01*
X1608892Y-14411461D01*
X1618416Y-14420985D01*
X1627939Y-14440032D01*
X1627939Y-14459080D01*
X1618416Y-14487651D01*
X1504130Y-14601937D01*
X1627939Y-14601937D01*
X1713654Y-14582889D02*
X1723177Y-14592413D01*
X1713654Y-14601937D01*
X1704130Y-14592413D01*
X1713654Y-14582889D01*
X1713654Y-14601937D01*
X1789844Y-14401937D02*
X1913654Y-14401937D01*
X1846987Y-14478127D01*
X1875558Y-14478127D01*
X1894606Y-14487651D01*
X1904130Y-14497175D01*
X1913654Y-14516223D01*
X1913654Y-14563842D01*
X1904130Y-14582889D01*
X1894606Y-14592413D01*
X1875558Y-14601937D01*
X1818416Y-14601937D01*
X1799368Y-14592413D01*
X1789844Y-14582889D01*
X2037463Y-14401937D02*
X2056511Y-14401937D01*
X2075558Y-14411461D01*
X2085082Y-14420985D01*
X2094606Y-14440032D01*
X2104130Y-14478127D01*
X2104130Y-14525746D01*
X2094606Y-14563842D01*
X2085082Y-14582889D01*
X2075558Y-14592413D01*
X2056511Y-14601937D01*
X2037463Y-14601937D01*
X2018416Y-14592413D01*
X2008892Y-14582889D01*
X1999368Y-14563842D01*
X1989844Y-14525746D01*
X1989844Y-14478127D01*
X1999368Y-14440032D01*
X2008892Y-14420985D01*
X2018416Y-14411461D01*
X2037463Y-14401937D01*
X2227939Y-14401937D02*
X2246987Y-14401937D01*
X2266035Y-14411461D01*
X2275559Y-14420985D01*
X2285082Y-14440032D01*
X2294606Y-14478127D01*
X2294606Y-14525746D01*
X2285082Y-14563842D01*
X2275559Y-14582889D01*
X2266035Y-14592413D01*
X2246987Y-14601937D01*
X2227939Y-14601937D01*
X2208892Y-14592413D01*
X2199368Y-14582889D01*
X2189844Y-14563842D01*
X2180320Y-14525746D01*
X2180320Y-14478127D01*
X2189844Y-14440032D01*
X2199368Y-14420985D01*
X2208892Y-14411461D01*
X2227939Y-14401937D01*
X2380320Y-14601937D02*
X2380320Y-14468604D01*
X2380320Y-14487651D02*
X2389844Y-14478127D01*
X2408892Y-14468604D01*
X2437463Y-14468604D01*
X2456511Y-14478127D01*
X2466035Y-14497175D01*
X2466035Y-14601937D01*
X2466035Y-14497175D02*
X2475559Y-14478127D01*
X2494606Y-14468604D01*
X2523178Y-14468604D01*
X2542225Y-14478127D01*
X2551749Y-14497175D01*
X2551749Y-14601937D01*
X2646987Y-14601937D02*
X2646987Y-14468604D01*
X2646987Y-14487651D02*
X2656511Y-14478127D01*
X2675559Y-14468604D01*
X2704130Y-14468604D01*
X2723178Y-14478127D01*
X2732701Y-14497175D01*
X2732701Y-14601937D01*
X2732701Y-14497175D02*
X2742225Y-14478127D01*
X2761273Y-14468604D01*
X2789844Y-14468604D01*
X2808892Y-14478127D01*
X2818416Y-14497175D01*
X2818416Y-14601937D01*
X3208892Y-14392413D02*
X3037463Y-14649556D01*
X3466035Y-14401937D02*
X3485082Y-14401937D01*
X3504130Y-14411461D01*
X3513654Y-14420985D01*
X3523177Y-14440032D01*
X3532701Y-14478127D01*
X3532701Y-14525746D01*
X3523177Y-14563842D01*
X3513654Y-14582889D01*
X3504130Y-14592413D01*
X3485082Y-14601937D01*
X3466035Y-14601937D01*
X3446987Y-14592413D01*
X3437463Y-14582889D01*
X3427939Y-14563842D01*
X3418416Y-14525746D01*
X3418416Y-14478127D01*
X3427939Y-14440032D01*
X3437463Y-14420985D01*
X3446987Y-14411461D01*
X3466035Y-14401937D01*
X3618416Y-14582889D02*
X3627939Y-14592413D01*
X3618416Y-14601937D01*
X3608892Y-14592413D01*
X3618416Y-14582889D01*
X3618416Y-14601937D01*
X3751749Y-14401937D02*
X3770796Y-14401937D01*
X3789844Y-14411461D01*
X3799368Y-14420985D01*
X3808892Y-14440032D01*
X3818416Y-14478127D01*
X3818416Y-14525746D01*
X3808892Y-14563842D01*
X3799368Y-14582889D01*
X3789844Y-14592413D01*
X3770796Y-14601937D01*
X3751749Y-14601937D01*
X3732701Y-14592413D01*
X3723177Y-14582889D01*
X3713654Y-14563842D01*
X3704130Y-14525746D01*
X3704130Y-14478127D01*
X3713654Y-14440032D01*
X3723177Y-14420985D01*
X3732701Y-14411461D01*
X3751749Y-14401937D01*
X3913654Y-14601937D02*
X3951749Y-14601937D01*
X3970796Y-14592413D01*
X3980320Y-14582889D01*
X3999368Y-14554318D01*
X4008892Y-14516223D01*
X4008892Y-14440032D01*
X3999368Y-14420985D01*
X3989844Y-14411461D01*
X3970796Y-14401937D01*
X3932701Y-14401937D01*
X3913654Y-14411461D01*
X3904130Y-14420985D01*
X3894606Y-14440032D01*
X3894606Y-14487651D01*
X3904130Y-14506699D01*
X3913654Y-14516223D01*
X3932701Y-14525746D01*
X3970796Y-14525746D01*
X3989844Y-14516223D01*
X3999368Y-14506699D01*
X4008892Y-14487651D01*
X4132701Y-14401937D02*
X4151749Y-14401937D01*
X4170796Y-14411461D01*
X4180320Y-14420985D01*
X4189844Y-14440032D01*
X4199368Y-14478127D01*
X4199368Y-14525746D01*
X4189844Y-14563842D01*
X4180320Y-14582889D01*
X4170796Y-14592413D01*
X4151749Y-14601937D01*
X4132701Y-14601937D01*
X4113654Y-14592413D01*
X4104130Y-14582889D01*
X4094606Y-14563842D01*
X4085082Y-14525746D01*
X4085082Y-14478127D01*
X4094606Y-14440032D01*
X4104130Y-14420985D01*
X4113654Y-14411461D01*
X4132701Y-14401937D01*
X4370797Y-14401937D02*
X4332701Y-14401937D01*
X4313654Y-14411461D01*
X4304130Y-14420985D01*
X4285082Y-14449556D01*
X4275558Y-14487651D01*
X4275558Y-14563842D01*
X4285082Y-14582889D01*
X4294606Y-14592413D01*
X4313654Y-14601937D01*
X4351749Y-14601937D01*
X4370797Y-14592413D01*
X4380320Y-14582889D01*
X4389844Y-14563842D01*
X4389844Y-14516223D01*
X4380320Y-14497175D01*
X4370797Y-14487651D01*
X4351749Y-14478127D01*
X4313654Y-14478127D01*
X4294606Y-14487651D01*
X4285082Y-14497175D01*
X4275558Y-14516223D01*
X4466035Y-14401937D02*
X4466035Y-14440032D01*
X4542225Y-14401937D02*
X4542225Y-14440032D01*
X4837463Y-14678127D02*
X4827939Y-14668604D01*
X4808892Y-14640032D01*
X4799368Y-14620985D01*
X4789844Y-14592413D01*
X4780320Y-14544794D01*
X4780320Y-14506699D01*
X4789844Y-14459080D01*
X4799368Y-14430508D01*
X4808892Y-14411461D01*
X4827939Y-14382889D01*
X4837463Y-14373365D01*
X4999368Y-14468604D02*
X4999368Y-14601937D01*
X4951749Y-14392413D02*
X4904130Y-14535270D01*
X5027939Y-14535270D01*
X5256511Y-14601937D02*
X5256511Y-14401937D01*
X5342225Y-14601937D02*
X5342225Y-14497175D01*
X5332701Y-14478127D01*
X5313654Y-14468604D01*
X5285082Y-14468604D01*
X5266035Y-14478127D01*
X5256511Y-14487651D01*
X5466035Y-14601937D02*
X5446987Y-14592413D01*
X5437463Y-14582889D01*
X5427939Y-14563842D01*
X5427939Y-14506699D01*
X5437463Y-14487651D01*
X5446987Y-14478127D01*
X5466035Y-14468604D01*
X5494606Y-14468604D01*
X5513654Y-14478127D01*
X5523178Y-14487651D01*
X5532701Y-14506699D01*
X5532701Y-14563842D01*
X5523178Y-14582889D01*
X5513654Y-14592413D01*
X5494606Y-14601937D01*
X5466035Y-14601937D01*
X5646987Y-14601937D02*
X5627939Y-14592413D01*
X5618416Y-14573365D01*
X5618416Y-14401937D01*
X5799368Y-14592413D02*
X5780320Y-14601937D01*
X5742225Y-14601937D01*
X5723177Y-14592413D01*
X5713654Y-14573365D01*
X5713654Y-14497175D01*
X5723177Y-14478127D01*
X5742225Y-14468604D01*
X5780320Y-14468604D01*
X5799368Y-14478127D01*
X5808892Y-14497175D01*
X5808892Y-14516223D01*
X5713654Y-14535270D01*
X5885082Y-14592413D02*
X5904130Y-14601937D01*
X5942225Y-14601937D01*
X5961273Y-14592413D01*
X5970796Y-14573365D01*
X5970796Y-14563842D01*
X5961273Y-14544794D01*
X5942225Y-14535270D01*
X5913654Y-14535270D01*
X5894606Y-14525746D01*
X5885082Y-14506699D01*
X5885082Y-14497175D01*
X5894606Y-14478127D01*
X5913654Y-14468604D01*
X5942225Y-14468604D01*
X5961273Y-14478127D01*
X6037463Y-14678127D02*
X6046987Y-14668604D01*
X6066035Y-14640032D01*
X6075558Y-14620985D01*
X6085082Y-14592413D01*
X6094606Y-14544794D01*
X6094606Y-14506699D01*
X6085082Y-14459080D01*
X6075558Y-14430508D01*
X6066035Y-14411461D01*
X6046987Y-14382889D01*
X6037463Y-14373365D01*
X6399368Y-14678127D02*
X6389844Y-14668604D01*
X6370796Y-14640032D01*
X6361273Y-14620985D01*
X6351749Y-14592413D01*
X6342225Y-14544794D01*
X6342225Y-14506699D01*
X6351749Y-14459080D01*
X6361273Y-14430508D01*
X6370796Y-14411461D01*
X6389844Y-14382889D01*
X6399368Y-14373365D01*
X6475558Y-14468604D02*
X6475558Y-14601937D01*
X6475558Y-14487651D02*
X6485082Y-14478127D01*
X6504130Y-14468604D01*
X6532701Y-14468604D01*
X6551749Y-14478127D01*
X6561273Y-14497175D01*
X6561273Y-14601937D01*
X6685082Y-14601937D02*
X6666035Y-14592413D01*
X6656511Y-14582889D01*
X6646987Y-14563842D01*
X6646987Y-14506699D01*
X6656511Y-14487651D01*
X6666035Y-14478127D01*
X6685082Y-14468604D01*
X6713654Y-14468604D01*
X6732701Y-14478127D01*
X6742225Y-14487651D01*
X6751749Y-14506699D01*
X6751749Y-14563842D01*
X6742225Y-14582889D01*
X6732701Y-14592413D01*
X6713654Y-14601937D01*
X6685082Y-14601937D01*
X6808892Y-14468604D02*
X6885082Y-14468604D01*
X6837463Y-14401937D02*
X6837463Y-14573365D01*
X6846987Y-14592413D01*
X6866035Y-14601937D01*
X6885082Y-14601937D01*
X7104130Y-14468604D02*
X7104130Y-14668604D01*
X7104130Y-14478127D02*
X7123177Y-14468604D01*
X7161273Y-14468604D01*
X7180320Y-14478127D01*
X7189844Y-14487651D01*
X7199368Y-14506699D01*
X7199368Y-14563842D01*
X7189844Y-14582889D01*
X7180320Y-14592413D01*
X7161273Y-14601937D01*
X7123177Y-14601937D01*
X7104130Y-14592413D01*
X7313654Y-14601937D02*
X7294606Y-14592413D01*
X7285082Y-14573365D01*
X7285082Y-14401937D01*
X7475558Y-14601937D02*
X7475558Y-14497175D01*
X7466035Y-14478127D01*
X7446987Y-14468604D01*
X7408892Y-14468604D01*
X7389844Y-14478127D01*
X7475558Y-14592413D02*
X7456511Y-14601937D01*
X7408892Y-14601937D01*
X7389844Y-14592413D01*
X7380320Y-14573365D01*
X7380320Y-14554318D01*
X7389844Y-14535270D01*
X7408892Y-14525746D01*
X7456511Y-14525746D01*
X7475558Y-14516223D01*
X7542225Y-14468604D02*
X7618416Y-14468604D01*
X7570796Y-14401937D02*
X7570796Y-14573365D01*
X7580320Y-14592413D01*
X7599368Y-14601937D01*
X7618416Y-14601937D01*
X7761273Y-14592413D02*
X7742225Y-14601937D01*
X7704130Y-14601937D01*
X7685082Y-14592413D01*
X7675558Y-14573365D01*
X7675558Y-14497175D01*
X7685082Y-14478127D01*
X7704130Y-14468604D01*
X7742225Y-14468604D01*
X7761273Y-14478127D01*
X7770796Y-14497175D01*
X7770796Y-14516223D01*
X7675558Y-14535270D01*
X7942225Y-14601937D02*
X7942225Y-14401937D01*
X7942225Y-14592413D02*
X7923177Y-14601937D01*
X7885082Y-14601937D01*
X7866035Y-14592413D01*
X7856511Y-14582889D01*
X7846987Y-14563842D01*
X7846987Y-14506699D01*
X7856511Y-14487651D01*
X7866035Y-14478127D01*
X7885082Y-14468604D01*
X7923177Y-14468604D01*
X7942225Y-14478127D01*
X8018416Y-14678127D02*
X8027939Y-14668604D01*
X8046987Y-14640032D01*
X8056511Y-14620985D01*
X8066035Y-14592413D01*
X8075558Y-14544794D01*
X8075558Y-14506699D01*
X8066035Y-14459080D01*
X8056511Y-14430508D01*
X8046987Y-14411461D01*
X8027939Y-14382889D01*
X8018416Y-14373365D01*
X1065559Y-14731461D02*
X1265559Y-14931461D01*
X1265559Y-14731461D02*
X1065559Y-14931461D01*
X1265559Y-14831461D02*
G75*
G03*
X1265559Y-14831461I-100000J0D01*
G01*
X1608892Y-14788604D02*
X1608892Y-14921937D01*
X1561273Y-14712413D02*
X1513654Y-14855270D01*
X1637463Y-14855270D01*
X1713654Y-14902889D02*
X1723177Y-14912413D01*
X1713654Y-14921937D01*
X1704130Y-14912413D01*
X1713654Y-14902889D01*
X1713654Y-14921937D01*
X1789844Y-14721937D02*
X1913654Y-14721937D01*
X1846987Y-14798127D01*
X1875558Y-14798127D01*
X1894606Y-14807651D01*
X1904130Y-14817175D01*
X1913654Y-14836223D01*
X1913654Y-14883842D01*
X1904130Y-14902889D01*
X1894606Y-14912413D01*
X1875558Y-14921937D01*
X1818416Y-14921937D01*
X1799368Y-14912413D01*
X1789844Y-14902889D01*
X2037463Y-14721937D02*
X2056511Y-14721937D01*
X2075558Y-14731461D01*
X2085082Y-14740985D01*
X2094606Y-14760032D01*
X2104130Y-14798127D01*
X2104130Y-14845746D01*
X2094606Y-14883842D01*
X2085082Y-14902889D01*
X2075558Y-14912413D01*
X2056511Y-14921937D01*
X2037463Y-14921937D01*
X2018416Y-14912413D01*
X2008892Y-14902889D01*
X1999368Y-14883842D01*
X1989844Y-14845746D01*
X1989844Y-14798127D01*
X1999368Y-14760032D01*
X2008892Y-14740985D01*
X2018416Y-14731461D01*
X2037463Y-14721937D01*
X2227939Y-14721937D02*
X2246987Y-14721937D01*
X2266035Y-14731461D01*
X2275559Y-14740985D01*
X2285082Y-14760032D01*
X2294606Y-14798127D01*
X2294606Y-14845746D01*
X2285082Y-14883842D01*
X2275559Y-14902889D01*
X2266035Y-14912413D01*
X2246987Y-14921937D01*
X2227939Y-14921937D01*
X2208892Y-14912413D01*
X2199368Y-14902889D01*
X2189844Y-14883842D01*
X2180320Y-14845746D01*
X2180320Y-14798127D01*
X2189844Y-14760032D01*
X2199368Y-14740985D01*
X2208892Y-14731461D01*
X2227939Y-14721937D01*
X2380320Y-14921937D02*
X2380320Y-14788604D01*
X2380320Y-14807651D02*
X2389844Y-14798127D01*
X2408892Y-14788604D01*
X2437463Y-14788604D01*
X2456511Y-14798127D01*
X2466035Y-14817175D01*
X2466035Y-14921937D01*
X2466035Y-14817175D02*
X2475559Y-14798127D01*
X2494606Y-14788604D01*
X2523178Y-14788604D01*
X2542225Y-14798127D01*
X2551749Y-14817175D01*
X2551749Y-14921937D01*
X2646987Y-14921937D02*
X2646987Y-14788604D01*
X2646987Y-14807651D02*
X2656511Y-14798127D01*
X2675559Y-14788604D01*
X2704130Y-14788604D01*
X2723178Y-14798127D01*
X2732701Y-14817175D01*
X2732701Y-14921937D01*
X2732701Y-14817175D02*
X2742225Y-14798127D01*
X2761273Y-14788604D01*
X2789844Y-14788604D01*
X2808892Y-14798127D01*
X2818416Y-14817175D01*
X2818416Y-14921937D01*
X3208892Y-14712413D02*
X3037463Y-14969556D01*
X3466035Y-14721937D02*
X3485082Y-14721937D01*
X3504130Y-14731461D01*
X3513654Y-14740985D01*
X3523177Y-14760032D01*
X3532701Y-14798127D01*
X3532701Y-14845746D01*
X3523177Y-14883842D01*
X3513654Y-14902889D01*
X3504130Y-14912413D01*
X3485082Y-14921937D01*
X3466035Y-14921937D01*
X3446987Y-14912413D01*
X3437463Y-14902889D01*
X3427939Y-14883842D01*
X3418416Y-14845746D01*
X3418416Y-14798127D01*
X3427939Y-14760032D01*
X3437463Y-14740985D01*
X3446987Y-14731461D01*
X3466035Y-14721937D01*
X3618416Y-14902889D02*
X3627939Y-14912413D01*
X3618416Y-14921937D01*
X3608892Y-14912413D01*
X3618416Y-14902889D01*
X3618416Y-14921937D01*
X3818416Y-14921937D02*
X3704130Y-14921937D01*
X3761273Y-14921937D02*
X3761273Y-14721937D01*
X3742225Y-14750508D01*
X3723177Y-14769556D01*
X3704130Y-14779080D01*
X3989844Y-14721937D02*
X3951749Y-14721937D01*
X3932701Y-14731461D01*
X3923177Y-14740985D01*
X3904130Y-14769556D01*
X3894606Y-14807651D01*
X3894606Y-14883842D01*
X3904130Y-14902889D01*
X3913654Y-14912413D01*
X3932701Y-14921937D01*
X3970796Y-14921937D01*
X3989844Y-14912413D01*
X3999368Y-14902889D01*
X4008892Y-14883842D01*
X4008892Y-14836223D01*
X3999368Y-14817175D01*
X3989844Y-14807651D01*
X3970796Y-14798127D01*
X3932701Y-14798127D01*
X3913654Y-14807651D01*
X3904130Y-14817175D01*
X3894606Y-14836223D01*
X4104130Y-14921937D02*
X4142225Y-14921937D01*
X4161273Y-14912413D01*
X4170796Y-14902889D01*
X4189844Y-14874318D01*
X4199368Y-14836223D01*
X4199368Y-14760032D01*
X4189844Y-14740985D01*
X4180320Y-14731461D01*
X4161273Y-14721937D01*
X4123177Y-14721937D01*
X4104130Y-14731461D01*
X4094606Y-14740985D01*
X4085082Y-14760032D01*
X4085082Y-14807651D01*
X4094606Y-14826699D01*
X4104130Y-14836223D01*
X4123177Y-14845746D01*
X4161273Y-14845746D01*
X4180320Y-14836223D01*
X4189844Y-14826699D01*
X4199368Y-14807651D01*
X4266035Y-14721937D02*
X4389844Y-14721937D01*
X4323178Y-14798127D01*
X4351749Y-14798127D01*
X4370797Y-14807651D01*
X4380320Y-14817175D01*
X4389844Y-14836223D01*
X4389844Y-14883842D01*
X4380320Y-14902889D01*
X4370797Y-14912413D01*
X4351749Y-14921937D01*
X4294606Y-14921937D01*
X4275558Y-14912413D01*
X4266035Y-14902889D01*
X4466035Y-14721937D02*
X4466035Y-14760032D01*
X4542225Y-14721937D02*
X4542225Y-14760032D01*
X4837463Y-14998127D02*
X4827939Y-14988604D01*
X4808892Y-14960032D01*
X4799368Y-14940985D01*
X4789844Y-14912413D01*
X4780320Y-14864794D01*
X4780320Y-14826699D01*
X4789844Y-14779080D01*
X4799368Y-14750508D01*
X4808892Y-14731461D01*
X4827939Y-14702889D01*
X4837463Y-14693365D01*
X5018416Y-14921937D02*
X4904130Y-14921937D01*
X4961273Y-14921937D02*
X4961273Y-14721937D01*
X4942225Y-14750508D01*
X4923178Y-14769556D01*
X4904130Y-14779080D01*
X5189844Y-14788604D02*
X5189844Y-14921937D01*
X5142225Y-14712413D02*
X5094606Y-14855270D01*
X5218416Y-14855270D01*
X5446987Y-14921937D02*
X5446987Y-14721937D01*
X5532701Y-14921937D02*
X5532701Y-14817175D01*
X5523178Y-14798127D01*
X5504130Y-14788604D01*
X5475558Y-14788604D01*
X5456511Y-14798127D01*
X5446987Y-14807651D01*
X5656511Y-14921937D02*
X5637463Y-14912413D01*
X5627939Y-14902889D01*
X5618416Y-14883842D01*
X5618416Y-14826699D01*
X5627939Y-14807651D01*
X5637463Y-14798127D01*
X5656511Y-14788604D01*
X5685082Y-14788604D01*
X5704130Y-14798127D01*
X5713654Y-14807651D01*
X5723177Y-14826699D01*
X5723177Y-14883842D01*
X5713654Y-14902889D01*
X5704130Y-14912413D01*
X5685082Y-14921937D01*
X5656511Y-14921937D01*
X5837463Y-14921937D02*
X5818416Y-14912413D01*
X5808892Y-14893365D01*
X5808892Y-14721937D01*
X5989844Y-14912413D02*
X5970796Y-14921937D01*
X5932701Y-14921937D01*
X5913654Y-14912413D01*
X5904130Y-14893365D01*
X5904130Y-14817175D01*
X5913654Y-14798127D01*
X5932701Y-14788604D01*
X5970796Y-14788604D01*
X5989844Y-14798127D01*
X5999368Y-14817175D01*
X5999368Y-14836223D01*
X5904130Y-14855270D01*
X6075558Y-14912413D02*
X6094606Y-14921937D01*
X6132701Y-14921937D01*
X6151749Y-14912413D01*
X6161273Y-14893365D01*
X6161273Y-14883842D01*
X6151749Y-14864794D01*
X6132701Y-14855270D01*
X6104130Y-14855270D01*
X6085082Y-14845746D01*
X6075558Y-14826699D01*
X6075558Y-14817175D01*
X6085082Y-14798127D01*
X6104130Y-14788604D01*
X6132701Y-14788604D01*
X6151749Y-14798127D01*
X6227939Y-14998127D02*
X6237463Y-14988604D01*
X6256511Y-14960032D01*
X6266035Y-14940985D01*
X6275558Y-14912413D01*
X6285082Y-14864794D01*
X6285082Y-14826699D01*
X6275558Y-14779080D01*
X6266035Y-14750508D01*
X6256511Y-14731461D01*
X6237463Y-14702889D01*
X6227939Y-14693365D01*
X6589844Y-14998127D02*
X6580320Y-14988604D01*
X6561273Y-14960032D01*
X6551749Y-14940985D01*
X6542225Y-14912413D01*
X6532701Y-14864794D01*
X6532701Y-14826699D01*
X6542225Y-14779080D01*
X6551749Y-14750508D01*
X6561273Y-14731461D01*
X6580320Y-14702889D01*
X6589844Y-14693365D01*
X6666035Y-14788604D02*
X6666035Y-14921937D01*
X6666035Y-14807651D02*
X6675558Y-14798127D01*
X6694606Y-14788604D01*
X6723177Y-14788604D01*
X6742225Y-14798127D01*
X6751749Y-14817175D01*
X6751749Y-14921937D01*
X6875558Y-14921937D02*
X6856511Y-14912413D01*
X6846987Y-14902889D01*
X6837463Y-14883842D01*
X6837463Y-14826699D01*
X6846987Y-14807651D01*
X6856511Y-14798127D01*
X6875558Y-14788604D01*
X6904130Y-14788604D01*
X6923177Y-14798127D01*
X6932701Y-14807651D01*
X6942225Y-14826699D01*
X6942225Y-14883842D01*
X6932701Y-14902889D01*
X6923177Y-14912413D01*
X6904130Y-14921937D01*
X6875558Y-14921937D01*
X6999368Y-14788604D02*
X7075558Y-14788604D01*
X7027939Y-14721937D02*
X7027939Y-14893365D01*
X7037463Y-14912413D01*
X7056511Y-14921937D01*
X7075558Y-14921937D01*
X7294606Y-14788604D02*
X7294606Y-14988604D01*
X7294606Y-14798127D02*
X7313654Y-14788604D01*
X7351749Y-14788604D01*
X7370796Y-14798127D01*
X7380320Y-14807651D01*
X7389844Y-14826699D01*
X7389844Y-14883842D01*
X7380320Y-14902889D01*
X7370796Y-14912413D01*
X7351749Y-14921937D01*
X7313654Y-14921937D01*
X7294606Y-14912413D01*
X7504130Y-14921937D02*
X7485082Y-14912413D01*
X7475558Y-14893365D01*
X7475558Y-14721937D01*
X7666035Y-14921937D02*
X7666035Y-14817175D01*
X7656511Y-14798127D01*
X7637463Y-14788604D01*
X7599368Y-14788604D01*
X7580320Y-14798127D01*
X7666035Y-14912413D02*
X7646987Y-14921937D01*
X7599368Y-14921937D01*
X7580320Y-14912413D01*
X7570796Y-14893365D01*
X7570796Y-14874318D01*
X7580320Y-14855270D01*
X7599368Y-14845746D01*
X7646987Y-14845746D01*
X7666035Y-14836223D01*
X7732701Y-14788604D02*
X7808892Y-14788604D01*
X7761273Y-14721937D02*
X7761273Y-14893365D01*
X7770796Y-14912413D01*
X7789844Y-14921937D01*
X7808892Y-14921937D01*
X7951749Y-14912413D02*
X7932701Y-14921937D01*
X7894606Y-14921937D01*
X7875558Y-14912413D01*
X7866035Y-14893365D01*
X7866035Y-14817175D01*
X7875558Y-14798127D01*
X7894606Y-14788604D01*
X7932701Y-14788604D01*
X7951749Y-14798127D01*
X7961273Y-14817175D01*
X7961273Y-14836223D01*
X7866035Y-14855270D01*
X8132701Y-14921937D02*
X8132701Y-14721937D01*
X8132701Y-14912413D02*
X8113654Y-14921937D01*
X8075558Y-14921937D01*
X8056511Y-14912413D01*
X8046987Y-14902889D01*
X8037463Y-14883842D01*
X8037463Y-14826699D01*
X8046987Y-14807651D01*
X8056511Y-14798127D01*
X8075558Y-14788604D01*
X8113654Y-14788604D01*
X8132701Y-14798127D01*
X8208892Y-14998127D02*
X8218416Y-14988604D01*
X8237463Y-14960032D01*
X8246987Y-14940985D01*
X8256511Y-14912413D01*
X8266035Y-14864794D01*
X8266035Y-14826699D01*
X8256511Y-14779080D01*
X8246987Y-14750508D01*
X8237463Y-14731461D01*
X8218416Y-14702889D01*
X8208892Y-14693365D01*
X1065559Y-15051461D02*
X1265559Y-15251461D01*
X1265559Y-15051461D02*
X1065559Y-15251461D01*
X1165559Y-15051461D02*
X1165559Y-15251461D01*
X1065559Y-15151461D02*
X1265559Y-15151461D01*
X1618416Y-15041937D02*
X1523177Y-15041937D01*
X1513654Y-15137175D01*
X1523177Y-15127651D01*
X1542225Y-15118127D01*
X1589844Y-15118127D01*
X1608892Y-15127651D01*
X1618416Y-15137175D01*
X1627939Y-15156223D01*
X1627939Y-15203842D01*
X1618416Y-15222889D01*
X1608892Y-15232413D01*
X1589844Y-15241937D01*
X1542225Y-15241937D01*
X1523177Y-15232413D01*
X1513654Y-15222889D01*
X1713654Y-15222889D02*
X1723177Y-15232413D01*
X1713654Y-15241937D01*
X1704130Y-15232413D01*
X1713654Y-15222889D01*
X1713654Y-15241937D01*
X1846987Y-15041937D02*
X1866035Y-15041937D01*
X1885082Y-15051461D01*
X1894606Y-15060985D01*
X1904130Y-15080032D01*
X1913654Y-15118127D01*
X1913654Y-15165746D01*
X1904130Y-15203842D01*
X1894606Y-15222889D01*
X1885082Y-15232413D01*
X1866035Y-15241937D01*
X1846987Y-15241937D01*
X1827939Y-15232413D01*
X1818416Y-15222889D01*
X1808892Y-15203842D01*
X1799368Y-15165746D01*
X1799368Y-15118127D01*
X1808892Y-15080032D01*
X1818416Y-15060985D01*
X1827939Y-15051461D01*
X1846987Y-15041937D01*
X2037463Y-15041937D02*
X2056511Y-15041937D01*
X2075558Y-15051461D01*
X2085082Y-15060985D01*
X2094606Y-15080032D01*
X2104130Y-15118127D01*
X2104130Y-15165746D01*
X2094606Y-15203842D01*
X2085082Y-15222889D01*
X2075558Y-15232413D01*
X2056511Y-15241937D01*
X2037463Y-15241937D01*
X2018416Y-15232413D01*
X2008892Y-15222889D01*
X1999368Y-15203842D01*
X1989844Y-15165746D01*
X1989844Y-15118127D01*
X1999368Y-15080032D01*
X2008892Y-15060985D01*
X2018416Y-15051461D01*
X2037463Y-15041937D01*
X2227939Y-15041937D02*
X2246987Y-15041937D01*
X2266035Y-15051461D01*
X2275559Y-15060985D01*
X2285082Y-15080032D01*
X2294606Y-15118127D01*
X2294606Y-15165746D01*
X2285082Y-15203842D01*
X2275559Y-15222889D01*
X2266035Y-15232413D01*
X2246987Y-15241937D01*
X2227939Y-15241937D01*
X2208892Y-15232413D01*
X2199368Y-15222889D01*
X2189844Y-15203842D01*
X2180320Y-15165746D01*
X2180320Y-15118127D01*
X2189844Y-15080032D01*
X2199368Y-15060985D01*
X2208892Y-15051461D01*
X2227939Y-15041937D01*
X2380320Y-15241937D02*
X2380320Y-15108604D01*
X2380320Y-15127651D02*
X2389844Y-15118127D01*
X2408892Y-15108604D01*
X2437463Y-15108604D01*
X2456511Y-15118127D01*
X2466035Y-15137175D01*
X2466035Y-15241937D01*
X2466035Y-15137175D02*
X2475559Y-15118127D01*
X2494606Y-15108604D01*
X2523178Y-15108604D01*
X2542225Y-15118127D01*
X2551749Y-15137175D01*
X2551749Y-15241937D01*
X2646987Y-15241937D02*
X2646987Y-15108604D01*
X2646987Y-15127651D02*
X2656511Y-15118127D01*
X2675559Y-15108604D01*
X2704130Y-15108604D01*
X2723178Y-15118127D01*
X2732701Y-15137175D01*
X2732701Y-15241937D01*
X2732701Y-15137175D02*
X2742225Y-15118127D01*
X2761273Y-15108604D01*
X2789844Y-15108604D01*
X2808892Y-15118127D01*
X2818416Y-15137175D01*
X2818416Y-15241937D01*
X3208892Y-15032413D02*
X3037463Y-15289556D01*
X3466035Y-15041937D02*
X3485082Y-15041937D01*
X3504130Y-15051461D01*
X3513654Y-15060985D01*
X3523177Y-15080032D01*
X3532701Y-15118127D01*
X3532701Y-15165746D01*
X3523177Y-15203842D01*
X3513654Y-15222889D01*
X3504130Y-15232413D01*
X3485082Y-15241937D01*
X3466035Y-15241937D01*
X3446987Y-15232413D01*
X3437463Y-15222889D01*
X3427939Y-15203842D01*
X3418416Y-15165746D01*
X3418416Y-15118127D01*
X3427939Y-15080032D01*
X3437463Y-15060985D01*
X3446987Y-15051461D01*
X3466035Y-15041937D01*
X3618416Y-15222889D02*
X3627939Y-15232413D01*
X3618416Y-15241937D01*
X3608892Y-15232413D01*
X3618416Y-15222889D01*
X3618416Y-15241937D01*
X3818416Y-15241937D02*
X3704130Y-15241937D01*
X3761273Y-15241937D02*
X3761273Y-15041937D01*
X3742225Y-15070508D01*
X3723177Y-15089556D01*
X3704130Y-15099080D01*
X3913654Y-15241937D02*
X3951749Y-15241937D01*
X3970796Y-15232413D01*
X3980320Y-15222889D01*
X3999368Y-15194318D01*
X4008892Y-15156223D01*
X4008892Y-15080032D01*
X3999368Y-15060985D01*
X3989844Y-15051461D01*
X3970796Y-15041937D01*
X3932701Y-15041937D01*
X3913654Y-15051461D01*
X3904130Y-15060985D01*
X3894606Y-15080032D01*
X3894606Y-15127651D01*
X3904130Y-15146699D01*
X3913654Y-15156223D01*
X3932701Y-15165746D01*
X3970796Y-15165746D01*
X3989844Y-15156223D01*
X3999368Y-15146699D01*
X4008892Y-15127651D01*
X4180320Y-15041937D02*
X4142225Y-15041937D01*
X4123177Y-15051461D01*
X4113654Y-15060985D01*
X4094606Y-15089556D01*
X4085082Y-15127651D01*
X4085082Y-15203842D01*
X4094606Y-15222889D01*
X4104130Y-15232413D01*
X4123177Y-15241937D01*
X4161273Y-15241937D01*
X4180320Y-15232413D01*
X4189844Y-15222889D01*
X4199368Y-15203842D01*
X4199368Y-15156223D01*
X4189844Y-15137175D01*
X4180320Y-15127651D01*
X4161273Y-15118127D01*
X4123177Y-15118127D01*
X4104130Y-15127651D01*
X4094606Y-15137175D01*
X4085082Y-15156223D01*
X4294606Y-15241937D02*
X4332701Y-15241937D01*
X4351749Y-15232413D01*
X4361273Y-15222889D01*
X4380320Y-15194318D01*
X4389844Y-15156223D01*
X4389844Y-15080032D01*
X4380320Y-15060985D01*
X4370797Y-15051461D01*
X4351749Y-15041937D01*
X4313654Y-15041937D01*
X4294606Y-15051461D01*
X4285082Y-15060985D01*
X4275558Y-15080032D01*
X4275558Y-15127651D01*
X4285082Y-15146699D01*
X4294606Y-15156223D01*
X4313654Y-15165746D01*
X4351749Y-15165746D01*
X4370797Y-15156223D01*
X4380320Y-15146699D01*
X4389844Y-15127651D01*
X4466035Y-15041937D02*
X4466035Y-15080032D01*
X4542225Y-15041937D02*
X4542225Y-15080032D01*
X4837463Y-15318127D02*
X4827939Y-15308604D01*
X4808892Y-15280032D01*
X4799368Y-15260985D01*
X4789844Y-15232413D01*
X4780320Y-15184794D01*
X4780320Y-15146699D01*
X4789844Y-15099080D01*
X4799368Y-15070508D01*
X4808892Y-15051461D01*
X4827939Y-15022889D01*
X4837463Y-15013365D01*
X4999368Y-15108604D02*
X4999368Y-15241937D01*
X4951749Y-15032413D02*
X4904130Y-15175270D01*
X5027939Y-15175270D01*
X5094606Y-15060985D02*
X5104130Y-15051461D01*
X5123178Y-15041937D01*
X5170797Y-15041937D01*
X5189844Y-15051461D01*
X5199368Y-15060985D01*
X5208892Y-15080032D01*
X5208892Y-15099080D01*
X5199368Y-15127651D01*
X5085082Y-15241937D01*
X5208892Y-15241937D01*
X5446987Y-15241937D02*
X5446987Y-15041937D01*
X5532701Y-15241937D02*
X5532701Y-15137175D01*
X5523178Y-15118127D01*
X5504130Y-15108604D01*
X5475558Y-15108604D01*
X5456511Y-15118127D01*
X5446987Y-15127651D01*
X5656511Y-15241937D02*
X5637463Y-15232413D01*
X5627939Y-15222889D01*
X5618416Y-15203842D01*
X5618416Y-15146699D01*
X5627939Y-15127651D01*
X5637463Y-15118127D01*
X5656511Y-15108604D01*
X5685082Y-15108604D01*
X5704130Y-15118127D01*
X5713654Y-15127651D01*
X5723177Y-15146699D01*
X5723177Y-15203842D01*
X5713654Y-15222889D01*
X5704130Y-15232413D01*
X5685082Y-15241937D01*
X5656511Y-15241937D01*
X5837463Y-15241937D02*
X5818416Y-15232413D01*
X5808892Y-15213365D01*
X5808892Y-15041937D01*
X5989844Y-15232413D02*
X5970796Y-15241937D01*
X5932701Y-15241937D01*
X5913654Y-15232413D01*
X5904130Y-15213365D01*
X5904130Y-15137175D01*
X5913654Y-15118127D01*
X5932701Y-15108604D01*
X5970796Y-15108604D01*
X5989844Y-15118127D01*
X5999368Y-15137175D01*
X5999368Y-15156223D01*
X5904130Y-15175270D01*
X6075558Y-15232413D02*
X6094606Y-15241937D01*
X6132701Y-15241937D01*
X6151749Y-15232413D01*
X6161273Y-15213365D01*
X6161273Y-15203842D01*
X6151749Y-15184794D01*
X6132701Y-15175270D01*
X6104130Y-15175270D01*
X6085082Y-15165746D01*
X6075558Y-15146699D01*
X6075558Y-15137175D01*
X6085082Y-15118127D01*
X6104130Y-15108604D01*
X6132701Y-15108604D01*
X6151749Y-15118127D01*
X6227939Y-15318127D02*
X6237463Y-15308604D01*
X6256511Y-15280032D01*
X6266035Y-15260985D01*
X6275558Y-15232413D01*
X6285082Y-15184794D01*
X6285082Y-15146699D01*
X6275558Y-15099080D01*
X6266035Y-15070508D01*
X6256511Y-15051461D01*
X6237463Y-15022889D01*
X6227939Y-15013365D01*
X6589844Y-15318127D02*
X6580320Y-15308604D01*
X6561273Y-15280032D01*
X6551749Y-15260985D01*
X6542225Y-15232413D01*
X6532701Y-15184794D01*
X6532701Y-15146699D01*
X6542225Y-15099080D01*
X6551749Y-15070508D01*
X6561273Y-15051461D01*
X6580320Y-15022889D01*
X6589844Y-15013365D01*
X6666035Y-15108604D02*
X6666035Y-15241937D01*
X6666035Y-15127651D02*
X6675558Y-15118127D01*
X6694606Y-15108604D01*
X6723177Y-15108604D01*
X6742225Y-15118127D01*
X6751749Y-15137175D01*
X6751749Y-15241937D01*
X6875558Y-15241937D02*
X6856511Y-15232413D01*
X6846987Y-15222889D01*
X6837463Y-15203842D01*
X6837463Y-15146699D01*
X6846987Y-15127651D01*
X6856511Y-15118127D01*
X6875558Y-15108604D01*
X6904130Y-15108604D01*
X6923177Y-15118127D01*
X6932701Y-15127651D01*
X6942225Y-15146699D01*
X6942225Y-15203842D01*
X6932701Y-15222889D01*
X6923177Y-15232413D01*
X6904130Y-15241937D01*
X6875558Y-15241937D01*
X6999368Y-15108604D02*
X7075558Y-15108604D01*
X7027939Y-15041937D02*
X7027939Y-15213365D01*
X7037463Y-15232413D01*
X7056511Y-15241937D01*
X7075558Y-15241937D01*
X7294606Y-15108604D02*
X7294606Y-15308604D01*
X7294606Y-15118127D02*
X7313654Y-15108604D01*
X7351749Y-15108604D01*
X7370796Y-15118127D01*
X7380320Y-15127651D01*
X7389844Y-15146699D01*
X7389844Y-15203842D01*
X7380320Y-15222889D01*
X7370796Y-15232413D01*
X7351749Y-15241937D01*
X7313654Y-15241937D01*
X7294606Y-15232413D01*
X7504130Y-15241937D02*
X7485082Y-15232413D01*
X7475558Y-15213365D01*
X7475558Y-15041937D01*
X7666035Y-15241937D02*
X7666035Y-15137175D01*
X7656511Y-15118127D01*
X7637463Y-15108604D01*
X7599368Y-15108604D01*
X7580320Y-15118127D01*
X7666035Y-15232413D02*
X7646987Y-15241937D01*
X7599368Y-15241937D01*
X7580320Y-15232413D01*
X7570796Y-15213365D01*
X7570796Y-15194318D01*
X7580320Y-15175270D01*
X7599368Y-15165746D01*
X7646987Y-15165746D01*
X7666035Y-15156223D01*
X7732701Y-15108604D02*
X7808892Y-15108604D01*
X7761273Y-15041937D02*
X7761273Y-15213365D01*
X7770796Y-15232413D01*
X7789844Y-15241937D01*
X7808892Y-15241937D01*
X7951749Y-15232413D02*
X7932701Y-15241937D01*
X7894606Y-15241937D01*
X7875558Y-15232413D01*
X7866035Y-15213365D01*
X7866035Y-15137175D01*
X7875558Y-15118127D01*
X7894606Y-15108604D01*
X7932701Y-15108604D01*
X7951749Y-15118127D01*
X7961273Y-15137175D01*
X7961273Y-15156223D01*
X7866035Y-15175270D01*
X8132701Y-15241937D02*
X8132701Y-15041937D01*
X8132701Y-15232413D02*
X8113654Y-15241937D01*
X8075558Y-15241937D01*
X8056511Y-15232413D01*
X8046987Y-15222889D01*
X8037463Y-15203842D01*
X8037463Y-15146699D01*
X8046987Y-15127651D01*
X8056511Y-15118127D01*
X8075558Y-15108604D01*
X8113654Y-15108604D01*
X8132701Y-15118127D01*
X8208892Y-15318127D02*
X8218416Y-15308604D01*
X8237463Y-15280032D01*
X8246987Y-15260985D01*
X8256511Y-15232413D01*
X8266035Y-15184794D01*
X8266035Y-15146699D01*
X8256511Y-15099080D01*
X8246987Y-15070508D01*
X8237463Y-15051461D01*
X8218416Y-15022889D01*
X8208892Y-15013365D01*
M02*
