M48
; DRILL file {KiCad (6.0.10-0)} date 2023 January 29, Sunday 16:28:30
; FORMAT={-:-/ absolute / metric / decimal}
; #@! TF.CreationDate,2023-01-29T16:28:30+09:00
; #@! TF.GenerationSoftware,Kicad,Pcbnew,(6.0.10-0)
; #@! TF.FileFunction,NonPlated,1,2,NPTH
FMAT,2
METRIC
; #@! TA.AperFunction,NonPlated,NPTH,ComponentDrill
T1C0.300
; #@! TA.AperFunction,NonPlated,NPTH,ComponentDrill
T2C0.900
; #@! TA.AperFunction,NonPlated,NPTH,ComponentDrill
T3C0.991
; #@! TA.AperFunction,NonPlated,NPTH,ComponentDrill
T4C1.702
; #@! TA.AperFunction,NonPlated,NPTH,ComponentDrill
T5C2.300
; #@! TA.AperFunction,NonPlated,NPTH,ComponentDrill
T6C4.300
; #@! TA.AperFunction,NonPlated,NPTH,ComponentDrill
T7C5.000
%
G90
G05
T1
X19.821Y-93.38
X20.415Y-93.38
X21.009Y-93.38
X21.602Y-93.38
X22.196Y-93.38
X22.79Y-93.38
X23.384Y-93.38
X23.977Y-93.38
X24.571Y-93.38
X57.809Y-93.38
X57.912Y-31.97
X58.403Y-93.38
X58.506Y-31.97
X58.997Y-93.38
X59.1Y-31.97
X59.591Y-93.38
X59.694Y-31.97
X60.184Y-93.38
X60.287Y-31.97
X60.778Y-93.38
X60.881Y-31.97
X61.372Y-93.38
X61.475Y-31.97
X61.966Y-93.38
X62.069Y-31.97
X62.559Y-93.38
X62.662Y-31.97
X95.882Y-31.97
X96.476Y-31.97
X97.07Y-31.97
X97.664Y-31.97
X98.257Y-31.97
X98.851Y-31.97
X99.445Y-31.97
X100.039Y-31.97
X100.632Y-31.97
X200.403Y-31.98
X200.996Y-31.98
X201.59Y-31.98
X202.184Y-31.98
X202.778Y-31.98
X203.371Y-31.98
X203.965Y-31.98
X204.559Y-31.98
X205.153Y-31.98
X238.422Y-31.97
X238.452Y-93.39
X239.016Y-31.97
X239.046Y-93.39
X239.61Y-31.97
X239.64Y-93.39
X240.204Y-31.97
X240.234Y-93.39
X240.797Y-31.97
X240.827Y-93.39
X241.391Y-31.97
X241.421Y-93.39
X241.985Y-31.97
X242.015Y-93.39
X242.579Y-31.97
X242.609Y-93.39
X243.172Y-31.97
X243.202Y-93.39
X276.452Y-93.39
X277.046Y-93.39
X277.64Y-93.39
X278.234Y-93.39
X278.827Y-93.39
X279.421Y-93.39
X280.015Y-93.39
X280.609Y-93.39
X281.202Y-93.39
T2
X145.118Y-84.245
X145.118Y-87.245
X155.802Y-84.245
X155.802Y-87.245
T3
X27.407Y-41.72
X27.407Y-60.72
X27.407Y-79.72
X46.407Y-41.72
X46.407Y-60.72
X46.407Y-79.72
X65.407Y-36.97
X65.407Y-55.97
X65.407Y-74.97
X84.407Y-34.595
X84.407Y-53.595
X84.407Y-72.595
X93.907Y-94.595
X103.407Y-36.97
X103.407Y-55.97
X103.407Y-74.97
X115.817Y-98.839
X122.407Y-39.345
X122.407Y-58.345
X122.407Y-77.345
X130.91Y-98.674
X175.182Y-107.716
X188.905Y-39.345
X188.905Y-58.345
X188.905Y-77.345
X195.14Y-96.138
X207.905Y-36.97
X207.905Y-55.97
X207.905Y-74.97
X217.405Y-94.595
X226.905Y-34.595
X226.905Y-53.595
X226.905Y-72.595
X245.905Y-36.97
X245.905Y-55.97
X245.905Y-74.97
X264.905Y-41.72
X264.905Y-60.72
X264.905Y-79.72
X283.905Y-41.72
X283.905Y-60.72
X283.905Y-79.72
T4
X16.688Y-45.92
X16.688Y-64.92
X16.688Y-83.92
X27.688Y-45.92
X27.688Y-64.92
X27.688Y-83.92
X35.688Y-45.92
X35.688Y-64.92
X35.688Y-83.92
X46.688Y-45.92
X46.688Y-64.92
X46.688Y-83.92
X54.688Y-41.17
X54.688Y-60.17
X54.688Y-79.17
X65.688Y-41.17
X65.688Y-60.17
X65.688Y-79.17
X73.688Y-38.795
X73.688Y-57.795
X73.688Y-76.795
X83.188Y-98.795
X84.688Y-38.795
X84.688Y-57.795
X84.688Y-76.795
X92.688Y-41.17
X92.688Y-60.17
X92.688Y-79.17
X94.188Y-98.795
X103.688Y-41.17
X103.688Y-60.17
X103.688Y-79.17
X104.375Y-100.121
X111.688Y-43.545
X111.688Y-62.545
X111.688Y-81.545
X115.0Y-102.969
X122.688Y-43.545
X122.688Y-62.545
X122.688Y-81.545
X129.188Y-110.058
X134.688Y-100.532
X166.185Y-100.532
X171.685Y-110.059
X178.185Y-43.545
X178.185Y-62.545
X178.185Y-81.545
X185.872Y-102.969
X189.185Y-43.545
X189.185Y-62.545
X189.185Y-81.545
X196.497Y-100.122
X197.185Y-41.17
X197.185Y-60.17
X197.185Y-79.17
X206.685Y-98.795
X208.185Y-41.17
X208.185Y-60.17
X208.185Y-79.17
X216.185Y-38.795
X216.185Y-57.795
X216.185Y-76.795
X217.685Y-98.795
X227.185Y-38.795
X227.185Y-57.795
X227.185Y-76.795
X235.185Y-41.17
X235.185Y-60.17
X235.185Y-79.17
X246.185Y-41.17
X246.185Y-60.17
X246.185Y-79.17
X254.185Y-45.92
X254.185Y-64.92
X254.185Y-83.92
X265.185Y-45.92
X265.185Y-64.92
X265.185Y-83.92
X273.185Y-45.92
X273.185Y-64.92
X273.185Y-83.92
X284.185Y-45.92
X284.185Y-64.92
X284.185Y-83.92
T5
X129.945Y-84.419
X144.376Y-92.94
X156.331Y-93.085
X170.89Y-84.542
T6
X31.695Y-55.42
X31.695Y-74.42
X50.712Y-55.445
X50.712Y-74.445
X74.84Y-91.685
X107.65Y-51.93
X121.405Y-99.3
X179.486Y-99.447
X193.236Y-51.937
X226.056Y-91.697
X250.212Y-55.427
X250.212Y-74.427
X269.196Y-55.427
X269.196Y-74.427
T7
X22.188Y-45.92
X22.188Y-64.92
X22.188Y-83.92
X41.188Y-45.92
X41.188Y-64.92
X41.188Y-83.92
X60.188Y-41.17
X60.188Y-60.17
X60.188Y-79.17
X79.188Y-38.795
X79.188Y-57.795
X79.188Y-76.795
X88.688Y-98.795
X98.188Y-41.17
X98.188Y-60.17
X98.188Y-79.17
X109.688Y-101.545
X117.188Y-43.545
X117.188Y-62.545
X117.188Y-81.545
X131.938Y-105.295
X168.935Y-105.295
X183.685Y-43.545
X183.685Y-62.545
X183.685Y-81.545
X191.185Y-101.545
X202.685Y-41.17
X202.685Y-60.17
X202.685Y-79.17
X212.185Y-98.795
X221.685Y-38.795
X221.685Y-57.795
X221.685Y-76.795
X240.685Y-41.17
X240.685Y-60.17
X240.685Y-79.17
X259.685Y-45.92
X259.685Y-64.92
X259.685Y-83.92
X278.685Y-45.92
X278.685Y-64.92
X278.685Y-83.92
T0
M30
