M48
; DRILL file {KiCad (6.0.10-0)} date 2023 January 29, Sunday 16:28:30
; FORMAT={-:-/ absolute / metric / decimal}
; #@! TF.CreationDate,2023-01-29T16:28:30+09:00
; #@! TF.GenerationSoftware,Kicad,Pcbnew,(6.0.10-0)
; #@! TF.FileFunction,Plated,1,2,PTH
FMAT,2
METRIC
; #@! TA.AperFunction,Plated,PTH,ViaDrill
T1C0.400
; #@! TA.AperFunction,Plated,PTH,ComponentDrill
T2C0.750
; #@! TA.AperFunction,Plated,PTH,ComponentDrill
T3C0.813
; #@! TA.AperFunction,Plated,PTH,ComponentDrill
T4C1.000
; #@! TA.AperFunction,Plated,PTH,ComponentDrill
T5C1.300
; #@! TA.AperFunction,Plated,PTH,ComponentDrill
T6C1.500
%
G90
G05
T1
X34.697Y-67.41
X47.222Y-72.945
X63.112Y-69.658
X82.062Y-70.112
X100.262Y-75.495
X100.538Y-55.09
X101.112Y-70.566
X120.262Y-73.008
X126.912Y-78.745
X160.387Y-86.445
X174.895Y-75.77
X174.965Y-67.37
X175.515Y-68.2
X175.515Y-75.01
X185.935Y-76.465
X186.562Y-73.227
X205.612Y-70.628
X215.583Y-93.715
X224.562Y-70.195
X243.559Y-70.045
X261.938Y-59.84
X262.225Y-78.84
X265.645Y-68.717
T2
X140.387Y-80.845
X140.387Y-82.845
X160.537Y-81.045
X160.537Y-83.045
T3
X30.188Y-42.917
X30.188Y-48.917
X30.188Y-61.917
X30.188Y-67.917
X30.188Y-80.917
X30.188Y-86.917
X33.188Y-42.92
X33.188Y-48.92
X33.188Y-61.92
X33.188Y-67.92
X33.188Y-80.92
X33.188Y-86.92
X68.188Y-37.92
X68.188Y-43.92
X68.188Y-56.92
X68.188Y-62.92
X68.188Y-75.92
X68.188Y-81.92
X71.188Y-37.915
X71.188Y-43.915
X71.188Y-56.915
X71.188Y-62.915
X71.188Y-75.915
X71.188Y-81.915
X80.507Y-95.91
X80.507Y-101.91
X96.688Y-95.905
X96.688Y-101.905
X99.688Y-95.905
X99.688Y-101.905
X106.188Y-37.92
X106.188Y-43.92
X106.188Y-56.92
X106.188Y-62.92
X106.188Y-75.92
X106.188Y-81.92
X109.188Y-37.92
X109.188Y-43.92
X109.188Y-56.92
X109.188Y-62.92
X109.188Y-75.92
X109.188Y-81.92
X129.284Y-42.082
X129.284Y-44.622
X129.284Y-47.162
X129.284Y-49.702
X129.284Y-52.242
X129.284Y-54.782
X129.284Y-57.322
X129.284Y-59.862
X129.284Y-62.402
X129.284Y-64.942
X129.284Y-67.482
X129.284Y-70.022
X131.758Y-77.168
X134.298Y-77.168
X136.838Y-77.168
X139.379Y-77.168
X141.918Y-77.168
X144.504Y-42.082
X144.504Y-44.622
X144.504Y-47.162
X144.504Y-49.702
X144.504Y-52.242
X144.504Y-54.782
X144.504Y-57.322
X144.504Y-59.862
X144.504Y-62.402
X144.504Y-64.942
X144.504Y-67.482
X144.504Y-70.022
X156.454Y-42.208
X156.454Y-44.748
X156.454Y-47.288
X156.454Y-49.828
X156.454Y-52.368
X156.454Y-54.908
X156.454Y-57.448
X156.454Y-59.988
X156.454Y-62.528
X156.454Y-65.068
X156.454Y-67.608
X156.454Y-70.148
X158.987Y-77.31
X161.528Y-77.31
X164.067Y-77.31
X166.607Y-77.31
X169.147Y-77.31
X171.674Y-42.208
X171.674Y-44.748
X171.674Y-47.288
X171.674Y-49.828
X171.674Y-52.368
X171.674Y-54.908
X171.674Y-57.448
X171.674Y-59.988
X171.674Y-62.528
X171.674Y-65.068
X171.674Y-67.608
X171.674Y-70.148
X191.685Y-37.92
X191.685Y-43.92
X191.685Y-56.92
X191.685Y-62.92
X191.685Y-75.92
X191.685Y-81.92
X194.685Y-37.92
X194.685Y-43.92
X194.685Y-56.92
X194.685Y-62.92
X194.685Y-75.92
X194.685Y-81.92
X201.195Y-95.915
X201.195Y-101.915
X204.195Y-95.915
X204.195Y-101.915
X220.185Y-95.93
X220.185Y-101.93
X229.685Y-37.915
X229.685Y-43.915
X229.685Y-56.915
X229.685Y-62.915
X229.685Y-75.915
X229.685Y-81.915
X232.685Y-37.92
X232.685Y-43.92
X232.685Y-56.92
X232.685Y-62.92
X232.685Y-75.92
X232.685Y-81.92
X267.685Y-42.92
X267.685Y-48.92
X267.685Y-61.92
X267.685Y-67.92
X267.685Y-80.92
X267.685Y-86.92
X270.685Y-42.92
X270.685Y-48.92
X270.685Y-61.92
X270.685Y-67.92
X270.685Y-80.92
X270.685Y-86.92
T4
X135.472Y-72.595
X138.012Y-72.595
X162.972Y-72.595
X165.512Y-72.595
T5
X144.862Y-73.421
X144.862Y-79.921
X156.012Y-73.567
X156.012Y-80.067
T6
X17.188Y-49.72
X17.188Y-68.72
X17.188Y-87.72
X17.787Y-50.62
X17.787Y-69.62
X17.787Y-88.62
X19.648Y-51.0
X19.648Y-70.0
X19.648Y-89.0
X22.188Y-51.82
X22.188Y-70.82
X22.188Y-89.82
X24.787Y-51.67
X24.787Y-70.67
X24.787Y-89.67
X25.997Y-48.46
X25.997Y-67.46
X25.997Y-86.46
X36.188Y-49.72
X36.188Y-68.72
X36.188Y-87.72
X36.788Y-50.62
X36.788Y-69.62
X36.788Y-88.62
X38.648Y-51.0
X38.648Y-70.0
X38.648Y-89.0
X41.188Y-51.82
X41.188Y-70.82
X41.188Y-89.82
X43.788Y-51.67
X43.788Y-70.67
X43.788Y-89.67
X44.997Y-48.46
X44.997Y-67.46
X44.997Y-86.46
X55.188Y-44.97
X55.188Y-63.97
X55.188Y-82.97
X55.787Y-45.87
X55.787Y-64.87
X55.787Y-83.87
X57.648Y-46.25
X57.648Y-65.25
X57.648Y-84.25
X60.188Y-47.07
X60.188Y-66.07
X60.188Y-85.07
X62.787Y-46.92
X62.787Y-65.92
X62.787Y-84.92
X63.997Y-43.71
X63.997Y-62.71
X63.997Y-81.71
X74.188Y-42.595
X74.188Y-61.595
X74.188Y-80.595
X74.787Y-43.495
X74.787Y-62.495
X74.787Y-81.495
X76.647Y-43.875
X76.647Y-62.875
X76.647Y-81.875
X79.188Y-44.695
X79.188Y-63.695
X79.188Y-82.695
X81.787Y-44.545
X81.787Y-63.545
X81.787Y-82.545
X82.998Y-41.335
X82.998Y-60.335
X82.998Y-79.335
X83.688Y-102.595
X84.287Y-103.495
X86.147Y-103.875
X88.688Y-104.695
X91.287Y-104.545
X92.498Y-101.335
X93.188Y-44.97
X93.188Y-63.97
X93.188Y-82.97
X93.787Y-45.87
X93.787Y-64.87
X93.787Y-83.87
X95.647Y-46.25
X95.647Y-65.25
X95.647Y-84.25
X98.188Y-47.07
X98.188Y-66.07
X98.188Y-85.07
X100.787Y-46.92
X100.787Y-65.92
X100.787Y-84.92
X101.998Y-43.71
X101.998Y-62.71
X101.998Y-81.71
X103.874Y-103.921
X104.221Y-104.946
X105.919Y-105.795
X108.16Y-107.244
X110.711Y-107.772
X112.188Y-47.345
X112.188Y-66.345
X112.188Y-85.345
X112.71Y-104.985
X112.787Y-48.245
X112.787Y-67.245
X112.787Y-86.245
X114.647Y-48.625
X114.647Y-67.625
X114.647Y-86.625
X117.188Y-49.445
X117.188Y-68.445
X117.188Y-87.445
X119.787Y-49.295
X119.787Y-68.295
X119.787Y-87.295
X120.997Y-46.085
X120.997Y-65.085
X120.997Y-84.085
X132.728Y-111.525
X133.808Y-111.456
X135.067Y-110.035
X136.042Y-103.265
X137.047Y-108.245
X138.217Y-105.918
X162.665Y-103.835
X163.144Y-102.865
X163.265Y-105.636
X163.825Y-108.245
X165.255Y-110.422
X168.64Y-109.865
X178.685Y-47.345
X178.685Y-66.345
X178.685Y-85.345
X179.285Y-48.245
X179.285Y-67.245
X179.285Y-86.245
X181.145Y-48.625
X181.145Y-67.625
X181.145Y-86.625
X183.685Y-49.445
X183.685Y-68.445
X183.685Y-87.445
X186.285Y-49.295
X186.285Y-68.295
X186.285Y-87.295
X187.339Y-106.51
X187.495Y-46.085
X187.495Y-65.085
X187.495Y-84.085
X188.151Y-107.224
X190.046Y-107.11
X192.712Y-107.244
X195.184Y-106.427
X195.522Y-103.013
X197.685Y-44.97
X197.685Y-63.97
X197.685Y-82.97
X198.285Y-45.87
X198.285Y-64.87
X198.285Y-83.87
X200.145Y-46.25
X200.145Y-65.25
X200.145Y-84.25
X202.685Y-47.07
X202.685Y-66.07
X202.685Y-85.07
X205.285Y-46.92
X205.285Y-65.92
X205.285Y-84.92
X206.495Y-43.71
X206.495Y-62.71
X206.495Y-81.71
X207.185Y-102.595
X207.785Y-103.495
X209.645Y-103.875
X212.185Y-104.695
X214.785Y-104.545
X215.995Y-101.335
X216.685Y-42.595
X216.685Y-61.595
X216.685Y-80.595
X217.285Y-43.495
X217.285Y-62.495
X217.285Y-81.495
X219.145Y-43.875
X219.145Y-62.875
X219.145Y-81.875
X221.685Y-44.695
X221.685Y-63.695
X221.685Y-82.695
X224.285Y-44.545
X224.285Y-63.545
X224.285Y-82.545
X225.495Y-41.335
X225.495Y-60.335
X225.495Y-79.335
X235.685Y-44.97
X235.685Y-63.97
X235.685Y-82.97
X236.285Y-45.87
X236.285Y-64.87
X236.285Y-83.87
X238.145Y-46.25
X238.145Y-65.25
X238.145Y-84.25
X240.685Y-47.07
X240.685Y-66.07
X240.685Y-85.07
X243.285Y-46.92
X243.285Y-65.92
X243.285Y-84.92
X244.495Y-43.71
X244.495Y-62.71
X244.495Y-81.71
X254.685Y-49.72
X254.685Y-68.72
X254.685Y-87.72
X255.285Y-50.62
X255.285Y-69.62
X255.285Y-88.62
X257.145Y-51.0
X257.145Y-70.0
X257.145Y-89.0
X259.685Y-51.82
X259.685Y-70.82
X259.685Y-89.82
X262.285Y-51.67
X262.285Y-70.67
X262.285Y-89.67
X263.495Y-48.46
X263.495Y-67.46
X263.495Y-86.46
X273.685Y-49.72
X273.685Y-68.72
X273.685Y-87.72
X274.285Y-50.62
X274.285Y-69.62
X274.285Y-88.62
X276.145Y-51.0
X276.145Y-70.0
X276.145Y-89.0
X278.685Y-51.82
X278.685Y-70.82
X278.685Y-89.82
X281.285Y-51.67
X281.285Y-70.67
X281.285Y-89.67
X282.495Y-48.46
X282.495Y-67.46
X282.495Y-86.46
T0
M30
